<?xml version="1.0" encoding="UTF-8"?> <svg xmlns="http://www.w3.org/2000/svg" width="104.457" height="97.828" viewBox="0 0 104.457 97.828"><g id="advanced-map" transform="translate(-101.203 -239.863)"><g id="Group_212" data-name="Group 212" transform="translate(2.703 -20.897)"><path id="Path_85" data-name="Path 85" d="M177.159,245.5h15.353l10.446,95.826H98.5L108.946,245.5h16.281" transform="translate(0 16.174)" fill="#9cebfc"></path><line id="Line_56" data-name="Line 56" x2="97.857" transform="translate(101.8 327.239)" fill="none" stroke="#e7f7fb" stroke-linecap="round" stroke-linejoin="round" stroke-width="2"></line><path id="Path_166" data-name="Path 166" d="M-3.568,0H29.261" transform="translate(166.55 291.935)" fill="none" stroke="#e7f7fb" stroke-linecap="round" stroke-width="2"></path><line id="Line_58" data-name="Line 58" y1="0.037" x2="34.651" transform="translate(105.646 291.897)" fill="none" stroke="#e7f7fb" stroke-linecap="round" stroke-linejoin="round" stroke-width="2"></line><path id="Path_165" data-name="Path 165" d="M0,75.652,8.907-20" transform="translate(124.614 281.848)" fill="none" stroke="#e7f7fb" stroke-linecap="round" stroke-width="2"></path><line id="Line_60" data-name="Line 60" x1="6.474" y1="95.603" transform="translate(171.297 261.897)" fill="none" stroke="#e7f7fb" stroke-linecap="round" stroke-linejoin="round" stroke-width="2"></line><g id="Group_84" data-name="Group 84" transform="translate(103.614 282.315)"><path id="Path_83" data-name="Path 83" d="M127.424,253.049c0,6.378-11.96,20.215-11.96,20.215S103.5,259.427,103.5,253.049a11.969,11.969,0,0,1,23.924,0Z" transform="translate(-103.5 -241.5)" fill="#00cae6"></path><path id="Path_84" data-name="Path 84" d="M115.652,249.011a4.488,4.488,0,1,1-4.485-4.331A4.412,4.412,0,0,1,115.652,249.011Z" transform="translate(-99.203 -237.462)" fill="#e7f7fb"></path></g><g id="Group_219" data-name="Group 219" transform="translate(135.614 269.04)"><path id="Path_83-2" data-name="Path 83" d="M137.422,257.875c0,9.044-16.958,28.663-16.958,28.663S103.5,266.919,103.5,257.875s7.589-16.375,16.964-16.375S137.422,248.828,137.422,257.875Z" transform="translate(-103.5 -241.5)" fill="#00cae6"></path><path id="Path_84-2" data-name="Path 84" d="M119.4,250.821a6.363,6.363,0,1,1-6.359-6.141A6.255,6.255,0,0,1,119.4,250.821Z" transform="translate(-96.077 -234.445)" fill="#e7f7fb"></path></g><g id="Group_218" data-name="Group 218" transform="translate(181.614 327.167)"><path id="Path_83-3" data-name="Path 83" d="M120,249.467c0,4.4-8.25,13.945-8.25,13.945s-8.253-9.545-8.253-13.945a8.257,8.257,0,0,1,16.5,0Z" transform="translate(-103.5 -241.5)" fill="#00cae6"></path><path id="Path_84-3" data-name="Path 84" d="M112.87,247.667a3.1,3.1,0,1,1-3.094-2.988A3.043,3.043,0,0,1,112.87,247.667Z" transform="translate(-101.523 -239.701)" fill="#e7f7fb"></path></g></g></g></svg> 