<?xml version="1.0" encoding="UTF-8"?> <svg xmlns="http://www.w3.org/2000/svg" width="128.425" height="125" viewBox="0 0 128.425 125"><g id="C_-_74_x2C__speaker_x2C__Person_x2C__presentation_x2C__professional_x2C__pudlic_x2C__seminar_x2C__speech" transform="translate(-393.783 59.343)"><g id="Group_216" data-name="Group 216" transform="translate(393.783 -59.343)"><rect id="Rectangle_152" data-name="Rectangle 152" width="30.453" height="43.742" transform="translate(49.486 74.151)" fill="#82e5f6"></rect><path id="Path_193" data-name="Path 193" d="M179.86,178.4h44.4V166.627a8.984,8.984,0,0,0-9-8.95h-26.3a9.088,9.088,0,0,0-9.1,9.054V178.4Zm19.587-16.921h5.23v5.205h-5.23Zm0,7.81h5.23V174.5h-5.23Z" transform="translate(-137.849 -123.847)" fill="#00cae6"></path><path id="Path_194" data-name="Path 194" d="M186.334,163.774H202.06v-7.641h-6.505V131.487a1.366,1.366,0,0,0-.686-1.185l-13.374-7.687a1.366,1.366,0,1,0-1.361,2.369l12.689,7.293v23.855H122.235V132.226l12.689-7.292a1.366,1.366,0,1,0-1.361-2.369l-13.375,7.686a1.367,1.367,0,0,0-.686,1.185v24.7H113v7.641h73.337Z" transform="translate(-93.316 -98.845)" fill="#82e5f6"></path><path id="Path_195" data-name="Path 195" d="M227.81,64.886a11.615,11.615,0,1,0-11.676-11.614A11.658,11.658,0,0,0,227.81,64.886Z" transform="translate(-163.546 -41.657)" fill="#00cae6"></path><path id="Path_196" data-name="Path 196" d="M162.842,328.309H127.434V273.7H71.943v54.605H37.149a1.366,1.366,0,0,0,0,2.733H162.842a1.366,1.366,0,1,0,0-2.733Zm-77.3-45.483A1.366,1.366,0,0,1,86.9,281.46h26.185a1.366,1.366,0,0,1,1.366,1.366V319.3a1.366,1.366,0,0,1-1.366,1.366H86.9a1.367,1.367,0,0,1-1.366-1.366Z" transform="translate(-35.783 -206.042)" fill="#82e5f6"></path></g></g></svg> 