<?xml version="1.0" encoding="UTF-8"?> <svg xmlns="http://www.w3.org/2000/svg" width="90.812" height="125" viewBox="0 0 90.812 125"><g id="Group_219" data-name="Group 219" transform="translate(-884.465 -10482)"><path id="Path_197" data-name="Path 197" d="M77.184,18.768A9.384,9.384,0,1,1,67.8,9.383a9.384,9.384,0,0,1,9.384,9.385M84.4,28.153a18.767,18.767,0,1,0-30.691,2.6L68.168,51.612,82.834,30.452a18.623,18.623,0,0,0,1.446-2.085l.149-.214Z" transform="translate(876.059 10482)" fill="#00cae6"></path><path id="Path_197-2" data-name="Path 197" d="M67.083,50.048,95.843,73.73v50.23L67.083,100.276Z" transform="translate(848 10482.543)" fill="#82e5f6"></path><g id="Livello_111" transform="translate(884.465 10531.928)"><path id="Path_197-3" data-name="Path 197" d="M127.277,49.385v50.23L97.108,124.457V74.228Z" transform="translate(-36.465 -49.385)" fill="#82e5f6"></path></g><g id="Livello_111-2" data-name="Livello_111" transform="translate(884.465 10531.928)"><path id="Path_197-4" data-name="Path 197" d="M65.68,100.111,36.465,124.168V73.937L65.68,49.878Z" transform="translate(-36.465 -49.385)" fill="#82e5f6"></path></g></g></svg> 