<?xml version="1.0" encoding="UTF-8"?> <svg xmlns="http://www.w3.org/2000/svg" width="130" height="96.088" viewBox="0 0 130 96.088"><g id="advanced-report" transform="translate(-1033.5 -2597.5)"><path id="Path_140" data-name="Path 140" d="M1034.5,2683.631v-77.652a8.478,8.478,0,0,1,8.479-8.479h101.739a8.478,8.478,0,0,1,8.478,8.479v77.652" transform="translate(5)" fill="#7ee9fc"></path><path id="Path_141" data-name="Path 141" d="M1112.63,2611.5v5.652H1084.37V2611.5H1033.5v11.3a5.654,5.654,0,0,0,5.652,5.652h118.7a5.651,5.651,0,0,0,5.652-5.652v-11.3Z" transform="translate(0 65.13)" fill="#00cae6"></path><g id="Group_210" data-name="Group 210"><rect id="Rectangle_122" data-name="Rectangle 122" width="15" height="15" transform="translate(1060.5 2647.5)" fill="#fff"></rect><rect id="Rectangle_123" data-name="Rectangle 123" width="15" height="36" transform="translate(1080.5 2626.5)" fill="#fff"></rect><rect id="Rectangle_124" data-name="Rectangle 124" width="15" height="28" transform="translate(1100.5 2634.5)" fill="#fff"></rect><rect id="Rectangle_125" data-name="Rectangle 125" width="15" height="51" transform="translate(1120.5 2611.5)" fill="#fff"></rect></g></g></svg> 