<svg xmlns="http://www.w3.org/2000/svg" width="130.425" height="122.54" viewBox="0 0 130.425 122.54"><g id="Advanced_Importer_Addon" data-name="Advanced Importer Addon" transform="translate(1)"><path id="Path_54" data-name="Path 54" d="M12.655,0h104.69A12.655,12.655,0,0,1,130,12.655v97.23a12.655,12.655,0,0,1-12.655,12.655H12.655A12.655,12.655,0,0,1,0,109.885V12.655A12.655,12.655,0,0,1,12.655,0Z" transform="translate(-1)" fill="#baf0fc"></path><path id="Rectangle_17" data-name="Rectangle 17" d="M11,0H119a11,11,0,0,1,11,11V24a0,0,0,0,1,0,0H0a0,0,0,0,1,0,0V11A11,11,0,0,1,11,0Z" transform="translate(-1)" fill="#00cae6"></path><g id="Group_48" data-name="Group 48" transform="translate(15 9.489)"><g id="Group_40" data-name="Group 40"><path id="Path_49" data-name="Path 49" d="M1038.826,2451a2.826,2.826,0,1,0,2.826,2.826,2.828,2.828,0,0,0-2.826-2.826Z" transform="translate(-1036 -2451.002)" fill="#fff"></path></g><g id="Group_41" data-name="Group 41" transform="translate(11.304)"><path id="Path_50" data-name="Path 50" d="M1040.826,2451a2.826,2.826,0,1,0,2.826,2.826,2.828,2.828,0,0,0-2.826-2.826Z" transform="translate(-1038 -2451.002)" fill="#fff"></path></g><g id="Group_42" data-name="Group 42" transform="translate(22.609)"><path id="Path_51" data-name="Path 51" d="M1042.826,2451a2.826,2.826,0,1,0,2.826,2.826,2.828,2.828,0,0,0-2.826-2.826Z" transform="translate(-1040 -2451.002)" fill="#fff"></path></g></g><path id="Path_55" data-name="Path 55" d="M112,0" transform="translate(17.425 27.16)" fill="none" stroke="#000" stroke-linecap="round" stroke-width="1"></path><path id="Path_113" data-name="Path 113" d="M20,0" transform="translate(55 35)" fill="none" stroke="#fff" stroke-linecap="round" stroke-width="5" opacity="0.2"></path><g id="Group_178" data-name="Group 178" transform="translate(0 6)"><rect id="Rectangle_97" data-name="Rectangle 97" width="84" height="46" rx="5" transform="translate(22 52)" fill="#fff" opacity="0.8"></rect><g id="Group_229" data-name="Group 229" transform="translate(-401 -461.524)"><g id="Group_28" data-name="Group 28" transform="translate(444.5 492.5)"><circle id="Ellipse_28" data-name="Ellipse 28" cx="24" cy="24" r="24" transform="translate(-3.5 -2.975)" fill="#baf0fc"></circle><circle id="Ellipse_3" data-name="Ellipse 3" cx="20" cy="20" r="20" transform="translate(0.5 0.025)" fill="#00cae6"></circle><g id="Group_158" data-name="Group 158" transform="translate(12.5 11.025)"><line id="Line_23" data-name="Line 23" y1="18.287" transform="translate(7.315)" fill="none" stroke="#fff" stroke-linecap="round" stroke-linejoin="round" stroke-width="3"></line><path id="Path_36" data-name="Path 36" d="M448.5,499l7.315,7.315L463.13,499" transform="translate(-448.5 -488.028)" fill="none" stroke="#fff" stroke-linecap="round" stroke-linejoin="round" stroke-width="3"></path></g></g></g></g></g></svg>