<?xml version="1.0" encoding="UTF-8"?> <svg xmlns="http://www.w3.org/2000/svg" xmlns:xlink="http://www.w3.org/1999/xlink" width="130" height="91.765" viewBox="0 0 130 91.765"><defs><clipPath id="clip-path"><rect width="48" height="32.618" fill="none"></rect></clipPath></defs><g id="Group_214" data-name="Group 214" transform="translate(-909 -10028)"><rect id="Rectangle_151" data-name="Rectangle 151" width="130" height="91.765" rx="5" transform="translate(909 10028)" fill="#00cae6" opacity="0.3"></rect><g id="Group_211" data-name="Group 211" transform="translate(918 10048.381)"><g id="Group_209" data-name="Group 209" transform="translate(6)"><g id="Group_208" data-name="Group 208"><rect id="Rectangle_74" data-name="Rectangle 74" width="28" height="32" transform="translate(0 0)" fill="#00cae6"></rect><circle id="Ellipse_22" data-name="Ellipse 22" cx="6" cy="6" r="6" transform="translate(8 8.933)" fill="#fff"></circle><path id="Path_145" data-name="Path 145" d="M769.5,2378.5h-20c0-6.628,4.476-12,10-12S769.5,2371.874,769.5,2378.5Z" transform="translate(-745.5 -2346.502)" fill="#fff"></path></g><line id="Line_91" data-name="Line 91" x2="20.941" transform="translate(1.52 41.354)" fill="none" stroke="#fff" stroke-linecap="round" stroke-linejoin="round" stroke-width="3"></line><path id="Path_189" data-name="Path 189" d="M0,0H13" transform="translate(1.52 48.823)" fill="none" stroke="#fff" stroke-linecap="round" stroke-width="3"></path></g><g id="Repeat_Grid_13" data-name="Repeat Grid 13" transform="translate(57.321)" clip-path="url(#clip-path)"><g transform="translate(-951.321 -10018.382)"><path id="Path_191" data-name="Path 191" d="M82.442,38.391l1.976,1.865,4.024-4.5" transform="translate(871 9985.125)" fill="none" stroke="#fff" stroke-linecap="round" stroke-linejoin="round" stroke-width="3"></path><path id="Path_192" data-name="Path 192" d="M0,0H30" transform="translate(968 10022.882)" fill="#5bddf2" stroke="#fff" stroke-linecap="round" stroke-width="2" opacity="0.6"></path></g><g transform="translate(-951.321 -10006.382)"><path id="Path_191-2" data-name="Path 191" d="M82.442,38.391l1.976,1.865,4.024-4.5" transform="translate(871 9985.125)" fill="none" stroke="#fff" stroke-linecap="round" stroke-linejoin="round" stroke-width="3"></path><path id="Path_192-2" data-name="Path 192" d="M0,0H30" transform="translate(968 10022.882)" fill="#5bddf2" stroke="#fff" stroke-linecap="round" stroke-width="2" opacity="0.6"></path></g><g transform="translate(-951.321 -9994.382)"><path id="Path_191-3" data-name="Path 191" d="M82.442,38.391l1.976,1.865,4.024-4.5" transform="translate(871 9985.125)" fill="none" stroke="#fff" stroke-linecap="round" stroke-linejoin="round" stroke-width="3"></path><path id="Path_192-3" data-name="Path 192" d="M0,0H30" transform="translate(968 10022.882)" fill="#5bddf2" stroke="#fff" stroke-linecap="round" stroke-width="2" opacity="0.6"></path></g></g></g></g></svg> 