<svg xmlns="http://www.w3.org/2000/svg" xmlns:xlink="http://www.w3.org/1999/xlink" width="130" height="122" viewBox="0 0 130 122"><defs><clipPath id="clip-path"><rect id="Rectangle_157" data-name="Rectangle 157" width="110" height="110" transform="translate(22 11.407)" fill="#fff"></rect></clipPath></defs><g id="buddyboss-integration-addon" transform="translate(-216 -1307)"><g id="integration-addon-bg" transform="translate(-693 -8721)"><path id="Path_205" data-name="Path 205" d="M6.373,0H123.627C127.147,0,130,3.793,130,8.472V113.528c0,4.679-2.853,8.472-6.373,8.472H6.373C2.853,122,0,118.207,0,113.528V8.472C0,3.793,2.853,0,6.373,0Z" transform="translate(909 10028)" fill="#baf0fc"></path></g><g id="buddyboss-icon" transform="translate(204 1301.594)" clip-path="url(#clip-path)"><g id="BB_Logos_Colored_Icon" transform="translate(23.009 12.013)"><path id="Path_214" data-name="Path 214" d="M145.142,90.562A54.231,54.231,0,1,1,90.91,36.33,54.231,54.231,0,0,1,145.142,90.562Z" transform="translate(-36.68 -36.33)" fill="#00cae6"></path><path id="Path_215" data-name="Path 215" d="M441.63,417.993a24.048,24.048,0,0,0-9.012,1.757l.407-2.2s2.738-11.834-8.488-12.548a1.154,1.154,0,0,0-1.292,1.087l-2.2,11.919a24.05,24.05,0,0,0-8.69,1.741l.406-2.2s2.738-11.83-8.486-12.544a1.146,1.146,0,0,0-1.288,1.076l-6.009,32.586a25.9,25.9,0,0,0-.453,4.476c-.173,13.864,10.686,25.143,24.212,25.143S445.408,457,445.582,443.138c.046-3.74-.862-6.266-2.475-7.741a5.449,5.449,0,0,0-7.791.86c-1.689,2.26-1.432,5.719-1.447,6.881a13.413,13.413,0,0,1-2.785,8.016A13.284,13.284,0,0,1,441.48,430a12.8,12.8,0,0,1,12.653,13.138,13.407,13.407,0,0,1-6.224,11.169,5.221,5.221,0,0,0-2.334,2.529,29.289,29.289,0,0,1-8.917,10.01c-.21.146-.582.43-.466.719.108.266.708.363.971.405a23.545,23.545,0,0,0,3.838.314c13.523,0,24.668-11.279,24.841-25.143S455.155,417.993,441.63,417.993Zm-33.393,25.145a13.278,13.278,0,0,1,10.554-12.895l-1.551,8.418a26.013,26.013,0,0,0-.453,4.476,25.216,25.216,0,0,0,3.442,13.1A12.81,12.81,0,0,1,408.237,443.138Z" transform="translate(-375.398 -383.354)" fill="#fff"></path></g></g></g></svg>