<svg xmlns="http://www.w3.org/2000/svg" xmlns:xlink="http://www.w3.org/1999/xlink" width="136" height="136" viewBox="0 0 136 136"><defs><clipPath id="clip-path"><rect id="Rectangle_4" data-name="Rectangle 4" width="40" height="40" transform="translate(1341 336)" fill="#fff"></rect></clipPath><linearGradient id="linear-gradient" x1="0.95" y1="0.236" x2="0.033" y2="0.432" gradientUnits="objectBoundingBox"><stop offset="0" stop-color="#f349a6"></stop><stop offset="1" stop-color="#9b43e3"></stop></linearGradient></defs><g id="Divi_Single_Builder" data-name="Divi Single Builder" transform="translate(-512 -363)"><g id="icon_39" transform="translate(-385 -5853)"><g id="Group_156" data-name="Group 156" transform="translate(323 -3)"><g id="Group_146" data-name="Group 146" transform="translate(-267.5 3865.5)"><path id="Rectangle_65" data-name="Rectangle 65" d="M7,0H113a7,7,0,0,1,7,7V117a3,3,0,0,1-3,3H3a3,3,0,0,1-3-3V7A7,7,0,0,1,7,0Z" transform="translate(841.5 2353.5)" fill="#baf0fc"></path><path id="Rectangle_5" data-name="Rectangle 5" d="M7,0H113a7,7,0,0,1,7,7V26a0,0,0,0,1,0,0H0a0,0,0,0,1,0,0V7A7,7,0,0,1,7,0Z" transform="translate(841.5 2353.5)" fill="#00cae6"></path><path id="Path_144" data-name="Path 144" d="M120,0" transform="translate(841.5 2379.587)" fill="none" stroke="#000" stroke-linecap="round" stroke-width="1"></path><g id="Group_150" data-name="Group 150" transform="translate(857.5 2363.5)"><g id="Group_40" data-name="Group 40"><path id="Path_49" data-name="Path 49" d="M1038.83,2451a2.826,2.826,0,1,0,2.826,2.826,2.826,2.826,0,0,0-2.826-2.826Z" transform="translate(-1036 -2451.002)" fill="#fff"></path></g><g id="Group_41" data-name="Group 41" transform="translate(11.304)"><path id="Path_50" data-name="Path 50" d="M1040.83,2451a2.826,2.826,0,1,0,2.826,2.826,2.826,2.826,0,0,0-2.826-2.826Z" transform="translate(-1038 -2451.002)" fill="#fff"></path></g><g id="Group_42" data-name="Group 42" transform="translate(22.609)"><path id="Path_51" data-name="Path 51" d="M1042.83,2451a2.826,2.826,0,1,0,2.826,2.826,2.826,2.826,0,0,0-2.826-2.826Z" transform="translate(-1040 -2451.002)" fill="#fff"></path></g></g></g></g><g id="Group_153" data-name="Group 153" transform="translate(163.5 3891.5)"><g id="Group_3" data-name="Group 3" transform="translate(-38)"><rect id="Rectangle_72" data-name="Rectangle 72" width="50.667" height="34.176" transform="translate(786.5 2361.5)" fill="#00cae6"></rect><rect id="Rectangle_75" data-name="Rectangle 75" width="50.667" height="5" transform="translate(786.5 2401.147)" fill="#00cae6"></rect><rect id="Rectangle_77" data-name="Rectangle 77" width="50.667" height="5" transform="translate(786.5 2411.147)" fill="#00cae6"></rect><rect id="Rectangle_76" data-name="Rectangle 76" width="26.647" height="5" transform="translate(786.5 2421.147)" fill="#00cae6"></rect><g id="Group_155" data-name="Group 155" transform="translate(2.232 -1.15)"><path id="Path_147" data-name="Path 147" d="M432.232,1469.85l-11.324-19.35-8.927,13.929-9.066-6.422-9.247,11.844Z" transform="translate(396.601 922.197)" fill="#baf0fc"></path><circle id="Ellipse_23" data-name="Ellipse 23" cx="4.838" cy="4.838" r="4.838" transform="translate(791.902 2366.65)" fill="#baf0fc"></circle></g></g><g id="Group_2" data-name="Group 2" transform="translate(60)"><g id="Group_154" data-name="Group 154"><rect id="Rectangle_74" data-name="Rectangle 74" width="30" height="34.286" transform="translate(748.5 2361.5)" fill="#00cae6"></rect><circle id="Ellipse_22" data-name="Ellipse 22" cx="6.429" cy="6.429" r="6.429" transform="translate(757.071 2371.072)" fill="#fff"></circle><path id="Path_145" data-name="Path 145" d="M770.929,2379.36H749.5c0-7.1,4.8-12.857,10.714-12.857S770.929,2372.26,770.929,2379.36Z" transform="translate(3.286 16.427)" fill="#fff"></path></g><line id="Line_90" data-name="Line 90" x2="20.941" transform="translate(750.02 2402.853)" fill="none" stroke="#fff" stroke-linecap="round" stroke-linejoin="round" stroke-width="3"></line><path id="Path_146" data-name="Path 146" d="M0,0H13" transform="translate(750.02 2410.323)" fill="none" stroke="#fff" stroke-linecap="round" stroke-width="3"></path></g></g></g><g id="Mask_Group_1" data-name="Mask Group 1" transform="translate(-733 123)" clip-path="url(#clip-path)"><g id="Group_1" data-name="Group 1" transform="translate(1341 336)"><rect id="Rectangle_3" data-name="Rectangle 3" width="40" height="40" rx="5" fill="url(#linear-gradient)"></rect><g id="nkPGCefr_400x400" transform="translate(3.175 3.175)"><path id="Path_1" data-name="Path 1" d="M44.448-368.806a16.544,16.544,0,0,0-13.229,9.111,16.434,16.434,0,0,0,2.925,18.8,16.618,16.618,0,0,0,8.294,4.628,16.078,16.078,0,0,0,7.1,0,16.5,16.5,0,0,0,12.556-12.556,16.3,16.3,0,0,0-1.337-10.872,16.438,16.438,0,0,0-11.218-8.784,21,21,0,0,0-3.743-.433C45.555-368.9,44.948-368.854,44.448-368.806Zm4.156,1.414a15.573,15.573,0,0,1,8.794,4.936,16.578,16.578,0,0,1,3.117,5.465,15.9,15.9,0,0,1,0,9.236,15.507,15.507,0,0,1-9.91,9.91,15.9,15.9,0,0,1-9.236,0,15.507,15.507,0,0,1-9.91-9.91,15.9,15.9,0,0,1,0-9.236,15.486,15.486,0,0,1,9.91-9.91A16.414,16.414,0,0,1,48.6-367.391Z" transform="translate(-29.486 368.913)" fill="#fff"></path><path id="Path_2" data-name="Path 2" d="M134-281.719v9.39h2.963c4.56,0,5.85-.173,7.485-.962a8.2,8.2,0,0,0,4.33-5.532,14.854,14.854,0,0,0,.241-4.666c-.558-3.81-2.7-6.369-6.119-7.322-.731-.2-.991-.221-4.83-.25L134-291.1Zm8.371-7.976a6.824,6.824,0,0,1,4.512,3.646,10.067,10.067,0,0,1-.481,9.438,6.44,6.44,0,0,1-2.54,2.223c-1.482.722-1.6.741-5.311.789l-3.3.029v-16.385l3.252.048A16.781,16.781,0,0,1,142.371-289.7Z" transform="translate(-123.944 298.587)" fill="#fff"></path></g></g></g></g></svg>