<?xml version="1.0" encoding="UTF-8"?> <svg xmlns="http://www.w3.org/2000/svg" width="121.5" height="123.843" viewBox="0 0 121.5 123.843"><g id="icon_7" transform="translate(-1202.5 -1683)"><g id="Group_30" data-name="Group 30" transform="translate(1151.788 -1874.5)"><path id="Path_37" data-name="Path 37" d="M104.775,3631.012l-13.206,13.206c-7.258,7.261-19.679,6.721-27.6-1.2s-8.463-20.348-1.2-27.606l13.2-13.2" transform="translate(13.037 1.692)" fill="#00cae6" stroke="#00cae6" stroke-linecap="round" stroke-linejoin="round" stroke-width="2"></path><line id="Line_24" data-name="Line 24" x2="28.805" y2="28.806" transform="translate(89.006 3603.9)" fill="none" stroke="#00cae6" stroke-linecap="round" stroke-linejoin="round" stroke-width="2"></line><line id="Line_25" data-name="Line 25" y1="9.601" x2="9.601" transform="translate(96.207 3601.5)" fill="none" stroke="#00cae6" stroke-linecap="round" stroke-linejoin="round" stroke-width="3"></line><line id="Line_26" data-name="Line 26" y1="9.601" x2="9.601" transform="translate(110.611 3615.901)" fill="none" stroke="#00cae6" stroke-linecap="round" stroke-linejoin="round" stroke-width="3"></line><path id="Path_43" data-name="Path 43" d="M0,0,19.2,19.2" transform="translate(89.006 3613.501)" fill="none" stroke="#fff" stroke-linecap="round" stroke-width="3"></path><path id="Path_38" data-name="Path 38" d="M69.89,3618.239a5.091,5.091,0,1,1,0-7.2A5.091,5.091,0,0,1,69.89,3618.239Z" transform="translate(21.517 19.265)" fill="#fff"></path><path id="Path_39" data-name="Path 39" d="M71.152,3620.25l-7.618,7.614-7.2-7.2,7.615-7.618" transform="translate(9.868 27.647)" fill="none" stroke="#00cae6" stroke-linecap="round" stroke-linejoin="round" stroke-width="3"></path><path id="Path_40" data-name="Path 40" d="M69.8,3616.351l-15.6,15.6a6.788,6.788,0,0,0,9.6,9.6l10.8-10.8a5.092,5.092,0,0,1,7.2,7.2l-5.713,5.709" transform="translate(0 35.562)" fill="none" stroke="#00cae6" stroke-linecap="round" stroke-linejoin="round" stroke-width="3"></path></g><g id="Group_31" data-name="Group 31" transform="translate(1111.5 -1920.5)"><path id="Path_42" data-name="Path 42" d="M203.761,3603.5H154.239c-4.827,0-8.739,8.786-8.739,19.621s3.912,19.622,8.739,19.622h49.522c4.824,0,8.739-8.787,8.739-19.622S208.585,3603.5,203.761,3603.5Z" transform="translate(0 0.002)" fill="#baf0fc"></path><g id="Group_204" data-name="Group 204" transform="translate(163.962 3613.396)"><rect id="Rectangle_144" data-name="Rectangle 144" width="7" height="19" rx="3.5" fill="#fff"></rect><rect id="Rectangle_145" data-name="Rectangle 145" width="7" height="19" rx="3.5" transform="translate(24)" fill="#fff"></rect></g></g></g></svg> 