<?xml version="1.0" encoding="UTF-8"?> <svg xmlns="http://www.w3.org/2000/svg" xmlns:xlink="http://www.w3.org/1999/xlink" width="130" height="122" viewBox="0 0 130 122"><defs><clipPath id="clip-path"><rect id="Rectangle_130" data-name="Rectangle 130" width="28" height="40" transform="translate(51 2)" fill="#fff"></rect></clipPath></defs><g id="fluent-view" transform="translate(-1507 -2166)"><g id="Group_44" data-name="Group 44" transform="translate(1507 2166)"><path id="Path_54" data-name="Path 54" d="M12.655,0h104.69C124.334,0,130,6.676,130,14.911v92.178c0,8.235-5.666,14.911-12.655,14.911H12.655C5.666,122,0,115.324,0,107.089V14.911C0,6.676,5.666,0,12.655,0Z" fill="#d8f7ff"></path><path id="Rectangle_17" data-name="Rectangle 17" d="M11,0H119a11,11,0,0,1,11,11V24a0,0,0,0,1,0,0H0a0,0,0,0,1,0,0V11A11,11,0,0,1,11,0Z" transform="translate(0 0)" fill="#00cae6"></path><g id="Group_48" data-name="Group 48" transform="translate(14 9.489)"><g id="Group_40" data-name="Group 40"><path id="Path_49" data-name="Path 49" d="M1038.826,2451a2.826,2.826,0,1,0,2.826,2.826,2.828,2.828,0,0,0-2.826-2.826Z" transform="translate(-1036 -2451.002)" fill="#fff"></path></g><g id="Group_41" data-name="Group 41" transform="translate(11.304)"><path id="Path_50" data-name="Path 50" d="M1040.826,2451a2.826,2.826,0,1,0,2.826,2.826,2.828,2.828,0,0,0-2.826-2.826Z" transform="translate(-1038 -2451.002)" fill="#fff"></path></g><g id="Group_42" data-name="Group 42" transform="translate(22.609)"><path id="Path_51" data-name="Path 51" d="M1042.826,2451a2.826,2.826,0,1,0,2.826,2.826,2.828,2.828,0,0,0-2.826-2.826Z" transform="translate(-1040 -2451.002)" fill="#fff"></path></g></g><path id="Path_55" data-name="Path 55" d="M112,0" transform="translate(17.425 27.16)" fill="none" stroke="#000" stroke-linecap="round" stroke-width="1"></path><g id="Group_186" data-name="Group 186" transform="translate(19 43)"><g id="Group_168" data-name="Group 168"><rect id="Rectangle_21" data-name="Rectangle 21" width="92" height="58" rx="5" transform="translate(0 0)" fill="#41d9ee" opacity="0.3"></rect></g><g id="Group_169" data-name="Group 169" transform="translate(46)"><path id="Rectangle_21-2" data-name="Rectangle 21" d="M0,0H41a5,5,0,0,1,5,5V53a5,5,0,0,1-5,5H0a0,0,0,0,1,0,0V0A0,0,0,0,1,0,0Z" transform="translate(0 0)" fill="#1ed9fb" opacity="0.3"></path></g><g id="Group_184" data-name="Group 184" transform="translate(9 14)"><rect id="Rectangle_85" data-name="Rectangle 85" width="8" height="8" rx="3" transform="translate(0 0)" fill="#fff"></rect><path id="Path_154" data-name="Path 154" d="M0,0H13.833" transform="translate(11.667 4.13)" fill="none" stroke="#fff" stroke-linecap="round" stroke-width="2" opacity="0.6"></path></g><g id="Mask_Group_1" data-name="Mask Group 1" transform="translate(4 7)" clip-path="url(#clip-path)"><g id="Group_217" data-name="Group 217" transform="translate(52.538 4.308)"><g id="Group_213" data-name="Group 213"><rect id="Rectangle_127" data-name="Rectangle 127" width="6" height="6" rx="3" transform="translate(0.462 -0.308)" fill="#41d9ee"></rect><rect id="Rectangle_128" data-name="Rectangle 128" width="6" height="6" rx="3" transform="translate(9.462 -0.308)" fill="#41d9ee"></rect><rect id="Rectangle_129" data-name="Rectangle 129" width="6" height="6" rx="3" transform="translate(18.462 -0.308)" fill="#41d9ee"></rect></g><g id="Group_214" data-name="Group 214" transform="translate(0 10)"><rect id="Rectangle_127-2" data-name="Rectangle 127" width="6" height="6" rx="3" transform="translate(0.462 -0.308)" fill="#41d9ee"></rect><rect id="Rectangle_128-2" data-name="Rectangle 128" width="6" height="6" rx="3" transform="translate(9.462 -0.308)" fill="#41d9ee"></rect><rect id="Rectangle_129-2" data-name="Rectangle 129" width="6" height="6" rx="3" transform="translate(18.462 -0.308)" fill="#41d9ee"></rect></g><g id="Group_215" data-name="Group 215" transform="translate(0 20)"><rect id="Rectangle_127-3" data-name="Rectangle 127" width="6" height="6" rx="3" transform="translate(0.462 -0.308)" fill="#41d9ee"></rect><rect id="Rectangle_128-3" data-name="Rectangle 128" width="6" height="6" rx="3" transform="translate(9.462 -0.308)" fill="#41d9ee"></rect><rect id="Rectangle_129-3" data-name="Rectangle 129" width="6" height="6" rx="3" transform="translate(18.462 -0.308)" fill="#41d9ee"></rect></g><g id="Group_216" data-name="Group 216" transform="translate(0 30)"><rect id="Rectangle_127-4" data-name="Rectangle 127" width="6" height="6" rx="3" transform="translate(0.462 -0.308)" fill="#41d9ee"></rect><rect id="Rectangle_128-4" data-name="Rectangle 128" width="6" height="6" rx="3" transform="translate(9.462 -0.308)" fill="#41d9ee"></rect><rect id="Rectangle_129-4" data-name="Rectangle 129" width="6" height="6" rx="3" transform="translate(18.462 -0.308)" fill="#41d9ee"></rect></g></g></g><path id="Path_159" data-name="Path 159" d="M0,0H23" transform="translate(11.5 30.13)" fill="none" stroke="#fff" stroke-linecap="round" stroke-width="4" opacity="0.6"></path><path id="Path_160" data-name="Path 160" d="M0,0H16" transform="translate(11.5 38.13)" fill="none" stroke="#fff" stroke-linecap="round" stroke-width="4" opacity="0.6"></path></g></g></g></svg> 