<?xml version="1.0" encoding="UTF-8"?> <svg xmlns="http://www.w3.org/2000/svg" width="120" height="120" viewBox="0 0 120 120"><g id="invoice" transform="translate(-897 -6216)"><g id="Group_146" data-name="Group 146" transform="translate(55.5 3862.5)"><rect id="Rectangle_65" data-name="Rectangle 65" width="120" height="120" rx="2" transform="translate(841.5 2353.5)" fill="#baf0fc"></rect><path id="Path_144" data-name="Path 144" d="M120,0" transform="translate(841.5 2379.587)" fill="none" stroke="#000" stroke-linecap="round" stroke-width="1"></path><g id="Group_202" data-name="Group 202" transform="translate(841.5 2345.5)"><g id="Group_168" data-name="Group 168" transform="translate(-1 41)"><rect id="Rectangle_21" data-name="Rectangle 21" width="92" height="35" rx="5" transform="translate(15 31)" fill="#00cae6" opacity="0.3"></rect><g id="Group_199" data-name="Group 199" transform="translate(0 -1.13)"><path id="Path_173" data-name="Path 173" d="M0,0H26.333" transform="translate(24.667 42.13)" fill="none" stroke="#fff" stroke-linecap="round" stroke-width="2" opacity="0.6"></path><path id="Path_175" data-name="Path 175" d="M0,0H6" transform="translate(68.667 42.13)" fill="none" stroke="#fff" stroke-linecap="round" stroke-width="2" opacity="0.6"></path><path id="Path_177" data-name="Path 177" d="M0,0H9" transform="translate(88.5 42.13)" fill="none" stroke="#fff" stroke-linecap="round" stroke-width="2" opacity="0.6"></path><path id="Path_176" data-name="Path 176" d="M0,0H6" transform="translate(68.667 48.5)" fill="none" stroke="#fff" stroke-linecap="round" stroke-width="2" opacity="0.6"></path><path id="Path_178" data-name="Path 178" d="M0,0H9" transform="translate(88.5 48.5)" fill="none" stroke="#fff" stroke-linecap="round" stroke-width="2" opacity="0.6"></path><path id="Path_174" data-name="Path 174" d="M0,0H18.134" transform="translate(24.667 48.5)" fill="none" stroke="#fff" stroke-linecap="round" stroke-width="2" opacity="0.6"></path><path id="Path_179" data-name="Path 179" d="M0,0H9" transform="translate(88.5 58)" fill="none" stroke="#fff" stroke-linecap="round" stroke-width="4" opacity="0.6"></path></g></g><path id="Path_159" data-name="Path 159" d="M0,0H23" transform="translate(37.5 36)" fill="none" stroke="#fff" stroke-linecap="round" stroke-width="2.5"></path><path id="Path_171" data-name="Path 171" d="M0,0H12" transform="translate(37.5 41)" fill="none" stroke="#fff" stroke-linecap="round" stroke-width="2.5"></path><path id="Path_49" data-name="Path 49" d="M1045,2451a9,9,0,1,0,9,9,9.005,9.005,0,0,0-9-9Z" transform="translate(-1022 -2421.002)" fill="#fff"></path><path id="Path_172" data-name="Path 172" d="M-24.426.072a.743.743,0,0,1-.558-.216.775.775,0,0,1-.21-.564V-7.752a.754.754,0,0,1,.21-.558.754.754,0,0,1,.558-.21.77.77,0,0,1,.57.21.754.754,0,0,1,.21.558V-.708a.775.775,0,0,1-.21.564A.758.758,0,0,1-24.426.072Zm9.612-8.592a.7.7,0,0,1,.534.21.78.78,0,0,1,.2.558V-.708a.788.788,0,0,1-.2.564.693.693,0,0,1-.528.216A.687.687,0,0,1-15.4-.2l-4.38-5.7v5.2a.817.817,0,0,1-.192.564A.67.67,0,0,1-20.5.072a.67.67,0,0,1-.528-.216.817.817,0,0,1-.192-.564V-7.752a.767.767,0,0,1,.2-.558.719.719,0,0,1,.54-.21.674.674,0,0,1,.576.276l4.368,5.676V-7.752a.78.78,0,0,1,.2-.558A.684.684,0,0,1-14.814-8.52Zm9.312.4a.655.655,0,0,1,.636-.408.842.842,0,0,1,.54.192.591.591,0,0,1,.24.48.775.775,0,0,1-.072.3L-7.482-.408a.785.785,0,0,1-.33.354.945.945,0,0,1-.474.126A.945.945,0,0,1-8.76-.054a.785.785,0,0,1-.33-.354L-12.4-7.56a.756.756,0,0,1-.072-.288.6.6,0,0,1,.246-.492.883.883,0,0,1,.558-.192.734.734,0,0,1,.378.1.676.676,0,0,1,.27.306l2.76,6.132ZM1.062.108A4.179,4.179,0,0,1-1.08-.42a3.532,3.532,0,0,1-1.4-1.512,5.091,5.091,0,0,1-.492-2.3,5.106,5.106,0,0,1,.486-2.3,3.491,3.491,0,0,1,1.4-1.506,4.212,4.212,0,0,1,2.148-.528A4.179,4.179,0,0,1,3.2-8.04,3.5,3.5,0,0,1,4.6-6.534a5.106,5.106,0,0,1,.486,2.3,5.091,5.091,0,0,1-.492,2.3A3.532,3.532,0,0,1,3.192-.42,4.155,4.155,0,0,1,1.062.108Zm0-1.236a2.214,2.214,0,0,0,1.818-.8,3.569,3.569,0,0,0,.654-2.3,3.543,3.543,0,0,0-.654-2.3,2.221,2.221,0,0,0-1.818-.8,2.234,2.234,0,0,0-1.83.8,3.543,3.543,0,0,0-.654,2.3,3.569,3.569,0,0,0,.654,2.3A2.227,2.227,0,0,0,1.062-1.128ZM8.01.072a.743.743,0,0,1-.558-.216.775.775,0,0,1-.21-.564V-7.752a.754.754,0,0,1,.21-.558.754.754,0,0,1,.558-.21.77.77,0,0,1,.57.21.754.754,0,0,1,.21.558V-.708a.775.775,0,0,1-.21.564A.758.758,0,0,1,8.01.072Zm6.984.036A4.221,4.221,0,0,1,12.852-.42a3.51,3.51,0,0,1-1.41-1.512,5.091,5.091,0,0,1-.492-2.3,5.054,5.054,0,0,1,.492-2.3,3.518,3.518,0,0,1,1.41-1.506,4.221,4.221,0,0,1,2.142-.528,4.639,4.639,0,0,1,1.488.234,3.866,3.866,0,0,1,1.236.678.688.688,0,0,1,.216.252.781.781,0,0,1,.06.324.688.688,0,0,1-.144.444.432.432,0,0,1-.348.18.887.887,0,0,1-.492-.168,3.558,3.558,0,0,0-.96-.534,3.06,3.06,0,0,0-.984-.15,2.306,2.306,0,0,0-1.89.78,3.534,3.534,0,0,0-.642,2.292,3.556,3.556,0,0,0,.642,2.3,2.306,2.306,0,0,0,1.89.78,2.824,2.824,0,0,0,.954-.156,4.577,4.577,0,0,0,.99-.528,1.679,1.679,0,0,1,.24-.12A.672.672,0,0,1,17.5-2a.432.432,0,0,1,.348.18.688.688,0,0,1,.144.444.791.791,0,0,1-.06.318.672.672,0,0,1-.216.258,3.866,3.866,0,0,1-1.236.678A4.639,4.639,0,0,1,14.994.108ZM20.694,0a.751.751,0,0,1-.546-.192.717.717,0,0,1-.2-.54v-7a.717.717,0,0,1,.2-.54.751.751,0,0,1,.546-.192h4.332a.835.835,0,0,1,.54.156.539.539,0,0,1,.192.444.571.571,0,0,1-.192.462.813.813,0,0,1-.54.162H21.462v2.328h3.324a.835.835,0,0,1,.54.156.553.553,0,0,1,.192.456.539.539,0,0,1-.192.444.835.835,0,0,1-.54.156H21.462v2.472h3.564a.813.813,0,0,1,.54.162.571.571,0,0,1,.192.462.539.539,0,0,1-.192.444.835.835,0,0,1-.54.156Z" transform="translate(59 67)" fill="#00cae6"></path><g id="layer1" transform="translate(-338.5 -1046)"><path id="path2470" d="M426.5,1091v-3h6v6h-6Zm5.143,0v-2.142h-4.284v4.284h4.284Zm-3.43,0v-1.286h2.571v2.571h-2.571Zm6,2.569v-.43h-.859v-1.712h.859v.859h.859v-1.718h.853v-.853h-1.712v-.859h2.571V1088h-.859v-1.718H432.5v.859h-.853v-.859h-.859v.859h-.853v-1.718h-1.718v.859h.859v.859h-.859v-.859H426.5v-.859h.859v-2.572h1.712v.859h-.859v.859h1.718v-.859h.853v.859H432.5v-.859h-.853v-.859h.853v.859h1.718v.859h.859v-1.718h-1.718v-2.572h.859v-.854h-.859v-.859h1.718v-1.712h.853V1076h1.718v.859h-.859v.853h-.859v1.718h.859v-.859h.859v1.712h-3.43V1082h.859v-.854h.853V1082h.859v-.854h.859v2.571h-.859v-.859h-.859v1.718h1.718v.854h.859v-2.572h1.712v.859h.853v-.859h.859v.859h.859v1.713h.853v-1.713h.859v3.43h-.859V1088h.859v.853h-.859v1.713h-.853v.859H444.5v.859h-2.571v.853h-.859V1094h-5.143v-1.713h-.853V1094h-.859Zm3.43-.856v-.427h-.859v.853h.859Zm3.425,0v-.427h.859v-1.718h.859v-1.713h.853V1088h-1.712v-.859h1.712v-.859h-.853v-.859h-.859v-1.713h-.859v1.713h-.853v-1.713h-.859v1.713H438.5v1.718h-.859v2.572h-.859v1.713h.859v-1.713h1.712v1.713H438.5v.859h.853v.853h1.712Zm-.853-1.712v-1.286h-.859v-.859H438.5V1088h.853v.853h.859v-2.571h.853v-.859h.859v1.718h-.859v1.712h.859v1.713h-.859v1.718h-.853Zm.853-1.715v-.43h-.853v.859h.853Zm-8.573-3.431v-.429h1.718v-.854H432.5v.854h-.853v.859h.853Zm5.148,0v-.429h-.859v.859h.859Zm-6.861-.856v-.427h-.853v.854h.853Zm5.143,0v-.427h-.853v.854h.853Zm0-2.574V1082h-.853v.859h.853Zm7.714,11.145v-.43h.859V1094h-.859Zm-10.286-6v-.43h1.718V1088h-1.718ZM426.5,1079v-3h6v6h-6Zm5.143,0v-2.142h-4.284v4.284h4.284Zm-3.43,0v-1.286h2.571v2.571h-2.571Zm10.291,0v-3h6v6h-6Zm5.137,0v-2.142h-4.284v4.284h4.284Zm-3.425,0v-1.286h2.571v2.571h-2.571Z" transform="translate(0 0)" fill="#00cae6"></path></g></g></g></g></svg> 