<svg xmlns="http://www.w3.org/2000/svg" xmlns:xlink="http://www.w3.org/1999/xlink" width="137" height="137" viewBox="0 0 137 137">
  <defs>
    <linearGradient id="linear-gradient" x1="0.6" x2="0.14" y2="0.9" gradientUnits="objectBoundingBox">
      <stop offset="0" stop-color="#db3157"/>
      <stop offset="1" stop-color="#3f3278"/>
    </linearGradient>
  </defs>
  <g id="icon_40" transform="translate(-897 -6216)">
    <g id="Group_156" data-name="Group 156" transform="translate(323 -3)">
      <g id="Group_146" data-name="Group 146" transform="translate(-267.5 3865.5)">
        <rect id="Rectangle_65" data-name="Rectangle 65" width="120" height="120" rx="2" transform="translate(841.5 2353.5)" fill="#baf0fc"/>
        <path id="Rectangle_69" data-name="Rectangle 69" d="M2,0H118a2,2,0,0,1,2,2V26H0V2A2,2,0,0,1,2,0Z" transform="translate(841.5 2353.5)" fill="#00cae6"/>
        <path id="Path_144" data-name="Path 144" d="M120,0" transform="translate(841.5 2379.587)" fill="none" stroke="#000" stroke-linecap="round" stroke-width="1"/>
        <g id="Group_150" data-name="Group 150" transform="translate(857.5 2363.5)">
          <g id="Group_40" data-name="Group 40">
            <path id="Path_49" data-name="Path 49" d="M1038.83,2451a2.826,2.826,0,1,0,2.826,2.826,2.826,2.826,0,0,0-2.826-2.826Z" transform="translate(-1036 -2451.002)" fill="#fff"/>
          </g>
          <g id="Group_41" data-name="Group 41" transform="translate(11.304)">
            <path id="Path_50" data-name="Path 50" d="M1040.83,2451a2.826,2.826,0,1,0,2.826,2.826,2.826,2.826,0,0,0-2.826-2.826Z" transform="translate(-1038 -2451.002)" fill="#fff"/>
          </g>
          <g id="Group_42" data-name="Group 42" transform="translate(22.609)">
            <path id="Path_51" data-name="Path 51" d="M1042.83,2451a2.826,2.826,0,1,0,2.826,2.826,2.826,2.826,0,0,0-2.826-2.826Z" transform="translate(-1040 -2451.002)" fill="#fff"/>
          </g>
        </g>
      </g>
    </g>
    <g id="Group_153" data-name="Group 153" transform="translate(128.263 3891.5)">
      <rect id="Rectangle_72" data-name="Rectangle 72" width="88.384" height="19.66" transform="translate(784.02 2361.5)" fill="#44d6eb"/>
      <g id="Rectangle_78" data-name="Rectangle 78" transform="translate(784.02 2386.5)" fill="#fff" stroke="#00cae6" stroke-linecap="round" stroke-linejoin="round" stroke-width="1" stroke-dasharray="3">
        <rect width="24.147" height="19.66" stroke="none"/>
        <rect x="0.5" y="0.5" width="23.147" height="18.66" fill="none"/>
      </g>
      <rect id="Rectangle_79" data-name="Rectangle 79" width="24.147" height="19.66" transform="translate(848.257 2386.5)" fill="#44d6eb"/>
      <line id="Line_90" data-name="Line 90" x2="85.637" transform="translate(785.32 2413.853)" fill="none" stroke="#fff" stroke-linecap="round" stroke-linejoin="round" stroke-width="3"/>
      <path id="Path_146" data-name="Path 146" d="M0,.2H34.43" transform="translate(785.32 2421.125)" fill="none" stroke="#fff" stroke-linecap="round" stroke-width="3"/>
    </g>
    <g id="Group_162" data-name="Group 162" transform="translate(351 -57)">
      <rect id="Rectangle_71" data-name="Rectangle 71" width="40" height="40" rx="2" transform="translate(643 6370)" fill="url(#linear-gradient)"/>
      <g id="Group_148" data-name="Group 148" transform="translate(654.25 6380)">
        <rect id="Rectangle_63" data-name="Rectangle 63" width="3.775" height="18.876" fill="#fff"/>
        <rect id="Rectangle_64" data-name="Rectangle 64" width="3.775" height="11.2" transform="translate(7.55 3.775) rotate(-90)" fill="#fff"/>
        <rect id="Rectangle_64-2" data-name="Rectangle 64" width="3.775" height="11.2" transform="translate(7.55 11.326) rotate(-90)" fill="#fff"/>
        <rect id="Rectangle_64-3" data-name="Rectangle 64" width="3.775" height="11.2" transform="translate(7.55 18.876) rotate(-90)" fill="#fff"/>
      </g>
    </g>
  </g>
</svg>
