<?xml version="1.0" encoding="UTF-8"?> <svg xmlns="http://www.w3.org/2000/svg" width="130" height="124" viewBox="0 0 130 124"><g id="Group_161" data-name="Group 161" transform="translate(-49.5 -3458.5)"><rect id="Rectangle_80" data-name="Rectangle 80" width="130" height="101.739" rx="6" transform="translate(49.5 3458.5)" fill="#7ee9fc"></rect><path id="Path_151" data-name="Path 151" d="M97.065,3493.458H57.5l5.652-16.957H91.413Z" transform="translate(37.217 83.738)" fill="#baf0fc"></path><rect id="Rectangle_81" data-name="Rectangle 81" width="107.391" height="67.826" transform="translate(60.5 3469.5)" fill="#fff"></rect><circle id="Ellipse_24" data-name="Ellipse 24" cx="2.826" cy="2.826" r="2.826" transform="translate(111.674 3546.109)" fill="#fff"></circle><rect id="Rectangle_82" data-name="Rectangle 82" width="80" height="6" rx="2" transform="translate(74.5 3576.5)" fill="#7ee9fc"></rect><g id="icon_36" transform="translate(79.5 3482.5)"><path id="Path_142" data-name="Path 142" d="M6.5,0H63.475A6.522,6.522,0,0,1,70,6.525v21.75A6.522,6.522,0,0,1,63.475,34.8H43.042l2.8,6.868L33.512,34.8H6.525A6.522,6.522,0,0,1,0,28.275V6.525A6.5,6.5,0,0,1,6.5,0Z" transform="translate(0)" fill="#00cae6"></path><path id="Path_143" data-name="Path 143" d="M13.277,16.2a2.289,2.289,0,0,1,1.793-.882,2.078,2.078,0,0,1,2.476,2.049q1.323,8.921,2.874,15.11l6.232-11.866a2.7,2.7,0,0,1,2.134-1.707c1.252-.085,2.02.711,2.333,2.39a53.176,53.176,0,0,0,2.7,9.732q1.11-10.841,3.756-15.65a2.186,2.186,0,0,1,1.878-1.252,2.473,2.473,0,0,1,1.793.569,2.229,2.229,0,0,1,.882,1.622,2.471,2.471,0,0,1-.284,1.366c-1.11,2.049-2.021,5.492-2.76,10.272a53.016,53.016,0,0,0-.8,10.842,3.377,3.377,0,0,1-.341,1.878A1.834,1.834,0,0,1,36.439,41.7a2.861,2.861,0,0,1-2.248-1.053q-3.97-4.055-6.289-12.122-2.775,5.463-4.1,8.195c-1.679,3.216-3.1,4.866-4.3,4.951-.768.057-1.423-.6-1.992-1.963q-2.177-5.592-4.695-21.6a2.422,2.422,0,0,1,.455-1.906Zm61.151,4.467a6.554,6.554,0,0,0-4.553-3.3,7.474,7.474,0,0,0-1.537-.171c-2.732,0-4.951,1.423-6.687,4.268a15.075,15.075,0,0,0-2.219,8.024A11.018,11.018,0,0,0,60.8,35.127a6.553,6.553,0,0,0,4.553,3.3,7.455,7.455,0,0,0,1.537.171c2.76,0,4.98-1.423,6.687-4.268a15.249,15.249,0,0,0,2.219-8.053A10.5,10.5,0,0,0,74.427,20.672Zm-3.585,7.882a7.526,7.526,0,0,1-2.163,4.211,2.735,2.735,0,0,1-2.3.911c-.683-.142-1.252-.74-1.679-1.85a7.215,7.215,0,0,1-.512-2.589,9.9,9.9,0,0,1,.2-2.077,9.2,9.2,0,0,1,1.508-3.386c.939-1.395,1.935-1.963,2.959-1.764.683.142,1.252.74,1.679,1.85a7.221,7.221,0,0,1,.512,2.589,9.987,9.987,0,0,1-.2,2.105ZM56.614,20.672a6.613,6.613,0,0,0-4.553-3.3,7.472,7.472,0,0,0-1.537-.171c-2.732,0-4.951,1.423-6.687,4.268a15.078,15.078,0,0,0-2.219,8.024,11.018,11.018,0,0,0,1.366,5.634,6.553,6.553,0,0,0,4.553,3.3,7.457,7.457,0,0,0,1.537.171c2.76,0,4.98-1.423,6.687-4.268a15.247,15.247,0,0,0,2.219-8.053A10.767,10.767,0,0,0,56.614,20.672ZM53,28.554a7.528,7.528,0,0,1-2.163,4.211,2.736,2.736,0,0,1-2.305.911c-.683-.142-1.252-.74-1.679-1.85a7.226,7.226,0,0,1-.512-2.589,9.9,9.9,0,0,1,.2-2.077,9.2,9.2,0,0,1,1.508-3.386c.939-1.395,1.935-1.963,2.959-1.764.683.142,1.252.74,1.679,1.85a7.215,7.215,0,0,1,.512,2.589,8.4,8.4,0,0,1-.2,2.105Z" transform="translate(-9.29 -10.257)" fill="#fff"></path></g></g></svg> 