<?xml version="1.0" encoding="UTF-8"?> <svg xmlns="http://www.w3.org/2000/svg" xmlns:xlink="http://www.w3.org/1999/xlink" width="136" height="136" viewBox="0 0 136 136"><defs><linearGradient id="linear-gradient" x1="0.6" x2="0.14" y2="0.9" gradientUnits="objectBoundingBox"><stop offset="0" stop-color="#db3157"></stop><stop offset="1" stop-color="#3f3278"></stop></linearGradient></defs><g id="icon_39" transform="translate(-897 -6216)"><g id="Group_156" data-name="Group 156" transform="translate(323 -3)"><g id="Group_146" data-name="Group 146" transform="translate(-267.5 3865.5)"><rect id="Rectangle_65" data-name="Rectangle 65" width="120" height="120" rx="2" transform="translate(841.5 2353.5)" fill="#baf0fc"></rect><path id="Rectangle_69" data-name="Rectangle 69" d="M2,0H118a2,2,0,0,1,2,2V26a0,0,0,0,1,0,0H0a0,0,0,0,1,0,0V2A2,2,0,0,1,2,0Z" transform="translate(841.5 2353.5)" fill="#00cae6"></path><path id="Path_144" data-name="Path 144" d="M120,0" transform="translate(841.5 2379.587)" fill="none" stroke="#000" stroke-linecap="round" stroke-width="1"></path><g id="Group_150" data-name="Group 150" transform="translate(857.5 2363.5)"><g id="Group_40" data-name="Group 40"><path id="Path_49" data-name="Path 49" d="M1038.826,2451a2.826,2.826,0,1,0,2.826,2.826,2.828,2.828,0,0,0-2.826-2.826Z" transform="translate(-1036 -2451.002)" fill="#fff"></path></g><g id="Group_41" data-name="Group 41" transform="translate(11.304)"><path id="Path_50" data-name="Path 50" d="M1040.826,2451a2.826,2.826,0,1,0,2.826,2.826,2.828,2.828,0,0,0-2.826-2.826Z" transform="translate(-1038 -2451.002)" fill="#fff"></path></g><g id="Group_42" data-name="Group 42" transform="translate(22.609)"><path id="Path_51" data-name="Path 51" d="M1042.826,2451a2.826,2.826,0,1,0,2.826,2.826,2.828,2.828,0,0,0-2.826-2.826Z" transform="translate(-1040 -2451.002)" fill="#fff"></path></g></g></g></g><g id="Group_153" data-name="Group 153" transform="translate(163.5 3891.5)"><rect id="Rectangle_72" data-name="Rectangle 72" width="50.667" height="34.176" transform="translate(786.5 2361.5)" fill="#00cae6"></rect><rect id="Rectangle_75" data-name="Rectangle 75" width="50.667" height="5" transform="translate(786.5 2401.147)" fill="#00cae6"></rect><rect id="Rectangle_77" data-name="Rectangle 77" width="50.667" height="5" transform="translate(786.5 2411.147)" fill="#00cae6"></rect><rect id="Rectangle_76" data-name="Rectangle 76" width="26.647" height="5" transform="translate(786.5 2421.147)" fill="#00cae6"></rect><g id="Group_154" data-name="Group 154"><rect id="Rectangle_74" data-name="Rectangle 74" width="30" height="34.286" transform="translate(748.5 2361.5)" fill="#00cae6"></rect><circle id="Ellipse_22" data-name="Ellipse 22" cx="6.429" cy="6.429" r="6.429" transform="translate(757.071 2371.072)" fill="#fff"></circle><path id="Path_145" data-name="Path 145" d="M770.929,2379.359H749.5c0-7.1,4.8-12.857,10.714-12.857S770.929,2372.258,770.929,2379.359Z" transform="translate(3.286 16.427)" fill="#fff"></path></g><line id="Line_90" data-name="Line 90" x2="20.941" transform="translate(750.02 2402.853)" fill="none" stroke="#fff" stroke-linecap="round" stroke-linejoin="round" stroke-width="3"></line><path id="Path_146" data-name="Path 146" d="M0,0H13" transform="translate(750.02 2410.323)" fill="none" stroke="#fff" stroke-linecap="round" stroke-width="3"></path><g id="Group_155" data-name="Group 155" transform="translate(2.232 -1.15)"><path id="Path_147" data-name="Path 147" d="M432.232,1469.852,420.908,1450.5l-8.927,13.929-9.066-6.422-9.247,11.844Z" transform="translate(396.601 922.197)" fill="#baf0fc"></path><ellipse id="Ellipse_23" data-name="Ellipse 23" cx="4.838" cy="4.838" rx="4.838" ry="4.838" transform="translate(791.902 2366.65)" fill="#baf0fc"></ellipse></g></g><g id="Group_149" data-name="Group 149" transform="translate(350 -58)"><rect id="Rectangle_71" data-name="Rectangle 71" width="40" height="40" rx="2" transform="translate(643 6370)" fill="url(#linear-gradient)"></rect><g id="Group_148" data-name="Group 148" transform="translate(654.25 6380)"><rect id="Rectangle_63" data-name="Rectangle 63" width="3.775" height="18.876" transform="translate(0 0)" fill="#fff"></rect><rect id="Rectangle_64" data-name="Rectangle 64" width="3.775" height="11.2" transform="translate(7.55 3.775) rotate(-90)" fill="#fff"></rect><rect id="Rectangle_64-2" data-name="Rectangle 64" width="3.775" height="11.2" transform="translate(7.55 11.326) rotate(-90)" fill="#fff"></rect><rect id="Rectangle_64-3" data-name="Rectangle 64" width="3.775" height="11.2" transform="translate(7.55 18.876) rotate(-90)" fill="#fff"></rect></g></g></g></svg> 