<?xml version="1.0" encoding="UTF-8"?> <svg xmlns="http://www.w3.org/2000/svg" xmlns:xlink="http://www.w3.org/1999/xlink" width="137" height="137" viewBox="0 0 137 137"><defs><linearGradient id="linear-gradient" x1="0.6" x2="0.14" y2="0.9" gradientUnits="objectBoundingBox"><stop offset="0" stop-color="#db3157"></stop><stop offset="1" stop-color="#3f3278"></stop></linearGradient></defs><g id="icon_40" transform="translate(-897 -6216)"><g id="Group_156" data-name="Group 156" transform="translate(323 -3)"><g id="Group_146" data-name="Group 146" transform="translate(-267.5 3865.5)"><rect id="Rectangle_65" data-name="Rectangle 65" width="120" height="120" rx="2" transform="translate(841.5 2353.5)" fill="#baf0fc"></rect><path id="Rectangle_69" data-name="Rectangle 69" d="M2,0H118a2,2,0,0,1,2,2V26a0,0,0,0,1,0,0H0a0,0,0,0,1,0,0V2A2,2,0,0,1,2,0Z" transform="translate(841.5 2353.5)" fill="#00cae6"></path><path id="Path_144" data-name="Path 144" d="M120,0" transform="translate(841.5 2379.587)" fill="none" stroke="#000" stroke-linecap="round" stroke-width="1"></path><g id="Group_150" data-name="Group 150" transform="translate(857.5 2363.5)"><g id="Group_40" data-name="Group 40"><path id="Path_49" data-name="Path 49" d="M1038.826,2451a2.826,2.826,0,1,0,2.826,2.826,2.828,2.828,0,0,0-2.826-2.826Z" transform="translate(-1036 -2451.002)" fill="#fff"></path></g><g id="Group_41" data-name="Group 41" transform="translate(11.304)"><path id="Path_50" data-name="Path 50" d="M1040.826,2451a2.826,2.826,0,1,0,2.826,2.826,2.828,2.828,0,0,0-2.826-2.826Z" transform="translate(-1038 -2451.002)" fill="#fff"></path></g><g id="Group_42" data-name="Group 42" transform="translate(22.609)"><path id="Path_51" data-name="Path 51" d="M1042.826,2451a2.826,2.826,0,1,0,2.826,2.826,2.828,2.828,0,0,0-2.826-2.826Z" transform="translate(-1040 -2451.002)" fill="#fff"></path></g></g></g></g><g id="Group_153" data-name="Group 153" transform="translate(163.5 3891.5)"><rect id="Rectangle_72" data-name="Rectangle 72" width="53.147" height="19.66" transform="translate(784.02 2361.5)" fill="#00cae6"></rect><g id="Rectangle_78" data-name="Rectangle 78" transform="translate(784.02 2386.5)" fill="#fff" stroke="#00cae6" stroke-linecap="round" stroke-linejoin="round" stroke-width="1" stroke-dasharray="3"><rect width="24.147" height="19.66" stroke="none"></rect><rect x="0.5" y="0.5" width="23.147" height="18.66" fill="none"></rect></g><rect id="Rectangle_79" data-name="Rectangle 79" width="24.147" height="19.66" transform="translate(813.02 2386.5)" fill="#00cae6"></rect><rect id="Rectangle_75" data-name="Rectangle 75" width="12" height="9" transform="translate(748.5 2361.5)" fill="#00cae6"></rect><rect id="Rectangle_75-2" data-name="Rectangle 75" width="12" height="9" transform="translate(763.5 2361.5)" fill="#00cae6"></rect><g id="Rectangle_75-3" data-name="Rectangle 75" transform="translate(748.5 2374.5)" fill="#fff" stroke="#00cae6" stroke-linecap="round" stroke-linejoin="round" stroke-width="1" stroke-dasharray="2"><rect width="12" height="9" stroke="none"></rect><rect x="0.5" y="0.5" width="11" height="8" fill="none"></rect></g><rect id="Rectangle_75-4" data-name="Rectangle 75" width="12" height="9" transform="translate(763.5 2374.5)" fill="#00cae6"></rect><rect id="Rectangle_75-5" data-name="Rectangle 75" width="12" height="9" transform="translate(748.5 2387.5)" fill="#00cae6"></rect><rect id="Rectangle_75-6" data-name="Rectangle 75" width="12" height="9" transform="translate(763.5 2387.5)" fill="#00cae6"></rect><rect id="Rectangle_75-7" data-name="Rectangle 75" width="12" height="9" transform="translate(748.5 2400.5)" fill="#00cae6"></rect><rect id="Rectangle_75-8" data-name="Rectangle 75" width="12" height="9" transform="translate(763.5 2400.5)" fill="#00cae6"></rect><line id="Line_90" data-name="Line 90" x2="50.4" transform="translate(785.32 2413.853)" fill="none" stroke="#fff" stroke-linecap="round" stroke-linejoin="round" stroke-width="3"></line><path id="Path_146" data-name="Path 146" d="M0,.2H34.43" transform="translate(785.32 2421.125)" fill="none" stroke="#fff" stroke-linecap="round" stroke-width="3"></path></g><g id="Group_162" data-name="Group 162" transform="translate(351 -57)"><rect id="Rectangle_71" data-name="Rectangle 71" width="40" height="40" rx="2" transform="translate(643 6370)" fill="url(#linear-gradient)"></rect><g id="Group_148" data-name="Group 148" transform="translate(654.25 6380)"><rect id="Rectangle_63" data-name="Rectangle 63" width="3.775" height="18.876" transform="translate(0 0)" fill="#fff"></rect><rect id="Rectangle_64" data-name="Rectangle 64" width="3.775" height="11.2" transform="translate(7.55 3.775) rotate(-90)" fill="#fff"></rect><rect id="Rectangle_64-2" data-name="Rectangle 64" width="3.775" height="11.2" transform="translate(7.55 11.326) rotate(-90)" fill="#fff"></rect><rect id="Rectangle_64-3" data-name="Rectangle 64" width="3.775" height="11.2" transform="translate(7.55 18.876) rotate(-90)" fill="#fff"></rect></g></g></g></svg> 