<?xml version="1.0" encoding="UTF-8"?> <svg xmlns="http://www.w3.org/2000/svg" xmlns:xlink="http://www.w3.org/1999/xlink" width="137" height="136" viewBox="0 0 137 136"><defs><linearGradient id="linear-gradient" x1="0.6" x2="0.14" y2="0.9" gradientUnits="objectBoundingBox"><stop offset="0" stop-color="#db3157"></stop><stop offset="1" stop-color="#3f3278"></stop></linearGradient></defs><g id="icon_37" transform="translate(-574 -6219)"><g id="Group_146" data-name="Group 146" transform="translate(-267.5 3865.5)"><rect id="Rectangle_65" data-name="Rectangle 65" width="120" height="120" rx="2" transform="translate(841.5 2353.5)" fill="#baf0fc"></rect><line id="Line_82" data-name="Line 82" y2="94.5" transform="translate(888.456 2379)" fill="none" stroke="#fff" stroke-linejoin="round" stroke-width="1"></line><path id="Rectangle_69" data-name="Rectangle 69" d="M2,0H118a2,2,0,0,1,2,2V26a0,0,0,0,1,0,0H0a0,0,0,0,1,0,0V2A2,2,0,0,1,2,0Z" transform="translate(841.5 2353.5)" fill="#00cae6"></path><path id="Path_144" data-name="Path 144" d="M120,0" transform="translate(841.5 2379.587)" fill="none" stroke="#000" stroke-linecap="round" stroke-width="1"></path><line id="Line_83" data-name="Line 83" x2="15.571" transform="translate(857.315 2395.239)" fill="none" stroke="#fff" stroke-linecap="round" stroke-linejoin="round" stroke-width="3"></line><line id="Line_84" data-name="Line 84" x2="15.571" transform="translate(857.315 2405.674)" fill="none" stroke="#fff" stroke-linecap="round" stroke-linejoin="round" stroke-width="3"></line><line id="Line_85" data-name="Line 85" x2="15.571" transform="translate(857.315 2416.109)" fill="none" stroke="#fff" stroke-linecap="round" stroke-linejoin="round" stroke-width="3"></line><line id="Line_86" data-name="Line 86" x2="15.571" transform="translate(857.315 2426.543)" fill="none" stroke="#fff" stroke-linecap="round" stroke-linejoin="round" stroke-width="3"></line><line id="Line_87" data-name="Line 87" x2="15.571" transform="translate(857.315 2436.978)" fill="none" stroke="#fff" stroke-linecap="round" stroke-linejoin="round" stroke-width="3"></line><line id="Line_88" data-name="Line 88" x2="15.571" transform="translate(857.315 2447.413)" fill="none" stroke="#fff" stroke-linecap="round" stroke-linejoin="round" stroke-width="3"></line><line id="Line_89" data-name="Line 89" x2="15.571" transform="translate(857.315 2457.847)" fill="none" stroke="#fff" stroke-linecap="round" stroke-linejoin="round" stroke-width="3"></line><g id="Group_147" data-name="Group 147" transform="translate(0 -3)"><rect id="Rectangle_66" data-name="Rectangle 66" width="42" height="26.087" transform="translate(904.109 2414.239)" fill="#00cae6"></rect><rect id="Rectangle_70" data-name="Rectangle 70" width="42" height="5" transform="translate(904.109 2405.239)" fill="#00cae6"></rect><rect id="Rectangle_67" data-name="Rectangle 67" width="16" height="6" transform="translate(904.109 2446.978)" fill="#00cae6"></rect></g><g id="Group_150" data-name="Group 150" transform="translate(857.5 2363.5)"><g id="Group_40" data-name="Group 40"><path id="Path_49" data-name="Path 49" d="M1038.826,2451a2.826,2.826,0,1,0,2.826,2.826,2.828,2.828,0,0,0-2.826-2.826Z" transform="translate(-1036 -2451.002)" fill="#fff"></path></g><g id="Group_41" data-name="Group 41" transform="translate(11.304)"><path id="Path_50" data-name="Path 50" d="M1040.826,2451a2.826,2.826,0,1,0,2.826,2.826,2.828,2.828,0,0,0-2.826-2.826Z" transform="translate(-1038 -2451.002)" fill="#fff"></path></g><g id="Group_42" data-name="Group 42" transform="translate(22.609)"><path id="Path_51" data-name="Path 51" d="M1042.826,2451a2.826,2.826,0,1,0,2.826,2.826,2.828,2.828,0,0,0-2.826-2.826Z" transform="translate(-1040 -2451.002)" fill="#fff"></path></g></g></g><g id="Group_163" data-name="Group 163" transform="translate(28 -55)"><rect id="Rectangle_71" data-name="Rectangle 71" width="40" height="40" rx="2" transform="translate(643 6370)" fill="url(#linear-gradient)"></rect><g id="Group_148" data-name="Group 148" transform="translate(654.25 6380)"><rect id="Rectangle_63" data-name="Rectangle 63" width="3.775" height="18.876" transform="translate(0 0)" fill="#fff"></rect><rect id="Rectangle_64" data-name="Rectangle 64" width="3.775" height="11.2" transform="translate(7.55 3.775) rotate(-90)" fill="#fff"></rect><rect id="Rectangle_64-2" data-name="Rectangle 64" width="3.775" height="11.2" transform="translate(7.55 11.326) rotate(-90)" fill="#fff"></rect><rect id="Rectangle_64-3" data-name="Rectangle 64" width="3.775" height="11.2" transform="translate(7.55 18.876) rotate(-90)" fill="#fff"></rect></g></g></g></svg> 