<?xml version="1.0" encoding="UTF-8"?> <svg xmlns="http://www.w3.org/2000/svg" width="122" height="120.094" viewBox="0 0 122 120.094"><g id="multi_site" data-name="multi site" transform="translate(-19 5)"><g id="iconfinder_calendar-80px_510932" transform="translate(86 -5)"><path id="Path_180" data-name="Path 180" d="M65.674,20.552H59.063V15H53.554v5.552H31.519V15H26.01v5.552H19.488a4.4,4.4,0,0,0-4.407,4.4V65.6A4.4,4.4,0,0,0,19.488,70H65.674a4.4,4.4,0,0,0,4.407-4.4V24.952A4.4,4.4,0,0,0,65.674,20.552ZM64.572,64.5H20.5V37H64.572Zm0-33H20.5V26H64.572Z" transform="translate(-15.081 -15)" fill="#00cae6"></path><rect id="Rectangle_121" data-name="Rectangle 121" width="5" height="4.992" transform="translate(36.27 27.5)" fill="#00cae6"></rect><rect id="Rectangle_122" data-name="Rectangle 122" width="5" height="4.992" transform="translate(25.252 38.5)" fill="#00cae6"></rect><rect id="Rectangle_123" data-name="Rectangle 123" width="5" height="4.992" transform="translate(14.234 38.5)" fill="#00cae6"></rect></g><g id="Group_200" data-name="Group 200" transform="translate(19 48.924)"><rect id="Rectangle_127" data-name="Rectangle 127" width="24.062" height="24.062" transform="translate(20.048)" fill="#00cae6"></rect><rect id="Rectangle_125" data-name="Rectangle 125" width="16.543" height="16.543" transform="translate(24.062 49.627)" fill="#00cae6"></rect><rect id="Rectangle_132" data-name="Rectangle 132" width="16.543" height="16.543" transform="translate(24.062 49.627)" fill="#82e5f6"></rect><rect id="Rectangle_133" data-name="Rectangle 133" width="16.543" height="16.543" transform="translate(48.124 49.627)" fill="#00cae6"></rect><path id="Path_181" data-name="Path 181" d="M0,0H16.543V16.543H0Z" transform="translate(0 49.627)" fill="#82e5f6"></path><rect id="Rectangle_128" data-name="Rectangle 128" width="4.512" height="12.031" transform="translate(30.078 37.596)" fill="#82e5f6"></rect><rect id="Rectangle_137" data-name="Rectangle 137" width="4.512" height="10.527" transform="translate(30.078 27.069)" fill="#00cae6"></rect><rect id="Rectangle_131" data-name="Rectangle 131" width="4.512" height="13.535" transform="translate(30.078 24.061)" fill="#00cae6"></rect><rect id="Rectangle_134" data-name="Rectangle 134" width="4.512" height="18.046" transform="translate(54.14 33.084)" fill="#00cae6"></rect><rect id="Rectangle_135" data-name="Rectangle 135" width="4.512" height="16.543" transform="translate(6.016 33.084)" fill="#82e5f6"></rect><rect id="Rectangle_129" data-name="Rectangle 129" width="4.512" height="24.062" transform="translate(30.078 33.085) rotate(90)" fill="#82e5f6"></rect><rect id="Rectangle_136" data-name="Rectangle 136" width="4.512" height="28.574" transform="translate(58.651 33.085) rotate(90)" fill="#00cae6"></rect></g><rect id="Rectangle_142" data-name="Rectangle 142" width="3.994" height="24" transform="translate(116.021 110.836) rotate(90)" fill="#82e5f6"></rect><rect id="Rectangle_143" data-name="Rectangle 143" width="4" height="53.924" transform="translate(112 56.912)" fill="#82e5f6"></rect></g></svg> 