<svg xmlns="http://www.w3.org/2000/svg" width="120" height="152" viewBox="0 0 120 152"><g id="icon_16" transform="translate(-1203 -3204)"><g id="Group_71" data-name="Group 71" transform="translate(913.5 1585.5)"><path id="Path_64" data-name="Path 64" d="M120,9V70.685a9.863,9.863,0,0,1-9.863,9.863H9.863A9.863,9.863,0,0,1,0,70.685V9Z" transform="translate(289.5 1618.5)" fill="#00cae6"></path><path id="Path_62" data-name="Path 62" d="M9.863,0H110.137A9.863,9.863,0,0,1,120,9.863S60.411,47.055,60.411,47.26.051,9.76,0,9.863A9.892,9.892,0,0,1,9.863,0Z" transform="translate(289.5 1618.5)" fill="#baf0fc"></path><path id="Path_63" data-name="Path 63" d="M312.5,1712.5s11-8,11-13.926c0-6.838-9-9-11-.682-2-8.318-11-6.156-11,.682C301.5,1704.5,312.5,1712.5,312.5,1712.5Z" transform="translate(37 -58.993)" fill="#00cae6"></path></g><g id="Group_79" data-name="Group 79" transform="translate(1)"><g id="Group_75" data-name="Group 75" transform="translate(-40 150)"><path id="Path_67" data-name="Path 67" d="M16.5,0A16.5,16.5,0,1,1,0,16.5,16.5,16.5,0,0,1,16.5,0Z" transform="translate(1306 3144)" fill="#00cae6"></path><g id="Group_72" data-name="Group 72" transform="translate(1315.9 3153.9)"><path id="Path_66" data-name="Path 66" d="M62.7,578.305l-9.469,13.2-3.731-3.73" transform="translate(-49.5 -578.305)" fill="#00cae6" stroke="#fff" stroke-linecap="round" stroke-linejoin="round" stroke-width="2"></path></g></g><g id="Group_74" data-name="Group 74" transform="translate(40 150)"><path id="Path_149" data-name="Path 149" d="M16.5,0A16.5,16.5,0,1,1,0,16.5,16.5,16.5,0,0,1,16.5,0Z" transform="translate(1186 3144)" fill="#7ee9fc"></path><g id="Group_73" data-name="Group 73" transform="translate(1196.371 3154.371)"><line id="Line_45" data-name="Line 45" x2="13.2" y2="13.2" fill="none" stroke="#fff" stroke-linecap="round" stroke-linejoin="round" stroke-width="2"></line><line id="Line_46" data-name="Line 46" x1="13.2" y2="13.2" fill="none" stroke="#fff" stroke-linecap="round" stroke-linejoin="round" stroke-width="2"></line></g></g></g><g id="Group_80" data-name="Group 80" transform="translate(576.137 3076.5)"><path id="Path_2" data-name="Path 2" d="M707.667,265.167V246a2.524,2.524,0,0,1,5.049,0v7.5h3.366a1.676,1.676,0,0,1,1.683,1.667h3.366a1.676,1.676,0,0,1,1.683,1.667h2.524a2.513,2.513,0,0,1,2.524,2.5V264.5a16.547,16.547,0,0,1-.648,4.58L724.5,278.5H709.35c-2.524-3.333-9.117-14.455-9.117-14.455a1.986,1.986,0,0,1,.22-2.568,2.034,2.034,0,0,1,2.742-.105Z" transform="translate(0 0)" fill="#fff" stroke="#00cae6" stroke-linejoin="round" stroke-width="2"></path><line id="Line_1" data-name="Line 1" y2="3.333" transform="translate(717.765 255.167)" fill="none" stroke="#00cae6" stroke-linejoin="round" stroke-width="2"></line><line id="Line_2" data-name="Line 2" y2="5.833" transform="translate(712.716 252.667)" fill="none" stroke="#00cae6" stroke-linejoin="round" stroke-width="2"></line><line id="Line_3" data-name="Line 3" y2="3.333" transform="translate(722.814 256.833)" fill="none" stroke="#00cae6" stroke-linejoin="round" stroke-width="2"></line></g></g></svg>