<svg xmlns="http://www.w3.org/2000/svg" xmlns:xlink="http://www.w3.org/1999/xlink" width="150" height="80" viewBox="0 0 150 80"><defs><clipPath id="clip-path"><rect width="53" height="13.855" fill="none"></rect></clipPath><clipPath id="clip-path-2"><rect id="Rectangle_155" data-name="Rectangle 155" width="36" height="39" transform="translate(1025 6256.451)" fill="#7ee9fc"></rect></clipPath></defs><g id="icon_34" transform="translate(-1187 -6114)"><rect id="Rectangle_156" data-name="Rectangle 156" width="150" height="80" rx="5" transform="translate(1187 6114)" fill="#baf0fc"></rect><path id="Rectangle_57" data-name="Rectangle 57" d="M0,0H60a5,5,0,0,1,5,5V75a5,5,0,0,1-5,5H0a0,0,0,0,1,0,0V0A0,0,0,0,1,0,0Z" transform="translate(1272 6114)" fill="#00cae6"></path><text id="_19" data-name="19" transform="translate(1210 6146)" fill="#fff" font-size="18" font-family="Nunito-Bold, Nunito" font-weight="700"><tspan x="-10.8" y="0">19</tspan></text><rect id="Rectangle_58" data-name="Rectangle 58" width="27" height="2" rx="1" transform="translate(1199 6151)" fill="#fff" opacity="0.6"></rect><g id="Group_141" data-name="Group 141" transform="translate(1199 6127)"><g id="Repeat_Grid_1" data-name="Repeat Grid 1" transform="translate(0 39)" clip-path="url(#clip-path)"><g transform="translate(0 -39)"><rect id="Rectangle_21" data-name="Rectangle 21" width="13.855" height="13.855" rx="3" transform="translate(0 39)" fill="#fff"></rect><g id="Group_60" data-name="Group 60" transform="translate(-30 -16)"><rect id="Rectangle_23" data-name="Rectangle 23" width="35" height="4" rx="2" transform="translate(48 57)" fill="#fff"></rect><rect id="Rectangle_24" data-name="Rectangle 24" width="23" height="2" rx="1" transform="translate(48 64)" fill="#fff" opacity="0.6"></rect></g></g></g></g><g id="Mask_Group_3" data-name="Mask Group 3" transform="translate(262 -121.451)" clip-path="url(#clip-path-2)"><g id="share" transform="translate(1025.152 6256.229)"><path id="Path_206" data-name="Path 206" d="M325.229,21.28a5.28,5.28,0,1,1-5.28-5.28A5.28,5.28,0,0,1,325.229,21.28Zm0,0" transform="translate(-290.703 -14.781)" fill="#7ee9fc"></path><path id="Path_207" data-name="Path 207" d="M305.167,13a6.5,6.5,0,1,1,6.5-6.5A6.505,6.505,0,0,1,305.167,13Zm0-10.561A4.062,4.062,0,1,0,309.229,6.5a4.066,4.066,0,0,0-4.062-4.062Zm0,0" transform="translate(-275.922 0)" fill="#7ee9fc"></path><path id="Path_208" data-name="Path 208" d="M325.229,362.613a5.28,5.28,0,1,1-5.28-5.281A5.28,5.28,0,0,1,325.229,362.613Zm0,0" transform="translate(-290.703 -330.118)" fill="#7ee9fc"></path><path id="Path_209" data-name="Path 209" d="M305.167,354.33a6.5,6.5,0,1,1,6.5-6.5A6.505,6.505,0,0,1,305.167,354.33Zm0-10.561a4.062,4.062,0,1,0,4.062,4.062A4.067,4.067,0,0,0,305.167,343.769Zm0,0" transform="translate(-275.922 -315.336)" fill="#7ee9fc"></path><path id="Path_210" data-name="Path 210" d="M26.561,191.948a5.28,5.28,0,1,1-5.281-5.28A5.28,5.28,0,0,1,26.561,191.948Zm0,0" transform="translate(-14.782 -172.451)" fill="#7ee9fc"></path><path id="Path_211" data-name="Path 211" d="M6.5,183.666a6.5,6.5,0,1,1,6.5-6.5,6.505,6.505,0,0,1-6.5,6.5Zm0-10.561a4.062,4.062,0,1,0,4.062,4.062A4.066,4.066,0,0,0,6.5,173.105Zm0,0" transform="translate(0 -157.67)" fill="#7ee9fc"></path><path id="Path_212" data-name="Path 212" d="M115.975,102.061a1.625,1.625,0,0,1-.806-3.037l15.076-8.595a1.625,1.625,0,1,1,1.609,2.824l-15.076,8.595a1.614,1.614,0,0,1-.8.213Zm0,0" transform="translate(-105.64 -83.344)" fill="#7ee9fc"></path><path id="Path_213" data-name="Path 213" d="M131.07,278.065a1.614,1.614,0,0,1-.8-.213l-15.076-8.595a1.625,1.625,0,0,1,1.609-2.824l15.076,8.595a1.625,1.625,0,0,1-.806,3.037Zm0,0" transform="translate(-105.661 -245.943)" fill="#7ee9fc"></path></g></g></g></svg>