<?xml version="1.0" encoding="UTF-8"?> <svg xmlns="http://www.w3.org/2000/svg" width="145" height="150.945" viewBox="0 0 145 150.945"><g id="icon_26" transform="translate(-1499.249 -4692.184)"><g id="Group_115" data-name="Group 115" transform="translate(657.749 3265.684)"><rect id="Rectangle_44" data-name="Rectangle 44" width="34" height="20.696" transform="translate(841.5 1493.5)" fill="#00cae6"></rect><rect id="Rectangle_45" data-name="Rectangle 45" width="28.087" height="14.783" rx="2" transform="translate(844.456 1496.457)" fill="#7ee9fc"></rect><circle id="Ellipse_16" data-name="Ellipse 16" cx="1.5" cy="1.5" r="1.5" transform="translate(846.413 1498.413)" fill="#fff"></circle><circle id="Ellipse_17" data-name="Ellipse 17" cx="1.5" cy="1.5" r="1.5" transform="translate(867.5 1506.2)" fill="#fff"></circle><circle id="Ellipse_15" data-name="Ellipse 15" cx="4.435" cy="4.435" r="4.435" transform="translate(854.065 1499.413)" fill="#fff"></circle></g><g id="Group_100" data-name="Group 100" transform="translate(1527.253 4739.132)"><path id="Path_107" data-name="Path 107" d="M473.151,2656.382l-27.916,8.468a18.082,18.082,0,0,0-11.734,16.935v11.3h104v-11.3a18.086,18.086,0,0,0-11.738-16.935l-27.916-8.468" transform="translate(-433.501 -2589.091)" fill="#00cae6"></path><path id="Path_106" data-name="Path 106" d="M494.94,2680.923l2.369-16.815s2.261-22.608-29.39-22.608-29.39,22.608-29.39,22.608l2.41,16.708" transform="translate(-415.921 -2641.499)" fill="#00cae6"></path><path id="Path_105" data-name="Path 105" d="M466.571,2701.52c6.782,0,22.608-9.043,22.608-22.607,6.782,0,6.782-13.565,0-13.565l-2.261-11.3c-18.086,0-18.086-6.782-20.347-9.043-2.261,2.261-2.261,9.043-20.347,9.043l-2.261,11.3c-6.782,0-6.782,13.565,0,13.565C443.963,2692.477,459.788,2701.52,466.571,2701.52Z" transform="translate(-414.572 -2629.175)" fill="#baf0fc"></path><path id="Path_108" data-name="Path 108" d="M442,2652.266c0-2.5,2.021-2.261,4.522-2.261s4.522-.239,4.522,2.261" transform="translate(-403.568 -2611.572)" fill="none" stroke="#00cae6" stroke-linecap="round" stroke-linejoin="round" stroke-width="3"></path><path id="Path_109" data-name="Path 109" d="M446,2652.266c0-2.5,2.021-2.261,4.521-2.261s4.522-.239,4.522,2.261" transform="translate(-389.481 -2611.572)" fill="none" stroke="#00cae6" stroke-linecap="round" stroke-linejoin="round" stroke-width="3"></path></g><g id="Group_101" data-name="Group 101" transform="translate(1533.857 4692.184)"><path id="Path_110" data-name="Path 110" d="M339.014,2483.847a16.017,16.017,0,0,0-.439-3.662l4.5-2.6-4.522-7.831-4.874,2.6a18.256,18.256,0,0,0-6.719-3.672v-5.19h-9.043v5.19a15.277,15.277,0,0,0-5.959,3.672l-4.309-2.6-4.431,7.831,4.544,2.6a15.437,15.437,0,0,0,.032,7.325l-4.49,2.6,4.522,7.831,4.124-2.6a15.359,15.359,0,0,0,5.968,3.671v5.187h9.043v-5.187a18.2,18.2,0,0,0,6.719-3.671l4.689,2.6,4.612-7.831-4.449-2.6A16.287,16.287,0,0,0,339.014,2483.847Z" transform="translate(-303.217 -2463.5)" fill="#00cae6"></path><circle id="Ellipse_13" data-name="Ellipse 13" cx="6.782" cy="6.782" r="6.782" transform="translate(13.191 13.565)" fill="#fff"></circle></g><g id="Group_114" data-name="Group 114" transform="translate(1457.749 2401.684)"><circle id="Ellipse_14" data-name="Ellipse 14" cx="14" cy="14" r="14" transform="translate(158.5 2318.5)" fill="#00cae6"></circle><line id="Line_73" data-name="Line 73" y2="14" transform="translate(172.5 2325.5)" fill="none" stroke="#fff" stroke-linecap="round" stroke-linejoin="round" stroke-width="2"></line><line id="Line_74" data-name="Line 74" x1="14" transform="translate(165.5 2332.5)" fill="none" stroke="#fff" stroke-linecap="round" stroke-linejoin="round" stroke-width="2"></line></g></g></svg> 