<svg xmlns="http://www.w3.org/2000/svg" width="130" height="116" viewBox="0 0 130 116">
  <g id="virtual_events" data-name="virtual events" transform="translate(-1139 -2341)">
    <rect id="Rectangle_1609" data-name="Rectangle 1609" width="130" height="92" rx="5" transform="translate(1139 2346)" fill="#d0f5fd"/>
    <rect id="Rectangle_1611" data-name="Rectangle 1611" width="40" height="12" transform="translate(1184 2437)" fill="#d0f5fd"/>
    <rect id="Rectangle_1612" data-name="Rectangle 1612" width="54" height="8" rx="2" transform="translate(1177 2449)" fill="#00cae6" opacity="0.34"/>
    <path id="Rectangle_1610" data-name="Rectangle 1610" d="M0,0H130a0,0,0,0,1,0,0V15a5,5,0,0,1-5,5H5a5,5,0,0,1-5-5V0A0,0,0,0,1,0,0Z" transform="translate(1139 2418)" fill="#00cae6" opacity="0.34"/>
    <circle id="Ellipse_44" data-name="Ellipse 44" cx="6" cy="6" r="6" transform="translate(1197 2341)" fill="#00cae6"/>
    <circle id="Ellipse_38" data-name="Ellipse 38" cx="26" cy="26" r="26" transform="translate(1178 2359)" fill="#89e7f6"/>
    <path id="Subtraction_6" data-name="Subtraction 6" d="M37.5,10.88C16.822,10.88,0,7.939,0,4.324,0,2.851,2.726,1.46,7.883.3a1.325,1.325,0,0,0-.506.948c0,2.825,13.278,5.123,29.6,5.123s29.6-2.3,29.6-5.123c0-.423-.3-.844-.889-1.251C71.691,1.194,75,2.731,75,4.324,75,7.939,58.176,10.88,37.5,10.88Z" transform="translate(1167 2382)" fill="#00cae6"/>
    <g id="Group_2002" data-name="Group 2002" transform="translate(-2 1)">
      <g id="Ellipse_41" data-name="Ellipse 41" transform="translate(1185.638 2374.696)" fill="#fff" stroke="#00cae6" stroke-linejoin="round" stroke-width="1.6">
        <circle cx="3" cy="3" r="3" stroke="none"/>
        <circle cx="3" cy="3" r="2.2" fill="none"/>
      </g>
      <path id="Path_299" data-name="Path 299" d="M2645.676,13778.152l-2.717-4.194h-7.507" transform="translate(-1443.809 -11396.413)" fill="none" stroke="#00cae6" stroke-linecap="round" stroke-linejoin="round" stroke-width="1.6"/>
    </g>
    <g id="Group_2004" data-name="Group 2004" transform="translate(-3 3)">
      <g id="Ellipse_41-2" data-name="Ellipse 41" transform="translate(1217.641 2393.7)" fill="#fff" stroke="#00cae6" stroke-width="1.6">
        <circle cx="3" cy="3" r="3" stroke="none"/>
        <circle cx="3" cy="3" r="2.2" fill="none"/>
      </g>
      <path id="Path_299-2" data-name="Path 299" d="M2633.452,13773.957l1.532,2.454h5.507" transform="translate(-1422.793 -11379.662)" fill="none" stroke="#00cae6" stroke-linecap="round" stroke-width="1.6"/>
    </g>
    <g id="Group_2003" data-name="Group 2003" transform="translate(-11)">
      <path id="Path_299-3" data-name="Path 299" d="M2654.087,13780.609h-7.493l-2.354-4.2h-8.788" transform="translate(-1440.802 -11376.819)" fill="none" stroke="#00cae6" stroke-linecap="round" stroke-linejoin="round" stroke-width="1.6"/>
      <path id="Path_303" data-name="Path 303" d="M847.806,2285h-1.055" transform="translate(369.419 118.79)" fill="none" stroke="#00cae6" stroke-linecap="round" stroke-width="1.6"/>
    </g>
    <g id="Group_2001" data-name="Group 2001" transform="translate(-4)">
      <g id="Ellipse_41-3" data-name="Ellipse 41" transform="translate(1217.717 2371.236)" fill="#fff" stroke="#00cae6" stroke-linejoin="round" stroke-width="1.6">
        <circle cx="3" cy="3" r="3" stroke="none"/>
        <circle cx="3" cy="3" r="2.2" fill="none"/>
      </g>
      <path id="Path_299-4" data-name="Path 299" d="M2637.314,13774.559h5.861l3.82,5.284h5.1" transform="translate(-1434.321 -11405.559)" fill="none" stroke="#00cae6" stroke-linecap="round" stroke-linejoin="round" stroke-width="1.6"/>
      <path id="Path_303-2" data-name="Path 303" d="M846.751,2285h2" transform="translate(351.328 84)" fill="none" stroke="#00cae6" stroke-linecap="round" stroke-width="1.6"/>
    </g>
    <circle id="Ellipse_45" data-name="Ellipse 45" cx="2" cy="2" r="2" transform="translate(1201 2345)" fill="#d0f5fd"/>
  </g>
</svg>
