<svg xmlns="http://www.w3.org/2000/svg" xmlns:xlink="http://www.w3.org/1999/xlink" width="118" height="118.002" viewBox="0 0 118 118.002"><defs><clipPath id="clip-path"><rect width="56" height="49" fill="none"></rect></clipPath></defs><g id="waiting_list-icon" data-name="waiting list-icon" transform="translate(-975 -11275)"><g id="Group_2008" data-name="Group 2008" transform="translate(990 11290)"><path id="Subtraction_7" data-name="Subtraction 7" d="M86,103H0V20.994C.157,21,.324,21,.5,21A20.523,20.523,0,0,0,21,.5c0-.164,0-.333-.006-.5H86V103Z" transform="translate(0 0)" fill="#89e7f6"></path></g><path id="Path_310" data-name="Path 310" d="M0,0H11V49.254L5.363,60,0,49.254Z" transform="translate(1082 11333)" fill="#00cae6"></path><g id="Group_2009" data-name="Group 2009" transform="translate(975 11275)"><circle id="Ellipse_48" data-name="Ellipse 48" cx="13.232" cy="13.232" r="13.232" transform="translate(2.268 2.268)" fill="#00cae6"></circle><circle id="Ellipse_46" data-name="Ellipse 46" cx="15.5" cy="15.5" r="15.5" fill="#00cae6"></circle></g><g id="Repeat_Grid_14" data-name="Repeat Grid 14" transform="translate(1005 11319)" clip-path="url(#clip-path)"><g transform="translate(-1005 -11320)"><g id="Component_1_2" data-name="Component 1 &#x2013; 2" transform="translate(1005 11320)"><g id="Rectangle_1615" data-name="Rectangle 1615" fill="none" stroke="#fff" stroke-width="3"><rect width="13" height="13" stroke="none"></rect><rect x="1.5" y="1.5" width="10" height="10" fill="none"></rect></g><rect id="Rectangle_1616" data-name="Rectangle 1616" width="37" height="5" transform="translate(19 4)" fill="#fff"></rect></g></g><g transform="translate(-1005 -11302)"><g id="Component_1_3" data-name="Component 1 &#x2013; 3" transform="translate(1005 11320)"><g id="Rectangle_1615-2" data-name="Rectangle 1615" fill="none" stroke="#fff" stroke-width="3"><rect width="13" height="13" stroke="none"></rect><rect x="1.5" y="1.5" width="10" height="10" fill="none"></rect></g><rect id="Rectangle_1616-2" data-name="Rectangle 1616" width="37" height="5" transform="translate(19 4)" fill="#fff"></rect></g></g><g transform="translate(-1005 -11284)"><g id="Component_1_4" data-name="Component 1 &#x2013; 4" transform="translate(1005 11320)"><g id="Rectangle_1615-3" data-name="Rectangle 1615" fill="none" stroke="#fff" stroke-width="3"><rect width="13" height="13" stroke="none"></rect><rect x="1.5" y="1.5" width="10" height="10" fill="none"></rect></g><rect id="Rectangle_1616-3" data-name="Rectangle 1616" width="37" height="5" transform="translate(19 4)" fill="#fff"></rect></g></g></g><path id="Path_309" data-name="Path 309" d="M2786.949,11440.457l4.719,4.293,10.281-11.317" transform="translate(-1803.996 -148.733)" fill="none" stroke="#fff" stroke-width="4"></path></g></svg>