<svg xmlns="http://www.w3.org/2000/svg" xmlns:xlink="http://www.w3.org/1999/xlink" width="130" height="122" viewBox="0 0 130 122">
  <defs>
    <clipPath id="clip-path">
      <rect id="Rectangle_162" data-name="Rectangle 162" width="72" height="52" transform="translate(1013 1508)" fill="#fff"/>
    </clipPath>
    <linearGradient id="linear-gradient" x1="0.048" y1="0.893" x2="0.883" y2="1.331" gradientUnits="objectBoundingBox">
      <stop offset="0.13" stop-color="#1cbbf3"/>
      <stop offset="0.34" stop-color="#1f99a5"/>
      <stop offset="0.45" stop-color="#209ca6"/>
      <stop offset="0.51" stop-color="#24a4aa"/>
      <stop offset="0.57" stop-color="#2bb3b0"/>
      <stop offset="0.6" stop-color="#30bdb4"/>
      <stop offset="0.79" stop-color="#38ba90"/>
      <stop offset="1" stop-color="#60f05a"/>
    </linearGradient>
    <radialGradient id="radial-gradient" cx="0.604" cy="0.415" r="0.518" gradientTransform="matrix(0.208, 0.963, 0.564, -0.205, -4.862, 9.393)" gradientUnits="objectBoundingBox">
      <stop offset="0" stop-color="#227b60"/>
      <stop offset="0.14" stop-color="#227b60" stop-opacity="0.812"/>
      <stop offset="0.58" stop-color="#227b60" stop-opacity="0.231"/>
      <stop offset="0.78" stop-color="#227b60" stop-opacity="0"/>
    </radialGradient>
    <radialGradient id="radial-gradient-2" cx="0.664" cy="0.378" r="0.35" gradientTransform="matrix(-0.015, 1, 0.585, 0.015, -5.329, 8.034)" gradientUnits="objectBoundingBox">
      <stop offset="0" stop-color="#227b60"/>
      <stop offset="0.25" stop-color="#227b60" stop-opacity="0.702"/>
      <stop offset="0.71" stop-color="#227b60" stop-opacity="0.2"/>
      <stop offset="0.92" stop-color="#227b60" stop-opacity="0"/>
    </radialGradient>
    <radialGradient id="radial-gradient-3" cx="0.651" cy="0.393" r="0.326" gradientTransform="matrix(0.019, 1, 0.547, -0.017, -5.004, 8.24)" gradientUnits="objectBoundingBox">
      <stop offset="0" stop-color="#227b60"/>
      <stop offset="0.07" stop-color="#227b60" stop-opacity="0.902"/>
      <stop offset="0.34" stop-color="#227b60" stop-opacity="0.51"/>
      <stop offset="0.59" stop-color="#227b60" stop-opacity="0.231"/>
      <stop offset="0.79" stop-color="#227b60" stop-opacity="0.059"/>
      <stop offset="0.92" stop-color="#227b60" stop-opacity="0"/>
    </radialGradient>
    <radialGradient id="radial-gradient-4" cx="0.655" cy="0.378" r="0.264" gradientTransform="matrix(0.019, 1, 0.547, -0.017, -4.969, 8.221)" gradientUnits="objectBoundingBox">
      <stop offset="0" stop-color="#227b60"/>
      <stop offset="0.36" stop-color="#227b60" stop-opacity="0.631"/>
      <stop offset="0.92" stop-color="#227b60" stop-opacity="0"/>
    </radialGradient>
    <radialGradient id="radial-gradient-5" cx="0.664" cy="0.393" r="0.21" gradientTransform="matrix(0.019, 1, 0.493, -0.016, -4.563, 8.213)" gradientUnits="objectBoundingBox">
      <stop offset="0" stop-color="#20735a"/>
      <stop offset="0.15" stop-color="#20745a" stop-opacity="0.929"/>
      <stop offset="0.38" stop-color="#21755c" stop-opacity="0.741"/>
      <stop offset="0.67" stop-color="#21785d" stop-opacity="0.431"/>
      <stop offset="1" stop-color="#227b60" stop-opacity="0"/>
    </radialGradient>
    <radialGradient id="radial-gradient-6" cx="0.686" cy="0.427" r="0.338" gradientTransform="matrix(0.705, 0.404, 0.233, -0.686, -1.886, 11.282)" gradientUnits="objectBoundingBox">
      <stop offset="0" stop-color="#227a61"/>
      <stop offset="0.36" stop-color="#227a61" stop-opacity="0.561"/>
      <stop offset="0.72" stop-color="#227a61" stop-opacity="0.161"/>
      <stop offset="0.9" stop-color="#227a61" stop-opacity="0"/>
    </radialGradient>
    <radialGradient id="radial-gradient-7" cx="0.596" cy="-0.123" r="0.451" gradientTransform="matrix(0.629, 0.577, 0.407, -0.746, -3.165, 12.187)" gradientUnits="objectBoundingBox">
      <stop offset="0" stop-color="#3cd9c3"/>
      <stop offset="0.07" stop-color="#3bd7c1" stop-opacity="0.902"/>
      <stop offset="0.41" stop-color="#38ceb9" stop-opacity="0.42"/>
      <stop offset="0.65" stop-color="#36c8b4" stop-opacity="0.122"/>
      <stop offset="0.76" stop-color="#35c6b2" stop-opacity="0"/>
    </radialGradient>
    <radialGradient id="radial-gradient-8" cx="-569.704" cy="-1005.095" r="80.133" gradientTransform="matrix(0.629, 0.577, 0.312, -0.573, -2.65, 11.369)" xlink:href="#radial-gradient-7"/>
    <radialGradient id="radial-gradient-9" cx="0.736" cy="0.513" r="0.398" gradientTransform="matrix(-0.147, 0.982, 0.934, 0.235, -7.898, 6.523)" gradientUnits="objectBoundingBox">
      <stop offset="0" stop-color="#237f66" stop-opacity="0.8"/>
      <stop offset="0.06" stop-color="#2c8c70" stop-opacity="0.651"/>
      <stop offset="0.21" stop-color="#3da785" stop-opacity="0.369"/>
      <stop offset="0.35" stop-color="#4aba93" stop-opacity="0.169"/>
      <stop offset="0.47" stop-color="#51c59c" stop-opacity="0.039"/>
      <stop offset="0.56" stop-color="#54c99f" stop-opacity="0"/>
    </radialGradient>
    <radialGradient id="radial-gradient-10" cx="0.566" cy="0.533" r="0.52" gradientTransform="matrix(0.487, -0.775, -0.645, -0.682, 3.36, 9.678)" gradientUnits="objectBoundingBox">
      <stop offset="0" stop-color="#167c8a"/>
      <stop offset="0.04" stop-color="#167c8a" stop-opacity="0.929"/>
      <stop offset="0.33" stop-color="#177f8d" stop-opacity="0.431"/>
      <stop offset="0.54" stop-color="#17818f" stop-opacity="0.122"/>
      <stop offset="0.65" stop-color="#178290" stop-opacity="0"/>
    </radialGradient>
    <radialGradient id="radial-gradient-11" cx="0.541" cy="0.584" r="0.507" gradientTransform="matrix(0.656, -0.525, -0.319, -0.672, 1.504, 9.88)" gradientUnits="objectBoundingBox">
      <stop offset="0.05" stop-color="#177d87"/>
      <stop offset="0.11" stop-color="#177e89" stop-opacity="0.8"/>
      <stop offset="0.21" stop-color="#177f8b" stop-opacity="0.522"/>
      <stop offset="0.32" stop-color="#17818d" stop-opacity="0.29"/>
      <stop offset="0.42" stop-color="#17818f" stop-opacity="0.129"/>
      <stop offset="0.51" stop-color="#178290" stop-opacity="0.031"/>
      <stop offset="0.6" stop-color="#178290" stop-opacity="0"/>
    </radialGradient>
    <radialGradient id="radial-gradient-12" cx="0.46" cy="0.578" r="0.302" gradientTransform="matrix(-0.501, -0.76, -0.461, 0.512, 0.443, 1.961)" gradientUnits="objectBoundingBox">
      <stop offset="0.26" stop-color="#177f8a"/>
      <stop offset="0.27" stop-color="#177f8a" stop-opacity="0.98"/>
      <stop offset="0.38" stop-color="#17808c" stop-opacity="0.678"/>
      <stop offset="0.5" stop-color="#17818d" stop-opacity="0.431"/>
      <stop offset="0.62" stop-color="#17818f" stop-opacity="0.239"/>
      <stop offset="0.74" stop-color="#17828f" stop-opacity="0.11"/>
      <stop offset="0.86" stop-color="#178290" stop-opacity="0.031"/>
      <stop offset="1" stop-color="#178290" stop-opacity="0"/>
    </radialGradient>
    <radialGradient id="radial-gradient-13" cx="0.403" cy="0.667" r="0.283" gradientTransform="matrix(-0.765, -0.12, -0.092, 0.993, -2.312, -0.151)" gradientUnits="objectBoundingBox">
      <stop offset="0" stop-color="#13656e"/>
      <stop offset="0.11" stop-color="#13646e" stop-opacity="0.729"/>
      <stop offset="0.27" stop-color="#12646e" stop-opacity="0.412"/>
      <stop offset="0.42" stop-color="#12636e" stop-opacity="0.18"/>
      <stop offset="0.55" stop-color="#12636e" stop-opacity="0.051"/>
      <stop offset="0.66" stop-color="#12636e" stop-opacity="0"/>
    </radialGradient>
    <radialGradient id="radial-gradient-14" cx="0.397" cy="0.71" r="0.198" gradientTransform="matrix(-0.377, -0.872, -0.564, 0.411, 1.12, 2.273)" gradientUnits="objectBoundingBox">
      <stop offset="0.13" stop-color="#146a73"/>
      <stop offset="0.24" stop-color="#156f79" stop-opacity="0.788"/>
      <stop offset="0.45" stop-color="#167783" stop-opacity="0.451"/>
      <stop offset="0.65" stop-color="#167d8a" stop-opacity="0.2"/>
      <stop offset="0.82" stop-color="#17818e" stop-opacity="0.051"/>
      <stop offset="0.95" stop-color="#178290" stop-opacity="0"/>
    </radialGradient>
    <radialGradient id="radial-gradient-15" cx="0.363" cy="0.62" r="0.186" gradientTransform="matrix(0.431, -0.829, -0.506, -0.443, 2.047, 7.263)" gradientUnits="objectBoundingBox">
      <stop offset="0" stop-color="#198e9c"/>
      <stop offset="0.1" stop-color="#198e9c" stop-opacity="0.871"/>
      <stop offset="0.41" stop-color="#198e9c" stop-opacity="0.502"/>
      <stop offset="0.67" stop-color="#198e9c" stop-opacity="0.231"/>
      <stop offset="0.88" stop-color="#198e9c" stop-opacity="0.059"/>
      <stop offset="1" stop-color="#198e9c" stop-opacity="0"/>
    </radialGradient>
    <linearGradient id="linear-gradient-2" x1="0.102" y1="1.589" x2="0.47" y2="1.147" gradientUnits="objectBoundingBox">
      <stop offset="0.13" stop-color="#2bf9ff"/>
      <stop offset="0.27" stop-color="#29f9ff" stop-opacity="0.639"/>
      <stop offset="0.4" stop-color="#27faff" stop-opacity="0.302"/>
      <stop offset="0.49" stop-color="#26faff" stop-opacity="0.078"/>
      <stop offset="0.54" stop-color="#26faff" stop-opacity="0"/>
    </linearGradient>
    <linearGradient id="linear-gradient-3" x1="-0.107" y1="0.867" x2="0.324" y2="1.026" gradientUnits="objectBoundingBox">
      <stop offset="0" stop-color="#26faff"/>
      <stop offset="0.06" stop-color="#26faff" stop-opacity="0.878"/>
      <stop offset="0.24" stop-color="#26faff" stop-opacity="0.51"/>
      <stop offset="0.39" stop-color="#26faff" stop-opacity="0.231"/>
      <stop offset="0.5" stop-color="#26faff" stop-opacity="0.059"/>
      <stop offset="0.55" stop-color="#26faff" stop-opacity="0"/>
    </linearGradient>
    <linearGradient id="linear-gradient-4" x1="0.007" y1="0.887" x2="0.492" y2="1.111" gradientUnits="objectBoundingBox">
      <stop offset="0" stop-color="#21deff"/>
      <stop offset="0.04" stop-color="#21deff" stop-opacity="0.878"/>
      <stop offset="0.17" stop-color="#21deff" stop-opacity="0.51"/>
      <stop offset="0.27" stop-color="#21deff" stop-opacity="0.231"/>
      <stop offset="0.34" stop-color="#21deff" stop-opacity="0.059"/>
      <stop offset="0.38" stop-color="#21deff" stop-opacity="0"/>
    </linearGradient>
    <linearGradient id="linear-gradient-5" x1="0.468" y1="1.211" x2="0.739" y2="0.637" gradientUnits="objectBoundingBox">
      <stop offset="0.62" stop-color="#21deff" stop-opacity="0"/>
      <stop offset="0.66" stop-color="#21deff" stop-opacity="0.059"/>
      <stop offset="0.73" stop-color="#21deff" stop-opacity="0.231"/>
      <stop offset="0.83" stop-color="#21deff" stop-opacity="0.51"/>
      <stop offset="0.96" stop-color="#21deff" stop-opacity="0.878"/>
      <stop offset="1" stop-color="#21deff"/>
    </linearGradient>
    <linearGradient id="linear-gradient-6" x1="0.568" y1="1.429" x2="0.488" y2="1.816" gradientUnits="objectBoundingBox">
      <stop offset="0" stop-color="#44b044"/>
      <stop offset="0.11" stop-color="#44b044" stop-opacity="0.8"/>
      <stop offset="0.27" stop-color="#44b044" stop-opacity="0.522"/>
      <stop offset="0.43" stop-color="#44b044" stop-opacity="0.29"/>
      <stop offset="0.58" stop-color="#44b044" stop-opacity="0.129"/>
      <stop offset="0.7" stop-color="#44b044" stop-opacity="0.031"/>
      <stop offset="0.8" stop-color="#44b044" stop-opacity="0"/>
    </linearGradient>
    <linearGradient id="linear-gradient-7" x1="0.044" y1="1.282" x2="1" y2="0.895" gradientUnits="objectBoundingBox">
      <stop offset="0" stop-color="#3066fb"/>
      <stop offset="0.38" stop-color="#2f64f7"/>
      <stop offset="0.74" stop-color="#2857d9"/>
      <stop offset="1" stop-color="#3c7eff"/>
    </linearGradient>
    <radialGradient id="radial-gradient-16" cx="0.719" cy="0.468" r="0.625" gradientTransform="matrix(-0.124, 0.989, 0.534, 0.1, -5.504, 7.778)" gradientUnits="objectBoundingBox">
      <stop offset="0" stop-color="#1a3d9c"/>
      <stop offset="0.4" stop-color="#1a3d9c" stop-opacity="0.42"/>
      <stop offset="0.7" stop-color="#1a3d9c" stop-opacity="0"/>
    </radialGradient>
    <radialGradient id="radial-gradient-17" cx="311.147" cy="-981.614" r="76.899" gradientTransform="matrix(-0.124, 0.989, 0.436, 0.081, -4.918, 7.904)" xlink:href="#radial-gradient-16"/>
    <radialGradient id="radial-gradient-18" cx="273.177" cy="-996.858" r="91.583" gradientTransform="matrix(-0.123, 0.989, 0.334, 0.062, -4.234, 8.035)" xlink:href="#radial-gradient-16"/>
    <radialGradient id="radial-gradient-19" cx="0.655" cy="0.444" r="0.546" gradientTransform="matrix(0.098, 0.993, 0.567, -0.084, -5.294, 8.938)" gradientUnits="objectBoundingBox">
      <stop offset="0" stop-color="#1a3d9c"/>
      <stop offset="0.16" stop-color="#1a3d9c" stop-opacity="0.69"/>
      <stop offset="0.33" stop-color="#1a3d9c" stop-opacity="0.4"/>
      <stop offset="0.49" stop-color="#1a3d9c" stop-opacity="0.18"/>
      <stop offset="0.61" stop-color="#1a3d9c" stop-opacity="0.051"/>
      <stop offset="0.7" stop-color="#1a3d9c" stop-opacity="0"/>
    </radialGradient>
    <radialGradient id="radial-gradient-20" cx="0.736" cy="0.528" r="0.525" gradientTransform="matrix(0.217, 0.964, 0.537, -0.18, -4.868, 9.484)" gradientUnits="objectBoundingBox">
      <stop offset="0" stop-color="#18388f"/>
      <stop offset="0.37" stop-color="#193b96" stop-opacity="0.451"/>
      <stop offset="0.7" stop-color="#1a3d9c" stop-opacity="0"/>
    </radialGradient>
    <radialGradient id="radial-gradient-21" cx="0.693" cy="0.668" r="0.244" gradientTransform="matrix(0.217, 0.964, 0.75, -0.252, -6.161, 9.799)" gradientUnits="objectBoundingBox">
      <stop offset="0" stop-color="#18388f"/>
      <stop offset="0.09" stop-color="#183992" stop-opacity="0.78"/>
      <stop offset="0.22" stop-color="#193b96" stop-opacity="0.502"/>
      <stop offset="0.35" stop-color="#193c98" stop-opacity="0.278"/>
      <stop offset="0.47" stop-color="#1a3c9a" stop-opacity="0.129"/>
      <stop offset="0.59" stop-color="#1a3d9c" stop-opacity="0.031"/>
      <stop offset="0.7" stop-color="#1a3d9c" stop-opacity="0"/>
    </radialGradient>
    <radialGradient id="radial-gradient-22" cx="0.698" cy="0.71" r="0.244" gradientTransform="matrix(0.217, 0.964, 0.75, -0.252, -6.161, 9.799)" gradientUnits="objectBoundingBox">
      <stop offset="0" stop-color="#1a3d9c" stop-opacity="0.8"/>
      <stop offset="0.01" stop-color="#1a3d9c" stop-opacity="0.78"/>
      <stop offset="0.24" stop-color="#1a3d9c" stop-opacity="0.451"/>
      <stop offset="0.44" stop-color="#1a3d9c" stop-opacity="0.2"/>
      <stop offset="0.6" stop-color="#1a3d9c" stop-opacity="0.051"/>
      <stop offset="0.7" stop-color="#1a3d9c" stop-opacity="0"/>
    </radialGradient>
    <radialGradient id="radial-gradient-23" cx="0.203" cy="0.56" r="0.583" gradientTransform="matrix(0.319, 0.921, 0.5, -0.259, -4.448, 9.909)" gradientUnits="objectBoundingBox">
      <stop offset="0" stop-color="#1a3d9c"/>
      <stop offset="0.4" stop-color="#1a3d9c" stop-opacity="0.561"/>
      <stop offset="0.48" stop-color="#1a3d9c" stop-opacity="0.431"/>
      <stop offset="0.69" stop-color="#1a3d9c" stop-opacity="0.122"/>
      <stop offset="0.79" stop-color="#1a3d9c" stop-opacity="0"/>
    </radialGradient>
    <radialGradient id="radial-gradient-24" cx="0.173" cy="0.428" r="0.432" gradientTransform="matrix(0.197, 0.971, 0.524, -0.159, -4.8, 9.336)" gradientUnits="objectBoundingBox">
      <stop offset="0" stop-color="#1a3d9c"/>
      <stop offset="0.06" stop-color="#1a3d9c" stop-opacity="0.878"/>
      <stop offset="0.21" stop-color="#1a3d9c" stop-opacity="0.612"/>
      <stop offset="0.36" stop-color="#1a3d9c" stop-opacity="0.388"/>
      <stop offset="0.51" stop-color="#1a3d9c" stop-opacity="0.22"/>
      <stop offset="0.67" stop-color="#1a3d9c" stop-opacity="0.102"/>
      <stop offset="0.83" stop-color="#1a3d9c" stop-opacity="0.02"/>
      <stop offset="1" stop-color="#1a3d9c" stop-opacity="0"/>
    </radialGradient>
    <radialGradient id="radial-gradient-25" cx="0.173" cy="0.428" r="0.432" gradientTransform="matrix(0.197, 0.971, 0.524, -0.159, -4.8, 9.336)" gradientUnits="objectBoundingBox">
      <stop offset="0" stop-color="#1b3e9e"/>
      <stop offset="0.06" stop-color="#1b3e9e" stop-opacity="0.871"/>
      <stop offset="0.21" stop-color="#1b3e9d" stop-opacity="0.612"/>
      <stop offset="0.36" stop-color="#1a3d9d" stop-opacity="0.388"/>
      <stop offset="0.52" stop-color="#1a3d9c" stop-opacity="0.22"/>
      <stop offset="0.67" stop-color="#1a3d9c" stop-opacity="0.102"/>
      <stop offset="0.83" stop-color="#1a3d9c" stop-opacity="0.02"/>
      <stop offset="1" stop-color="#1a3d9c" stop-opacity="0"/>
    </radialGradient>
    <radialGradient id="radial-gradient-26" cx="0.186" cy="0.386" r="0.331" gradientTransform="matrix(0.197, 0.971, 0.524, -0.159, -4.758, 9.293)" gradientUnits="objectBoundingBox">
      <stop offset="0" stop-color="#183991"/>
      <stop offset="0.03" stop-color="#183992" stop-opacity="0.949"/>
      <stop offset="0.18" stop-color="#193a95" stop-opacity="0.659"/>
      <stop offset="0.34" stop-color="#193b97" stop-opacity="0.42"/>
      <stop offset="0.5" stop-color="#1a3c99" stop-opacity="0.239"/>
      <stop offset="0.66" stop-color="#1a3d9b" stop-opacity="0.102"/>
      <stop offset="0.82" stop-color="#1a3d9c" stop-opacity="0.031"/>
      <stop offset="1" stop-color="#1a3d9c" stop-opacity="0"/>
    </radialGradient>
    <radialGradient id="radial-gradient-27" cx="0.234" cy="0.42" r="0.261" gradientTransform="matrix(0.041, 0.999, 0.719, -0.044, -6.318, 8.594)" gradientUnits="objectBoundingBox">
      <stop offset="0.04" stop-color="#2453d6" stop-opacity="0.6"/>
      <stop offset="0.2" stop-color="#2453d6" stop-opacity="0.49"/>
      <stop offset="0.52" stop-color="#2453d6" stop-opacity="0.2"/>
      <stop offset="0.73" stop-color="#2453d6" stop-opacity="0"/>
    </radialGradient>
    <linearGradient id="linear-gradient-8" x1="0.665" y1="1.759" x2="0.423" y2="1.029" gradientUnits="objectBoundingBox">
      <stop offset="0" stop-color="#3774ff"/>
      <stop offset="0.05" stop-color="#3774ff" stop-opacity="0.91"/>
      <stop offset="0.16" stop-color="#3774ff" stop-opacity="0.659"/>
      <stop offset="0.32" stop-color="#3774ff" stop-opacity="0.278"/>
      <stop offset="0.43" stop-color="#3774ff" stop-opacity="0"/>
    </linearGradient>
  </defs>
  <g id="webex-integration-addon" transform="translate(-216 -1307)">
    <g id="integration-addon-bg" transform="translate(-693 -8721)">
      <path id="Path_205" data-name="Path 205" d="M6.373,0H123.627C127.147,0,130,3.793,130,8.472V113.528c0,4.679-2.853,8.472-6.373,8.472H6.373C2.853,122,0,118.207,0,113.528V8.472C0,3.793,2.853,0,6.373,0Z" transform="translate(909 10028)" fill="#baf0fc"/>
    </g>
    <circle id="Ellipse_30" data-name="Ellipse 30" cx="55" cy="55" r="55" transform="translate(226 1313)" fill="#fff"/>
    <g id="webex" transform="translate(-768 -166)" clip-path="url(#clip-path)">
      <g id="webex-2" transform="translate(1014 1509.027)">
        <path id="Path_229" data-name="Path 229" d="M16.1,25.5a38.484,38.484,0,0,0,3.2,7.9,7.252,7.252,0,0,0,2.3,2.9l.6.3c1.6.3,2.5-1,3.1-2.1a57.149,57.149,0,0,0,2.1-5.8c.1-.4.2-.7.3-1.1a15.985,15.985,0,0,0,.5-2.1l7.1-19a15.85,15.85,0,0,1,5.6-4.7,14.036,14.036,0,0,1,7-1.8,15.973,15.973,0,0,1,9.8,3.4c4.7,3.5,7.4,10.5,7.4,10.5a7.173,7.173,0,0,1,.6,2.9,8.574,8.574,0,0,1-.5,2.7,11.355,11.355,0,0,1-1.5,2.3,6.128,6.128,0,0,1-2.3,1.5,8.082,8.082,0,0,1-2.7.5,5.918,5.918,0,0,1-2.9-.7,8.4,8.4,0,0,1-2.4-1.8.1.1,0,0,0-.1-.1,12.81,12.81,0,0,1-1.1-2,19.649,19.649,0,0,0-1.3-2.5c-.3-.4-.5-.8-.8-1.2a2.836,2.836,0,0,0-.9-1,2.007,2.007,0,0,0-2.2-.3l-.1.1a5.583,5.583,0,0,0-1.7,2.5,45.7,45.7,0,0,0-2.4,7.4l-.3,1.5-3,9.6-4.1,9.1a15.3,15.3,0,0,1-5.6,4.5,17.166,17.166,0,0,1-7,1.7C12.7,50.8,8,41.7,8,41.7,2.3,32.3.6,19.9.2,15.9A7.209,7.209,0,0,1,0,14.5,6.2,6.2,0,0,1,1,11,6.506,6.506,0,0,1,3.6,8.4a7.975,7.975,0,0,1,3.7-.8,7.045,7.045,0,0,1,3.4,1,6.969,6.969,0,0,1,2,1.8A9.1,9.1,0,0,1,14,15,61.017,61.017,0,0,0,16.1,25.5Z" fill="url(#linear-gradient)"/>
        <path id="Path_230" data-name="Path 230" d="M16.1,25.5a38.484,38.484,0,0,0,3.2,7.9,7.252,7.252,0,0,0,2.3,2.9l.6.3c1.6.3,2.5-1,3.1-2.1a57.149,57.149,0,0,0,2.1-5.8c.1-.4.2-.7.3-1.1a15.985,15.985,0,0,0,.5-2.1l7.1-19a15.85,15.85,0,0,1,5.6-4.7,14.036,14.036,0,0,1,7-1.8,15.973,15.973,0,0,1,9.8,3.4c4.7,3.5,7.4,10.5,7.4,10.5a7.173,7.173,0,0,1,.6,2.9,8.574,8.574,0,0,1-.5,2.7,11.355,11.355,0,0,1-1.5,2.3,6.128,6.128,0,0,1-2.3,1.5,8.082,8.082,0,0,1-2.7.5,5.918,5.918,0,0,1-2.9-.7,8.4,8.4,0,0,1-2.4-1.8.1.1,0,0,0-.1-.1,12.81,12.81,0,0,1-1.1-2,19.649,19.649,0,0,0-1.3-2.5c-.3-.4-.5-.8-.8-1.2a2.836,2.836,0,0,0-.9-1,2.007,2.007,0,0,0-2.2-.3l-.1.1a5.583,5.583,0,0,0-1.7,2.5,45.7,45.7,0,0,0-2.4,7.4l-.3,1.5-3,9.6-4.1,9.1a15.3,15.3,0,0,1-5.6,4.5,17.166,17.166,0,0,1-7,1.7C12.7,50.8,8,41.7,8,41.7,2.3,32.3.6,19.9.2,15.9A7.209,7.209,0,0,1,0,14.5,6.2,6.2,0,0,1,1,11,6.506,6.506,0,0,1,3.6,8.4a7.975,7.975,0,0,1,3.7-.8,7.045,7.045,0,0,1,3.4,1,6.969,6.969,0,0,1,2,1.8A9.1,9.1,0,0,1,14,15,61.017,61.017,0,0,0,16.1,25.5Z" fill="url(#radial-gradient)"/>
        <path id="Path_231" data-name="Path 231" d="M16.1,25.5a38.484,38.484,0,0,0,3.2,7.9,7.252,7.252,0,0,0,2.3,2.9l.6.3c1.6.3,2.5-1,3.1-2.1a57.149,57.149,0,0,0,2.1-5.8c.1-.4.2-.7.3-1.1a15.985,15.985,0,0,0,.5-2.1l7.1-19a15.85,15.85,0,0,1,5.6-4.7,14.036,14.036,0,0,1,7-1.8,15.973,15.973,0,0,1,9.8,3.4c4.7,3.5,7.4,10.5,7.4,10.5a7.173,7.173,0,0,1,.6,2.9,8.574,8.574,0,0,1-.5,2.7,11.355,11.355,0,0,1-1.5,2.3,6.128,6.128,0,0,1-2.3,1.5,8.082,8.082,0,0,1-2.7.5,5.918,5.918,0,0,1-2.9-.7,8.4,8.4,0,0,1-2.4-1.8.1.1,0,0,0-.1-.1,12.81,12.81,0,0,1-1.1-2,19.649,19.649,0,0,0-1.3-2.5c-.3-.4-.5-.8-.8-1.2a2.836,2.836,0,0,0-.9-1,2.007,2.007,0,0,0-2.2-.3l-.1.1a5.583,5.583,0,0,0-1.7,2.5,45.7,45.7,0,0,0-2.4,7.4l-.3,1.5-3,9.6-4.1,9.1a15.3,15.3,0,0,1-5.6,4.5,17.166,17.166,0,0,1-7,1.7C12.7,50.8,8,41.7,8,41.7,2.3,32.3.6,19.9.2,15.9A7.209,7.209,0,0,1,0,14.5,6.2,6.2,0,0,1,1,11,6.506,6.506,0,0,1,3.6,8.4a7.975,7.975,0,0,1,3.7-.8,7.045,7.045,0,0,1,3.4,1,6.969,6.969,0,0,1,2,1.8A9.1,9.1,0,0,1,14,15,61.017,61.017,0,0,0,16.1,25.5Z" fill="url(#radial-gradient-2)"/>
        <path id="Path_232" data-name="Path 232" d="M16.1,25.5a38.484,38.484,0,0,0,3.2,7.9,7.252,7.252,0,0,0,2.3,2.9l.6.3c1.6.3,2.5-1,3.1-2.1a57.149,57.149,0,0,0,2.1-5.8c.1-.4.2-.7.3-1.1a15.985,15.985,0,0,0,.5-2.1l7.1-19a15.85,15.85,0,0,1,5.6-4.7,14.036,14.036,0,0,1,7-1.8,15.973,15.973,0,0,1,9.8,3.4c4.7,3.5,7.4,10.5,7.4,10.5a7.173,7.173,0,0,1,.6,2.9,8.574,8.574,0,0,1-.5,2.7,11.355,11.355,0,0,1-1.5,2.3,6.128,6.128,0,0,1-2.3,1.5,8.082,8.082,0,0,1-2.7.5,5.918,5.918,0,0,1-2.9-.7,8.4,8.4,0,0,1-2.4-1.8.1.1,0,0,0-.1-.1,12.81,12.81,0,0,1-1.1-2,19.649,19.649,0,0,0-1.3-2.5c-.3-.4-.5-.8-.8-1.2a2.836,2.836,0,0,0-.9-1,2.007,2.007,0,0,0-2.2-.3l-.1.1a5.583,5.583,0,0,0-1.7,2.5,45.7,45.7,0,0,0-2.4,7.4l-.3,1.5-3,9.6-4.1,9.1a15.3,15.3,0,0,1-5.6,4.5,17.166,17.166,0,0,1-7,1.7C12.7,50.8,8,41.7,8,41.7,2.3,32.3.6,19.9.2,15.9A7.209,7.209,0,0,1,0,14.5,6.2,6.2,0,0,1,1,11,6.506,6.506,0,0,1,3.6,8.4a7.975,7.975,0,0,1,3.7-.8,7.045,7.045,0,0,1,3.4,1,6.969,6.969,0,0,1,2,1.8A9.1,9.1,0,0,1,14,15,61.017,61.017,0,0,0,16.1,25.5Z" fill="url(#radial-gradient-3)"/>
        <path id="Path_233" data-name="Path 233" d="M16.1,25.5a38.484,38.484,0,0,0,3.2,7.9,7.252,7.252,0,0,0,2.3,2.9l.6.3c1.6.3,2.5-1,3.1-2.1a57.149,57.149,0,0,0,2.1-5.8c.1-.4.2-.7.3-1.1a15.985,15.985,0,0,0,.5-2.1l7.1-19a15.85,15.85,0,0,1,5.6-4.7,14.036,14.036,0,0,1,7-1.8,15.973,15.973,0,0,1,9.8,3.4c4.7,3.5,7.4,10.5,7.4,10.5a7.173,7.173,0,0,1,.6,2.9,8.574,8.574,0,0,1-.5,2.7,11.355,11.355,0,0,1-1.5,2.3,6.128,6.128,0,0,1-2.3,1.5,8.082,8.082,0,0,1-2.7.5,5.918,5.918,0,0,1-2.9-.7,8.4,8.4,0,0,1-2.4-1.8.1.1,0,0,0-.1-.1,12.81,12.81,0,0,1-1.1-2,19.649,19.649,0,0,0-1.3-2.5c-.3-.4-.5-.8-.8-1.2a2.836,2.836,0,0,0-.9-1,2.007,2.007,0,0,0-2.2-.3l-.1.1a5.583,5.583,0,0,0-1.7,2.5,45.7,45.7,0,0,0-2.4,7.4l-.3,1.5-3,9.6-4.1,9.1a15.3,15.3,0,0,1-5.6,4.5,17.166,17.166,0,0,1-7,1.7C12.7,50.8,8,41.7,8,41.7,2.3,32.3.6,19.9.2,15.9A7.209,7.209,0,0,1,0,14.5,6.2,6.2,0,0,1,1,11,6.506,6.506,0,0,1,3.6,8.4a7.975,7.975,0,0,1,3.7-.8,7.045,7.045,0,0,1,3.4,1,6.969,6.969,0,0,1,2,1.8A9.1,9.1,0,0,1,14,15,61.017,61.017,0,0,0,16.1,25.5Z" fill="url(#radial-gradient-4)"/>
        <path id="Path_234" data-name="Path 234" d="M16.1,25.5a38.484,38.484,0,0,0,3.2,7.9,7.252,7.252,0,0,0,2.3,2.9l.6.3c1.6.3,2.5-1,3.1-2.1a57.149,57.149,0,0,0,2.1-5.8c.1-.4.2-.7.3-1.1a15.985,15.985,0,0,0,.5-2.1l7.1-19a15.85,15.85,0,0,1,5.6-4.7,14.036,14.036,0,0,1,7-1.8,15.973,15.973,0,0,1,9.8,3.4c4.7,3.5,7.4,10.5,7.4,10.5a7.173,7.173,0,0,1,.6,2.9,8.574,8.574,0,0,1-.5,2.7,11.355,11.355,0,0,1-1.5,2.3,6.128,6.128,0,0,1-2.3,1.5,8.082,8.082,0,0,1-2.7.5,5.918,5.918,0,0,1-2.9-.7,8.4,8.4,0,0,1-2.4-1.8.1.1,0,0,0-.1-.1,12.81,12.81,0,0,1-1.1-2,19.649,19.649,0,0,0-1.3-2.5c-.3-.4-.5-.8-.8-1.2a2.836,2.836,0,0,0-.9-1,2.007,2.007,0,0,0-2.2-.3l-.1.1a5.583,5.583,0,0,0-1.7,2.5,45.7,45.7,0,0,0-2.4,7.4l-.3,1.5-3,9.6-4.1,9.1a15.3,15.3,0,0,1-5.6,4.5,17.166,17.166,0,0,1-7,1.7C12.7,50.8,8,41.7,8,41.7,2.3,32.3.6,19.9.2,15.9A7.209,7.209,0,0,1,0,14.5,6.2,6.2,0,0,1,1,11,6.506,6.506,0,0,1,3.6,8.4a7.975,7.975,0,0,1,3.7-.8,7.045,7.045,0,0,1,3.4,1,6.969,6.969,0,0,1,2,1.8A9.1,9.1,0,0,1,14,15,61.017,61.017,0,0,0,16.1,25.5Z" fill="url(#radial-gradient-5)"/>
        <path id="Path_235" data-name="Path 235" d="M16.1,25.5a38.484,38.484,0,0,0,3.2,7.9,7.252,7.252,0,0,0,2.3,2.9l.6.3c1.6.3,2.5-1,3.1-2.1a57.149,57.149,0,0,0,2.1-5.8c.1-.4.2-.7.3-1.1a15.985,15.985,0,0,0,.5-2.1l7.1-19a15.85,15.85,0,0,1,5.6-4.7,14.036,14.036,0,0,1,7-1.8,15.973,15.973,0,0,1,9.8,3.4c4.7,3.5,7.4,10.5,7.4,10.5a7.173,7.173,0,0,1,.6,2.9,8.574,8.574,0,0,1-.5,2.7,11.355,11.355,0,0,1-1.5,2.3,6.128,6.128,0,0,1-2.3,1.5,8.082,8.082,0,0,1-2.7.5,5.918,5.918,0,0,1-2.9-.7,8.4,8.4,0,0,1-2.4-1.8.1.1,0,0,0-.1-.1,12.81,12.81,0,0,1-1.1-2,19.649,19.649,0,0,0-1.3-2.5c-.3-.4-.5-.8-.8-1.2a2.836,2.836,0,0,0-.9-1,2.007,2.007,0,0,0-2.2-.3l-.1.1a5.583,5.583,0,0,0-1.7,2.5,45.7,45.7,0,0,0-2.4,7.4l-.3,1.5-3,9.6-4.1,9.1a15.3,15.3,0,0,1-5.6,4.5,17.166,17.166,0,0,1-7,1.7C12.7,50.8,8,41.7,8,41.7,2.3,32.3.6,19.9.2,15.9A7.209,7.209,0,0,1,0,14.5,6.2,6.2,0,0,1,1,11,6.506,6.506,0,0,1,3.6,8.4a7.975,7.975,0,0,1,3.7-.8,7.045,7.045,0,0,1,3.4,1,6.969,6.969,0,0,1,2,1.8A9.1,9.1,0,0,1,14,15,61.017,61.017,0,0,0,16.1,25.5Z" fill="url(#radial-gradient-6)"/>
        <path id="Path_236" data-name="Path 236" d="M16.1,25.5a38.484,38.484,0,0,0,3.2,7.9,7.252,7.252,0,0,0,2.3,2.9l.6.3c1.6.3,2.5-1,3.1-2.1a57.149,57.149,0,0,0,2.1-5.8c.1-.4.2-.7.3-1.1a15.985,15.985,0,0,0,.5-2.1l7.1-19a15.85,15.85,0,0,1,5.6-4.7,14.036,14.036,0,0,1,7-1.8,15.973,15.973,0,0,1,9.8,3.4c4.7,3.5,7.4,10.5,7.4,10.5a7.173,7.173,0,0,1,.6,2.9,8.574,8.574,0,0,1-.5,2.7,11.355,11.355,0,0,1-1.5,2.3,6.128,6.128,0,0,1-2.3,1.5,8.082,8.082,0,0,1-2.7.5,5.918,5.918,0,0,1-2.9-.7,8.4,8.4,0,0,1-2.4-1.8.1.1,0,0,0-.1-.1,12.81,12.81,0,0,1-1.1-2,19.649,19.649,0,0,0-1.3-2.5c-.3-.4-.5-.8-.8-1.2a2.836,2.836,0,0,0-.9-1,2.007,2.007,0,0,0-2.2-.3l-.1.1a5.583,5.583,0,0,0-1.7,2.5,45.7,45.7,0,0,0-2.4,7.4l-.3,1.5-3,9.6-4.1,9.1a15.3,15.3,0,0,1-5.6,4.5,17.166,17.166,0,0,1-7,1.7C12.7,50.8,8,41.7,8,41.7,2.3,32.3.6,19.9.2,15.9A7.209,7.209,0,0,1,0,14.5,6.2,6.2,0,0,1,1,11,6.506,6.506,0,0,1,3.6,8.4a7.975,7.975,0,0,1,3.7-.8,7.045,7.045,0,0,1,3.4,1,6.969,6.969,0,0,1,2,1.8A9.1,9.1,0,0,1,14,15,61.017,61.017,0,0,0,16.1,25.5Z" fill="url(#radial-gradient-7)"/>
        <path id="Path_237" data-name="Path 237" d="M16.1,25.5a38.484,38.484,0,0,0,3.2,7.9,7.252,7.252,0,0,0,2.3,2.9l.6.3c1.6.3,2.5-1,3.1-2.1a57.149,57.149,0,0,0,2.1-5.8c.1-.4.2-.7.3-1.1a15.985,15.985,0,0,0,.5-2.1l7.1-19a15.85,15.85,0,0,1,5.6-4.7,14.036,14.036,0,0,1,7-1.8,15.973,15.973,0,0,1,9.8,3.4c4.7,3.5,7.4,10.5,7.4,10.5a7.173,7.173,0,0,1,.6,2.9,8.574,8.574,0,0,1-.5,2.7,11.355,11.355,0,0,1-1.5,2.3,6.128,6.128,0,0,1-2.3,1.5,8.082,8.082,0,0,1-2.7.5,5.918,5.918,0,0,1-2.9-.7,8.4,8.4,0,0,1-2.4-1.8.1.1,0,0,0-.1-.1,12.81,12.81,0,0,1-1.1-2,19.649,19.649,0,0,0-1.3-2.5c-.3-.4-.5-.8-.8-1.2a2.836,2.836,0,0,0-.9-1,2.007,2.007,0,0,0-2.2-.3l-.1.1a5.583,5.583,0,0,0-1.7,2.5,45.7,45.7,0,0,0-2.4,7.4l-.3,1.5-3,9.6-4.1,9.1a15.3,15.3,0,0,1-5.6,4.5,17.166,17.166,0,0,1-7,1.7C12.7,50.8,8,41.7,8,41.7,2.3,32.3.6,19.9.2,15.9A7.209,7.209,0,0,1,0,14.5,6.2,6.2,0,0,1,1,11,6.506,6.506,0,0,1,3.6,8.4a7.975,7.975,0,0,1,3.7-.8,7.045,7.045,0,0,1,3.4,1,6.969,6.969,0,0,1,2,1.8A9.1,9.1,0,0,1,14,15,61.017,61.017,0,0,0,16.1,25.5Z" fill="url(#radial-gradient-8)"/>
        <path id="Path_238" data-name="Path 238" d="M16.1,25.5a38.484,38.484,0,0,0,3.2,7.9,7.252,7.252,0,0,0,2.3,2.9l.6.3c1.6.3,2.5-1,3.1-2.1a57.149,57.149,0,0,0,2.1-5.8c.1-.4.2-.7.3-1.1a15.985,15.985,0,0,0,.5-2.1l7.1-19a15.85,15.85,0,0,1,5.6-4.7,14.036,14.036,0,0,1,7-1.8,15.973,15.973,0,0,1,9.8,3.4c4.7,3.5,7.4,10.5,7.4,10.5a7.173,7.173,0,0,1,.6,2.9,8.574,8.574,0,0,1-.5,2.7,11.355,11.355,0,0,1-1.5,2.3,6.128,6.128,0,0,1-2.3,1.5,8.082,8.082,0,0,1-2.7.5,5.918,5.918,0,0,1-2.9-.7,8.4,8.4,0,0,1-2.4-1.8.1.1,0,0,0-.1-.1,12.81,12.81,0,0,1-1.1-2,19.649,19.649,0,0,0-1.3-2.5c-.3-.4-.5-.8-.8-1.2a2.836,2.836,0,0,0-.9-1,2.007,2.007,0,0,0-2.2-.3l-.1.1a5.583,5.583,0,0,0-1.7,2.5,45.7,45.7,0,0,0-2.4,7.4l-.3,1.5-3,9.6-4.1,9.1a15.3,15.3,0,0,1-5.6,4.5,17.166,17.166,0,0,1-7,1.7C12.7,50.8,8,41.7,8,41.7,2.3,32.3.6,19.9.2,15.9A7.209,7.209,0,0,1,0,14.5,6.2,6.2,0,0,1,1,11,6.506,6.506,0,0,1,3.6,8.4a7.975,7.975,0,0,1,3.7-.8,7.045,7.045,0,0,1,3.4,1,6.969,6.969,0,0,1,2,1.8A9.1,9.1,0,0,1,14,15,61.017,61.017,0,0,0,16.1,25.5Z" fill="url(#radial-gradient-9)"/>
        <path id="Path_239" data-name="Path 239" d="M16.1,25.5a38.484,38.484,0,0,0,3.2,7.9,7.252,7.252,0,0,0,2.3,2.9l.6.3c1.6.3,2.5-1,3.1-2.1a57.149,57.149,0,0,0,2.1-5.8c.1-.4.2-.7.3-1.1a15.985,15.985,0,0,0,.5-2.1l7.1-19a15.85,15.85,0,0,1,5.6-4.7,14.036,14.036,0,0,1,7-1.8,15.973,15.973,0,0,1,9.8,3.4c4.7,3.5,7.4,10.5,7.4,10.5a7.173,7.173,0,0,1,.6,2.9,8.574,8.574,0,0,1-.5,2.7,11.355,11.355,0,0,1-1.5,2.3,6.128,6.128,0,0,1-2.3,1.5,8.082,8.082,0,0,1-2.7.5,5.918,5.918,0,0,1-2.9-.7,8.4,8.4,0,0,1-2.4-1.8.1.1,0,0,0-.1-.1,12.81,12.81,0,0,1-1.1-2,19.649,19.649,0,0,0-1.3-2.5c-.3-.4-.5-.8-.8-1.2a2.836,2.836,0,0,0-.9-1,2.007,2.007,0,0,0-2.2-.3l-.1.1a5.583,5.583,0,0,0-1.7,2.5,45.7,45.7,0,0,0-2.4,7.4l-.3,1.5-3,9.6-4.1,9.1a15.3,15.3,0,0,1-5.6,4.5,17.166,17.166,0,0,1-7,1.7C12.7,50.8,8,41.7,8,41.7,2.3,32.3.6,19.9.2,15.9A7.209,7.209,0,0,1,0,14.5,6.2,6.2,0,0,1,1,11,6.506,6.506,0,0,1,3.6,8.4a7.975,7.975,0,0,1,3.7-.8,7.045,7.045,0,0,1,3.4,1,6.969,6.969,0,0,1,2,1.8A9.1,9.1,0,0,1,14,15,61.017,61.017,0,0,0,16.1,25.5Z" fill="url(#radial-gradient-10)"/>
        <path id="Path_240" data-name="Path 240" d="M16.1,25.5a38.484,38.484,0,0,0,3.2,7.9,7.252,7.252,0,0,0,2.3,2.9l.6.3c1.6.3,2.5-1,3.1-2.1a57.149,57.149,0,0,0,2.1-5.8c.1-.4.2-.7.3-1.1a15.985,15.985,0,0,0,.5-2.1l7.1-19a15.85,15.85,0,0,1,5.6-4.7,14.036,14.036,0,0,1,7-1.8,15.973,15.973,0,0,1,9.8,3.4c4.7,3.5,7.4,10.5,7.4,10.5a7.173,7.173,0,0,1,.6,2.9,8.574,8.574,0,0,1-.5,2.7,11.355,11.355,0,0,1-1.5,2.3,6.128,6.128,0,0,1-2.3,1.5,8.082,8.082,0,0,1-2.7.5,5.918,5.918,0,0,1-2.9-.7,8.4,8.4,0,0,1-2.4-1.8.1.1,0,0,0-.1-.1,12.81,12.81,0,0,1-1.1-2,19.649,19.649,0,0,0-1.3-2.5c-.3-.4-.5-.8-.8-1.2a2.836,2.836,0,0,0-.9-1,2.007,2.007,0,0,0-2.2-.3l-.1.1a5.583,5.583,0,0,0-1.7,2.5,45.7,45.7,0,0,0-2.4,7.4l-.3,1.5-3,9.6-4.1,9.1a15.3,15.3,0,0,1-5.6,4.5,17.166,17.166,0,0,1-7,1.7C12.7,50.8,8,41.7,8,41.7,2.3,32.3.6,19.9.2,15.9A7.209,7.209,0,0,1,0,14.5,6.2,6.2,0,0,1,1,11,6.506,6.506,0,0,1,3.6,8.4a7.975,7.975,0,0,1,3.7-.8,7.045,7.045,0,0,1,3.4,1,6.969,6.969,0,0,1,2,1.8A9.1,9.1,0,0,1,14,15,61.017,61.017,0,0,0,16.1,25.5Z" fill="url(#radial-gradient-11)"/>
        <path id="Path_241" data-name="Path 241" d="M16.1,25.5a38.484,38.484,0,0,0,3.2,7.9,7.252,7.252,0,0,0,2.3,2.9l.6.3c1.6.3,2.5-1,3.1-2.1a57.149,57.149,0,0,0,2.1-5.8c.1-.4.2-.7.3-1.1a15.985,15.985,0,0,0,.5-2.1l7.1-19a15.85,15.85,0,0,1,5.6-4.7,14.036,14.036,0,0,1,7-1.8,15.973,15.973,0,0,1,9.8,3.4c4.7,3.5,7.4,10.5,7.4,10.5a7.173,7.173,0,0,1,.6,2.9,8.574,8.574,0,0,1-.5,2.7,11.355,11.355,0,0,1-1.5,2.3,6.128,6.128,0,0,1-2.3,1.5,8.082,8.082,0,0,1-2.7.5,5.918,5.918,0,0,1-2.9-.7,8.4,8.4,0,0,1-2.4-1.8.1.1,0,0,0-.1-.1,12.81,12.81,0,0,1-1.1-2,19.649,19.649,0,0,0-1.3-2.5c-.3-.4-.5-.8-.8-1.2a2.836,2.836,0,0,0-.9-1,2.007,2.007,0,0,0-2.2-.3l-.1.1a5.583,5.583,0,0,0-1.7,2.5,45.7,45.7,0,0,0-2.4,7.4l-.3,1.5-3,9.6-4.1,9.1a15.3,15.3,0,0,1-5.6,4.5,17.166,17.166,0,0,1-7,1.7C12.7,50.8,8,41.7,8,41.7,2.3,32.3.6,19.9.2,15.9A7.209,7.209,0,0,1,0,14.5,6.2,6.2,0,0,1,1,11,6.506,6.506,0,0,1,3.6,8.4a7.975,7.975,0,0,1,3.7-.8,7.045,7.045,0,0,1,3.4,1,6.969,6.969,0,0,1,2,1.8A9.1,9.1,0,0,1,14,15,61.017,61.017,0,0,0,16.1,25.5Z" fill="url(#radial-gradient-12)"/>
        <path id="Path_242" data-name="Path 242" d="M16.1,25.5a38.484,38.484,0,0,0,3.2,7.9,7.252,7.252,0,0,0,2.3,2.9l.6.3c1.6.3,2.5-1,3.1-2.1a57.149,57.149,0,0,0,2.1-5.8c.1-.4.2-.7.3-1.1a15.985,15.985,0,0,0,.5-2.1l7.1-19a15.85,15.85,0,0,1,5.6-4.7,14.036,14.036,0,0,1,7-1.8,15.973,15.973,0,0,1,9.8,3.4c4.7,3.5,7.4,10.5,7.4,10.5a7.173,7.173,0,0,1,.6,2.9,8.574,8.574,0,0,1-.5,2.7,11.355,11.355,0,0,1-1.5,2.3,6.128,6.128,0,0,1-2.3,1.5,8.082,8.082,0,0,1-2.7.5,5.918,5.918,0,0,1-2.9-.7,8.4,8.4,0,0,1-2.4-1.8.1.1,0,0,0-.1-.1,12.81,12.81,0,0,1-1.1-2,19.649,19.649,0,0,0-1.3-2.5c-.3-.4-.5-.8-.8-1.2a2.836,2.836,0,0,0-.9-1,2.007,2.007,0,0,0-2.2-.3l-.1.1a5.583,5.583,0,0,0-1.7,2.5,45.7,45.7,0,0,0-2.4,7.4l-.3,1.5-3,9.6-4.1,9.1a15.3,15.3,0,0,1-5.6,4.5,17.166,17.166,0,0,1-7,1.7C12.7,50.8,8,41.7,8,41.7,2.3,32.3.6,19.9.2,15.9A7.209,7.209,0,0,1,0,14.5,6.2,6.2,0,0,1,1,11,6.506,6.506,0,0,1,3.6,8.4a7.975,7.975,0,0,1,3.7-.8,7.045,7.045,0,0,1,3.4,1,6.969,6.969,0,0,1,2,1.8A9.1,9.1,0,0,1,14,15,61.017,61.017,0,0,0,16.1,25.5Z" fill="url(#radial-gradient-13)"/>
        <path id="Path_243" data-name="Path 243" d="M16.1,25.5a38.484,38.484,0,0,0,3.2,7.9,7.252,7.252,0,0,0,2.3,2.9l.6.3c1.6.3,2.5-1,3.1-2.1a57.149,57.149,0,0,0,2.1-5.8c.1-.4.2-.7.3-1.1a15.985,15.985,0,0,0,.5-2.1l7.1-19a15.85,15.85,0,0,1,5.6-4.7,14.036,14.036,0,0,1,7-1.8,15.973,15.973,0,0,1,9.8,3.4c4.7,3.5,7.4,10.5,7.4,10.5a7.173,7.173,0,0,1,.6,2.9,8.574,8.574,0,0,1-.5,2.7,11.355,11.355,0,0,1-1.5,2.3,6.128,6.128,0,0,1-2.3,1.5,8.082,8.082,0,0,1-2.7.5,5.918,5.918,0,0,1-2.9-.7,8.4,8.4,0,0,1-2.4-1.8.1.1,0,0,0-.1-.1,12.81,12.81,0,0,1-1.1-2,19.649,19.649,0,0,0-1.3-2.5c-.3-.4-.5-.8-.8-1.2a2.836,2.836,0,0,0-.9-1,2.007,2.007,0,0,0-2.2-.3l-.1.1a5.583,5.583,0,0,0-1.7,2.5,45.7,45.7,0,0,0-2.4,7.4l-.3,1.5-3,9.6-4.1,9.1a15.3,15.3,0,0,1-5.6,4.5,17.166,17.166,0,0,1-7,1.7C12.7,50.8,8,41.7,8,41.7,2.3,32.3.6,19.9.2,15.9A7.209,7.209,0,0,1,0,14.5,6.2,6.2,0,0,1,1,11,6.506,6.506,0,0,1,3.6,8.4a7.975,7.975,0,0,1,3.7-.8,7.045,7.045,0,0,1,3.4,1,6.969,6.969,0,0,1,2,1.8A9.1,9.1,0,0,1,14,15,61.017,61.017,0,0,0,16.1,25.5Z" fill="url(#radial-gradient-14)"/>
        <path id="Path_244" data-name="Path 244" d="M16.1,25.5a38.484,38.484,0,0,0,3.2,7.9,7.252,7.252,0,0,0,2.3,2.9l.6.3c1.6.3,2.5-1,3.1-2.1a57.149,57.149,0,0,0,2.1-5.8c.1-.4.2-.7.3-1.1a15.985,15.985,0,0,0,.5-2.1l7.1-19a15.85,15.85,0,0,1,5.6-4.7,14.036,14.036,0,0,1,7-1.8,15.973,15.973,0,0,1,9.8,3.4c4.7,3.5,7.4,10.5,7.4,10.5a7.173,7.173,0,0,1,.6,2.9,8.574,8.574,0,0,1-.5,2.7,11.355,11.355,0,0,1-1.5,2.3,6.128,6.128,0,0,1-2.3,1.5,8.082,8.082,0,0,1-2.7.5,5.918,5.918,0,0,1-2.9-.7,8.4,8.4,0,0,1-2.4-1.8.1.1,0,0,0-.1-.1,12.81,12.81,0,0,1-1.1-2,19.649,19.649,0,0,0-1.3-2.5c-.3-.4-.5-.8-.8-1.2a2.836,2.836,0,0,0-.9-1,2.007,2.007,0,0,0-2.2-.3l-.1.1a5.583,5.583,0,0,0-1.7,2.5,45.7,45.7,0,0,0-2.4,7.4l-.3,1.5-3,9.6-4.1,9.1a15.3,15.3,0,0,1-5.6,4.5,17.166,17.166,0,0,1-7,1.7C12.7,50.8,8,41.7,8,41.7,2.3,32.3.6,19.9.2,15.9A7.209,7.209,0,0,1,0,14.5,6.2,6.2,0,0,1,1,11,6.506,6.506,0,0,1,3.6,8.4a7.975,7.975,0,0,1,3.7-.8,7.045,7.045,0,0,1,3.4,1,6.969,6.969,0,0,1,2,1.8A9.1,9.1,0,0,1,14,15,61.017,61.017,0,0,0,16.1,25.5Z" fill="url(#radial-gradient-15)"/>
        <path id="Path_245" data-name="Path 245" d="M16.1,25.5a38.484,38.484,0,0,0,3.2,7.9,7.252,7.252,0,0,0,2.3,2.9l.6.3c1.6.3,2.5-1,3.1-2.1a57.149,57.149,0,0,0,2.1-5.8c.1-.4.2-.7.3-1.1a15.985,15.985,0,0,0,.5-2.1l7.1-19a15.85,15.85,0,0,1,5.6-4.7,14.036,14.036,0,0,1,7-1.8,15.973,15.973,0,0,1,9.8,3.4c4.7,3.5,7.4,10.5,7.4,10.5a7.173,7.173,0,0,1,.6,2.9,8.574,8.574,0,0,1-.5,2.7,11.355,11.355,0,0,1-1.5,2.3,6.128,6.128,0,0,1-2.3,1.5,8.082,8.082,0,0,1-2.7.5,5.918,5.918,0,0,1-2.9-.7,8.4,8.4,0,0,1-2.4-1.8.1.1,0,0,0-.1-.1,12.81,12.81,0,0,1-1.1-2,19.649,19.649,0,0,0-1.3-2.5c-.3-.4-.5-.8-.8-1.2a2.836,2.836,0,0,0-.9-1,2.007,2.007,0,0,0-2.2-.3l-.1.1a5.583,5.583,0,0,0-1.7,2.5,45.7,45.7,0,0,0-2.4,7.4l-.3,1.5-3,9.6-4.1,9.1a15.3,15.3,0,0,1-5.6,4.5,17.166,17.166,0,0,1-7,1.7C12.7,50.8,8,41.7,8,41.7,2.3,32.3.6,19.9.2,15.9A7.209,7.209,0,0,1,0,14.5,6.2,6.2,0,0,1,1,11,6.506,6.506,0,0,1,3.6,8.4a7.975,7.975,0,0,1,3.7-.8,7.045,7.045,0,0,1,3.4,1,6.969,6.969,0,0,1,2,1.8A9.1,9.1,0,0,1,14,15,61.017,61.017,0,0,0,16.1,25.5Z" fill="url(#linear-gradient-2)"/>
        <path id="Path_246" data-name="Path 246" d="M16.1,25.5a38.484,38.484,0,0,0,3.2,7.9,7.252,7.252,0,0,0,2.3,2.9l.6.3c1.6.3,2.5-1,3.1-2.1a57.149,57.149,0,0,0,2.1-5.8c.1-.4.2-.7.3-1.1a15.985,15.985,0,0,0,.5-2.1l7.1-19a15.85,15.85,0,0,1,5.6-4.7,14.036,14.036,0,0,1,7-1.8,15.973,15.973,0,0,1,9.8,3.4c4.7,3.5,7.4,10.5,7.4,10.5a7.173,7.173,0,0,1,.6,2.9,8.574,8.574,0,0,1-.5,2.7,11.355,11.355,0,0,1-1.5,2.3,6.128,6.128,0,0,1-2.3,1.5,8.082,8.082,0,0,1-2.7.5,5.918,5.918,0,0,1-2.9-.7,8.4,8.4,0,0,1-2.4-1.8.1.1,0,0,0-.1-.1,12.81,12.81,0,0,1-1.1-2,19.649,19.649,0,0,0-1.3-2.5c-.3-.4-.5-.8-.8-1.2a2.836,2.836,0,0,0-.9-1,2.007,2.007,0,0,0-2.2-.3l-.1.1a5.583,5.583,0,0,0-1.7,2.5,45.7,45.7,0,0,0-2.4,7.4l-.3,1.5-3,9.6-4.1,9.1a15.3,15.3,0,0,1-5.6,4.5,17.166,17.166,0,0,1-7,1.7C12.7,50.8,8,41.7,8,41.7,2.3,32.3.6,19.9.2,15.9A7.209,7.209,0,0,1,0,14.5,6.2,6.2,0,0,1,1,11,6.506,6.506,0,0,1,3.6,8.4a7.975,7.975,0,0,1,3.7-.8,7.045,7.045,0,0,1,3.4,1,6.969,6.969,0,0,1,2,1.8A9.1,9.1,0,0,1,14,15,61.017,61.017,0,0,0,16.1,25.5Z" fill="url(#linear-gradient-3)"/>
        <path id="Path_247" data-name="Path 247" d="M16.1,25.5a38.484,38.484,0,0,0,3.2,7.9,7.252,7.252,0,0,0,2.3,2.9l.6.3c1.6.3,2.5-1,3.1-2.1a57.149,57.149,0,0,0,2.1-5.8c.1-.4.2-.7.3-1.1a15.985,15.985,0,0,0,.5-2.1l7.1-19a15.85,15.85,0,0,1,5.6-4.7,14.036,14.036,0,0,1,7-1.8,15.973,15.973,0,0,1,9.8,3.4c4.7,3.5,7.4,10.5,7.4,10.5a7.173,7.173,0,0,1,.6,2.9,8.574,8.574,0,0,1-.5,2.7,11.355,11.355,0,0,1-1.5,2.3,6.128,6.128,0,0,1-2.3,1.5,8.082,8.082,0,0,1-2.7.5,5.918,5.918,0,0,1-2.9-.7,8.4,8.4,0,0,1-2.4-1.8.1.1,0,0,0-.1-.1,12.81,12.81,0,0,1-1.1-2,19.649,19.649,0,0,0-1.3-2.5c-.3-.4-.5-.8-.8-1.2a2.836,2.836,0,0,0-.9-1,2.007,2.007,0,0,0-2.2-.3l-.1.1a5.583,5.583,0,0,0-1.7,2.5,45.7,45.7,0,0,0-2.4,7.4l-.3,1.5-3,9.6-4.1,9.1a15.3,15.3,0,0,1-5.6,4.5,17.166,17.166,0,0,1-7,1.7C12.7,50.8,8,41.7,8,41.7,2.3,32.3.6,19.9.2,15.9A7.209,7.209,0,0,1,0,14.5,6.2,6.2,0,0,1,1,11,6.506,6.506,0,0,1,3.6,8.4a7.975,7.975,0,0,1,3.7-.8,7.045,7.045,0,0,1,3.4,1,6.969,6.969,0,0,1,2,1.8A9.1,9.1,0,0,1,14,15,61.017,61.017,0,0,0,16.1,25.5Z" fill="url(#linear-gradient-4)"/>
        <path id="Path_248" data-name="Path 248" d="M16.1,25.5a38.484,38.484,0,0,0,3.2,7.9,7.252,7.252,0,0,0,2.3,2.9l.6.3c1.6.3,2.5-1,3.1-2.1a57.149,57.149,0,0,0,2.1-5.8c.1-.4.2-.7.3-1.1a15.985,15.985,0,0,0,.5-2.1l7.1-19a15.85,15.85,0,0,1,5.6-4.7,14.036,14.036,0,0,1,7-1.8,15.973,15.973,0,0,1,9.8,3.4c4.7,3.5,7.4,10.5,7.4,10.5a7.173,7.173,0,0,1,.6,2.9,8.574,8.574,0,0,1-.5,2.7,11.355,11.355,0,0,1-1.5,2.3,6.128,6.128,0,0,1-2.3,1.5,8.082,8.082,0,0,1-2.7.5,5.918,5.918,0,0,1-2.9-.7,8.4,8.4,0,0,1-2.4-1.8.1.1,0,0,0-.1-.1,12.81,12.81,0,0,1-1.1-2,19.649,19.649,0,0,0-1.3-2.5c-.3-.4-.5-.8-.8-1.2a2.836,2.836,0,0,0-.9-1,2.007,2.007,0,0,0-2.2-.3l-.1.1a5.583,5.583,0,0,0-1.7,2.5,45.7,45.7,0,0,0-2.4,7.4l-.3,1.5-3,9.6-4.1,9.1a15.3,15.3,0,0,1-5.6,4.5,17.166,17.166,0,0,1-7,1.7C12.7,50.8,8,41.7,8,41.7,2.3,32.3.6,19.9.2,15.9A7.209,7.209,0,0,1,0,14.5,6.2,6.2,0,0,1,1,11,6.506,6.506,0,0,1,3.6,8.4a7.975,7.975,0,0,1,3.7-.8,7.045,7.045,0,0,1,3.4,1,6.969,6.969,0,0,1,2,1.8A9.1,9.1,0,0,1,14,15,61.017,61.017,0,0,0,16.1,25.5Z" fill="url(#linear-gradient-5)"/>
        <path id="Path_249" data-name="Path 249" d="M30.7,18.4,35.2,6.3a15.85,15.85,0,0,1,5.6-4.7A17.148,17.148,0,0,1,47.9,0a15.973,15.973,0,0,1,9.8,3.4c4.7,3.5,7.4,10.5,7.4,10.5a7.173,7.173,0,0,1,.6,2.9,8.574,8.574,0,0,1-.5,2.7,11.355,11.355,0,0,1-1.5,2.3,6.128,6.128,0,0,1-2.3,1.5,8.082,8.082,0,0,1-2.7.5,5.918,5.918,0,0,1-2.9-.7,8.4,8.4,0,0,1-2.4-1.8.1.1,0,0,0-.1-.1,12.81,12.81,0,0,1-1.1-2,19.649,19.649,0,0,0-1.3-2.5c-.3-.4-.5-.8-.8-1.2a2.836,2.836,0,0,0-.9-1,2.007,2.007,0,0,0-2.2-.3l-.1.1a5.583,5.583,0,0,0-1.7,2.5,45.7,45.7,0,0,0-2.4,7.4l-.3,1.5-3,9.6Z" fill="url(#linear-gradient-6)"/>
        <path id="Path_250" data-name="Path 250" d="M63.5,7.6a8.807,8.807,0,0,0-1.7.2,35.06,35.06,0,0,1,3.3,6,7.173,7.173,0,0,1,.6,2.9,8.574,8.574,0,0,1-.5,2.7,11.355,11.355,0,0,1-1.5,2.3,5.131,5.131,0,0,1-2.3,1.5,8.082,8.082,0,0,1-2.7.5,6.2,6.2,0,0,1-3.5-1l-.7,2.7a33.014,33.014,0,0,1-2.2,6,22.11,22.11,0,0,1-1.8,3.4,4.442,4.442,0,0,1-1.9,1.7,2.769,2.769,0,0,1-.9.1,1.613,1.613,0,0,1-.9-.3,5.088,5.088,0,0,1-1.3-1.6,19.987,19.987,0,0,1-1-2.1c-.6-1.5-1.6-5.2-1.6-5.2l-1-3.9-1-3.9L40.2,17c-1.8-6.7-4.4-10-4.4-10A16.862,16.862,0,0,0,27.6.8,16.167,16.167,0,0,0,19.8.2a16.954,16.954,0,0,0-11,7.6,6.391,6.391,0,0,1,1.9.8,6.969,6.969,0,0,1,2,1.8A9.1,9.1,0,0,1,14,15a72.065,72.065,0,0,0,2,10.3c2.1-7.1,4.7-10.4,4.7-10.4a2.836,2.836,0,0,1,1-.9,1.445,1.445,0,0,1,.7-.2,2.375,2.375,0,0,1,1.2.3c.1,0,.1.1.2.1a9.016,9.016,0,0,1,.9,1,27.509,27.509,0,0,1,1.4,3c.8,2.2,1.5,5,1.5,5l2,8a57.731,57.731,0,0,0,2.7,8.1c3.1,7.1,7.8,9.1,7.8,9.1a17.828,17.828,0,0,0,7.5,2,14.819,14.819,0,0,0,7.2-1.5,19.425,19.425,0,0,0,6.3-5.1,35.781,35.781,0,0,0,2.8-4.5,53.984,53.984,0,0,0,4.3-11.6,64.059,64.059,0,0,0,1.6-7.6c.2-1.3.4-2.5.5-3.8a8.744,8.744,0,0,0-.1-3.6c-.1-.2-.1-.4-.2-.6a7.054,7.054,0,0,0-3.1-3.5,5.887,5.887,0,0,0-3.4-1Z" fill="url(#linear-gradient-7)"/>
        <path id="Path_251" data-name="Path 251" d="M63.5,7.6a8.807,8.807,0,0,0-1.7.2,35.06,35.06,0,0,1,3.3,6,7.173,7.173,0,0,1,.6,2.9,8.574,8.574,0,0,1-.5,2.7,11.355,11.355,0,0,1-1.5,2.3,5.131,5.131,0,0,1-2.3,1.5,8.082,8.082,0,0,1-2.7.5,6.2,6.2,0,0,1-3.5-1l-.7,2.7a33.014,33.014,0,0,1-2.2,6,22.11,22.11,0,0,1-1.8,3.4,4.442,4.442,0,0,1-1.9,1.7,2.769,2.769,0,0,1-.9.1,1.613,1.613,0,0,1-.9-.3,5.088,5.088,0,0,1-1.3-1.6,19.987,19.987,0,0,1-1-2.1c-.6-1.5-1.6-5.2-1.6-5.2l-1-3.9-1-3.9L40.2,17c-1.8-6.7-4.4-10-4.4-10A16.862,16.862,0,0,0,27.6.8,16.167,16.167,0,0,0,19.8.2a16.954,16.954,0,0,0-11,7.6,6.391,6.391,0,0,1,1.9.8,6.969,6.969,0,0,1,2,1.8A9.1,9.1,0,0,1,14,15a72.065,72.065,0,0,0,2,10.3c2.1-7.1,4.7-10.4,4.7-10.4a2.836,2.836,0,0,1,1-.9,1.445,1.445,0,0,1,.7-.2,2.375,2.375,0,0,1,1.2.3c.1,0,.1.1.2.1a9.016,9.016,0,0,1,.9,1,27.509,27.509,0,0,1,1.4,3c.8,2.2,1.5,5,1.5,5l2,8a57.731,57.731,0,0,0,2.7,8.1c3.1,7.1,7.8,9.1,7.8,9.1a17.828,17.828,0,0,0,7.5,2,14.819,14.819,0,0,0,7.2-1.5,19.425,19.425,0,0,0,6.3-5.1,35.781,35.781,0,0,0,2.8-4.5,53.984,53.984,0,0,0,4.3-11.6,64.059,64.059,0,0,0,1.6-7.6c.2-1.3.4-2.5.5-3.8a8.744,8.744,0,0,0-.1-3.6c-.1-.2-.1-.4-.2-.6a7.054,7.054,0,0,0-3.1-3.5,5.887,5.887,0,0,0-3.4-1Z" fill="url(#radial-gradient-16)"/>
        <path id="Path_252" data-name="Path 252" d="M63.5,7.6a8.807,8.807,0,0,0-1.7.2,35.06,35.06,0,0,1,3.3,6,7.173,7.173,0,0,1,.6,2.9,8.574,8.574,0,0,1-.5,2.7,11.355,11.355,0,0,1-1.5,2.3,5.131,5.131,0,0,1-2.3,1.5,8.082,8.082,0,0,1-2.7.5,6.2,6.2,0,0,1-3.5-1l-.7,2.7a33.014,33.014,0,0,1-2.2,6,22.11,22.11,0,0,1-1.8,3.4,4.442,4.442,0,0,1-1.9,1.7,2.769,2.769,0,0,1-.9.1,1.613,1.613,0,0,1-.9-.3,5.088,5.088,0,0,1-1.3-1.6,19.987,19.987,0,0,1-1-2.1c-.6-1.5-1.6-5.2-1.6-5.2l-1-3.9-1-3.9L40.2,17c-1.8-6.7-4.4-10-4.4-10A16.862,16.862,0,0,0,27.6.8,16.167,16.167,0,0,0,19.8.2a16.954,16.954,0,0,0-11,7.6,6.391,6.391,0,0,1,1.9.8,6.969,6.969,0,0,1,2,1.8A9.1,9.1,0,0,1,14,15a72.065,72.065,0,0,0,2,10.3c2.1-7.1,4.7-10.4,4.7-10.4a2.836,2.836,0,0,1,1-.9,1.445,1.445,0,0,1,.7-.2,2.375,2.375,0,0,1,1.2.3c.1,0,.1.1.2.1a9.016,9.016,0,0,1,.9,1,27.509,27.509,0,0,1,1.4,3c.8,2.2,1.5,5,1.5,5l2,8a57.731,57.731,0,0,0,2.7,8.1c3.1,7.1,7.8,9.1,7.8,9.1a17.828,17.828,0,0,0,7.5,2,14.819,14.819,0,0,0,7.2-1.5,19.425,19.425,0,0,0,6.3-5.1,35.781,35.781,0,0,0,2.8-4.5,53.984,53.984,0,0,0,4.3-11.6,64.059,64.059,0,0,0,1.6-7.6c.2-1.3.4-2.5.5-3.8a8.744,8.744,0,0,0-.1-3.6c-.1-.2-.1-.4-.2-.6a7.054,7.054,0,0,0-3.1-3.5,5.887,5.887,0,0,0-3.4-1Z" fill="url(#radial-gradient-17)"/>
        <path id="Path_253" data-name="Path 253" d="M63.5,7.6a8.807,8.807,0,0,0-1.7.2,35.06,35.06,0,0,1,3.3,6,7.173,7.173,0,0,1,.6,2.9,8.574,8.574,0,0,1-.5,2.7,11.355,11.355,0,0,1-1.5,2.3,5.131,5.131,0,0,1-2.3,1.5,8.082,8.082,0,0,1-2.7.5,6.2,6.2,0,0,1-3.5-1l-.7,2.7a33.014,33.014,0,0,1-2.2,6,22.11,22.11,0,0,1-1.8,3.4,4.442,4.442,0,0,1-1.9,1.7,2.769,2.769,0,0,1-.9.1,1.613,1.613,0,0,1-.9-.3,5.088,5.088,0,0,1-1.3-1.6,19.987,19.987,0,0,1-1-2.1c-.6-1.5-1.6-5.2-1.6-5.2l-1-3.9-1-3.9L40.2,17c-1.8-6.7-4.4-10-4.4-10A16.862,16.862,0,0,0,27.6.8,16.167,16.167,0,0,0,19.8.2a16.954,16.954,0,0,0-11,7.6,6.391,6.391,0,0,1,1.9.8,6.969,6.969,0,0,1,2,1.8A9.1,9.1,0,0,1,14,15a72.065,72.065,0,0,0,2,10.3c2.1-7.1,4.7-10.4,4.7-10.4a2.836,2.836,0,0,1,1-.9,1.445,1.445,0,0,1,.7-.2,2.375,2.375,0,0,1,1.2.3c.1,0,.1.1.2.1a9.016,9.016,0,0,1,.9,1,27.509,27.509,0,0,1,1.4,3c.8,2.2,1.5,5,1.5,5l2,8a57.731,57.731,0,0,0,2.7,8.1c3.1,7.1,7.8,9.1,7.8,9.1a17.828,17.828,0,0,0,7.5,2,14.819,14.819,0,0,0,7.2-1.5,19.425,19.425,0,0,0,6.3-5.1,35.781,35.781,0,0,0,2.8-4.5,53.984,53.984,0,0,0,4.3-11.6,64.059,64.059,0,0,0,1.6-7.6c.2-1.3.4-2.5.5-3.8a8.744,8.744,0,0,0-.1-3.6c-.1-.2-.1-.4-.2-.6a7.054,7.054,0,0,0-3.1-3.5,5.887,5.887,0,0,0-3.4-1Z" fill="url(#radial-gradient-18)"/>
        <path id="Path_254" data-name="Path 254" d="M63.5,7.6a8.807,8.807,0,0,0-1.7.2,35.06,35.06,0,0,1,3.3,6,7.173,7.173,0,0,1,.6,2.9,8.574,8.574,0,0,1-.5,2.7,11.355,11.355,0,0,1-1.5,2.3,5.131,5.131,0,0,1-2.3,1.5,8.082,8.082,0,0,1-2.7.5,6.2,6.2,0,0,1-3.5-1l-.7,2.7a33.014,33.014,0,0,1-2.2,6,22.11,22.11,0,0,1-1.8,3.4,4.442,4.442,0,0,1-1.9,1.7,2.769,2.769,0,0,1-.9.1,1.613,1.613,0,0,1-.9-.3,5.088,5.088,0,0,1-1.3-1.6,19.987,19.987,0,0,1-1-2.1c-.6-1.5-1.6-5.2-1.6-5.2l-1-3.9-1-3.9L40.2,17c-1.8-6.7-4.4-10-4.4-10A16.862,16.862,0,0,0,27.6.8,16.167,16.167,0,0,0,19.8.2a16.954,16.954,0,0,0-11,7.6,6.391,6.391,0,0,1,1.9.8,6.969,6.969,0,0,1,2,1.8A9.1,9.1,0,0,1,14,15a72.065,72.065,0,0,0,2,10.3c2.1-7.1,4.7-10.4,4.7-10.4a2.836,2.836,0,0,1,1-.9,1.445,1.445,0,0,1,.7-.2,2.375,2.375,0,0,1,1.2.3c.1,0,.1.1.2.1a9.016,9.016,0,0,1,.9,1,27.509,27.509,0,0,1,1.4,3c.8,2.2,1.5,5,1.5,5l2,8a57.731,57.731,0,0,0,2.7,8.1c3.1,7.1,7.8,9.1,7.8,9.1a17.828,17.828,0,0,0,7.5,2,14.819,14.819,0,0,0,7.2-1.5,19.425,19.425,0,0,0,6.3-5.1,35.781,35.781,0,0,0,2.8-4.5,53.984,53.984,0,0,0,4.3-11.6,64.059,64.059,0,0,0,1.6-7.6c.2-1.3.4-2.5.5-3.8a8.744,8.744,0,0,0-.1-3.6c-.1-.2-.1-.4-.2-.6a7.054,7.054,0,0,0-3.1-3.5,5.887,5.887,0,0,0-3.4-1Z" fill="url(#radial-gradient-19)"/>
        <path id="Path_255" data-name="Path 255" d="M63.5,7.6a8.807,8.807,0,0,0-1.7.2,35.06,35.06,0,0,1,3.3,6,7.173,7.173,0,0,1,.6,2.9,8.574,8.574,0,0,1-.5,2.7,11.355,11.355,0,0,1-1.5,2.3,5.131,5.131,0,0,1-2.3,1.5,8.082,8.082,0,0,1-2.7.5,6.2,6.2,0,0,1-3.5-1l-.7,2.7a33.014,33.014,0,0,1-2.2,6,22.11,22.11,0,0,1-1.8,3.4,4.442,4.442,0,0,1-1.9,1.7,2.769,2.769,0,0,1-.9.1,1.613,1.613,0,0,1-.9-.3,5.088,5.088,0,0,1-1.3-1.6,19.987,19.987,0,0,1-1-2.1c-.6-1.5-1.6-5.2-1.6-5.2l-1-3.9-1-3.9L40.2,17c-1.8-6.7-4.4-10-4.4-10A16.862,16.862,0,0,0,27.6.8,16.167,16.167,0,0,0,19.8.2a16.954,16.954,0,0,0-11,7.6,6.391,6.391,0,0,1,1.9.8,6.969,6.969,0,0,1,2,1.8A9.1,9.1,0,0,1,14,15a72.065,72.065,0,0,0,2,10.3c2.1-7.1,4.7-10.4,4.7-10.4a2.836,2.836,0,0,1,1-.9,1.445,1.445,0,0,1,.7-.2,2.375,2.375,0,0,1,1.2.3c.1,0,.1.1.2.1a9.016,9.016,0,0,1,.9,1,27.509,27.509,0,0,1,1.4,3c.8,2.2,1.5,5,1.5,5l2,8a57.731,57.731,0,0,0,2.7,8.1c3.1,7.1,7.8,9.1,7.8,9.1a17.828,17.828,0,0,0,7.5,2,14.819,14.819,0,0,0,7.2-1.5,19.425,19.425,0,0,0,6.3-5.1,35.781,35.781,0,0,0,2.8-4.5,53.984,53.984,0,0,0,4.3-11.6,64.059,64.059,0,0,0,1.6-7.6c.2-1.3.4-2.5.5-3.8a8.744,8.744,0,0,0-.1-3.6c-.1-.2-.1-.4-.2-.6a7.054,7.054,0,0,0-3.1-3.5,5.887,5.887,0,0,0-3.4-1Z" fill="url(#radial-gradient-20)"/>
        <path id="Path_256" data-name="Path 256" d="M63.5,7.6a8.807,8.807,0,0,0-1.7.2,35.06,35.06,0,0,1,3.3,6,7.173,7.173,0,0,1,.6,2.9,8.574,8.574,0,0,1-.5,2.7,11.355,11.355,0,0,1-1.5,2.3,5.131,5.131,0,0,1-2.3,1.5,8.082,8.082,0,0,1-2.7.5,6.2,6.2,0,0,1-3.5-1l-.7,2.7a33.014,33.014,0,0,1-2.2,6,22.11,22.11,0,0,1-1.8,3.4,4.442,4.442,0,0,1-1.9,1.7,2.769,2.769,0,0,1-.9.1,1.613,1.613,0,0,1-.9-.3,5.088,5.088,0,0,1-1.3-1.6,19.987,19.987,0,0,1-1-2.1c-.6-1.5-1.6-5.2-1.6-5.2l-1-3.9-1-3.9L40.2,17c-1.8-6.7-4.4-10-4.4-10A16.862,16.862,0,0,0,27.6.8,16.167,16.167,0,0,0,19.8.2a16.954,16.954,0,0,0-11,7.6,6.391,6.391,0,0,1,1.9.8,6.969,6.969,0,0,1,2,1.8A9.1,9.1,0,0,1,14,15a72.065,72.065,0,0,0,2,10.3c2.1-7.1,4.7-10.4,4.7-10.4a2.836,2.836,0,0,1,1-.9,1.445,1.445,0,0,1,.7-.2,2.375,2.375,0,0,1,1.2.3c.1,0,.1.1.2.1a9.016,9.016,0,0,1,.9,1,27.509,27.509,0,0,1,1.4,3c.8,2.2,1.5,5,1.5,5l2,8a57.731,57.731,0,0,0,2.7,8.1c3.1,7.1,7.8,9.1,7.8,9.1a17.828,17.828,0,0,0,7.5,2,14.819,14.819,0,0,0,7.2-1.5,19.425,19.425,0,0,0,6.3-5.1,35.781,35.781,0,0,0,2.8-4.5,53.984,53.984,0,0,0,4.3-11.6,64.059,64.059,0,0,0,1.6-7.6c.2-1.3.4-2.5.5-3.8a8.744,8.744,0,0,0-.1-3.6c-.1-.2-.1-.4-.2-.6a7.054,7.054,0,0,0-3.1-3.5,5.887,5.887,0,0,0-3.4-1Z" fill="url(#radial-gradient-21)"/>
        <path id="Path_257" data-name="Path 257" d="M63.5,7.6a8.807,8.807,0,0,0-1.7.2,35.06,35.06,0,0,1,3.3,6,7.173,7.173,0,0,1,.6,2.9,8.574,8.574,0,0,1-.5,2.7,11.355,11.355,0,0,1-1.5,2.3,5.131,5.131,0,0,1-2.3,1.5,8.082,8.082,0,0,1-2.7.5,6.2,6.2,0,0,1-3.5-1l-.7,2.7a33.014,33.014,0,0,1-2.2,6,22.11,22.11,0,0,1-1.8,3.4,4.442,4.442,0,0,1-1.9,1.7,2.769,2.769,0,0,1-.9.1,1.613,1.613,0,0,1-.9-.3,5.088,5.088,0,0,1-1.3-1.6,19.987,19.987,0,0,1-1-2.1c-.6-1.5-1.6-5.2-1.6-5.2l-1-3.9-1-3.9L40.2,17c-1.8-6.7-4.4-10-4.4-10A16.862,16.862,0,0,0,27.6.8,16.167,16.167,0,0,0,19.8.2a16.954,16.954,0,0,0-11,7.6,6.391,6.391,0,0,1,1.9.8,6.969,6.969,0,0,1,2,1.8A9.1,9.1,0,0,1,14,15a72.065,72.065,0,0,0,2,10.3c2.1-7.1,4.7-10.4,4.7-10.4a2.836,2.836,0,0,1,1-.9,1.445,1.445,0,0,1,.7-.2,2.375,2.375,0,0,1,1.2.3c.1,0,.1.1.2.1a9.016,9.016,0,0,1,.9,1,27.509,27.509,0,0,1,1.4,3c.8,2.2,1.5,5,1.5,5l2,8a57.731,57.731,0,0,0,2.7,8.1c3.1,7.1,7.8,9.1,7.8,9.1a17.828,17.828,0,0,0,7.5,2,14.819,14.819,0,0,0,7.2-1.5,19.425,19.425,0,0,0,6.3-5.1,35.781,35.781,0,0,0,2.8-4.5,53.984,53.984,0,0,0,4.3-11.6,64.059,64.059,0,0,0,1.6-7.6c.2-1.3.4-2.5.5-3.8a8.744,8.744,0,0,0-.1-3.6c-.1-.2-.1-.4-.2-.6a7.054,7.054,0,0,0-3.1-3.5,5.887,5.887,0,0,0-3.4-1Z" fill="url(#radial-gradient-22)"/>
        <path id="Path_258" data-name="Path 258" d="M63.5,7.6a8.807,8.807,0,0,0-1.7.2,35.06,35.06,0,0,1,3.3,6,7.173,7.173,0,0,1,.6,2.9,8.574,8.574,0,0,1-.5,2.7,11.355,11.355,0,0,1-1.5,2.3,5.131,5.131,0,0,1-2.3,1.5,8.082,8.082,0,0,1-2.7.5,6.2,6.2,0,0,1-3.5-1l-.7,2.7a33.014,33.014,0,0,1-2.2,6,22.11,22.11,0,0,1-1.8,3.4,4.442,4.442,0,0,1-1.9,1.7,2.769,2.769,0,0,1-.9.1,1.613,1.613,0,0,1-.9-.3,5.088,5.088,0,0,1-1.3-1.6,19.987,19.987,0,0,1-1-2.1c-.6-1.5-1.6-5.2-1.6-5.2l-1-3.9-1-3.9L40.2,17c-1.8-6.7-4.4-10-4.4-10A16.862,16.862,0,0,0,27.6.8,16.167,16.167,0,0,0,19.8.2a16.954,16.954,0,0,0-11,7.6,6.391,6.391,0,0,1,1.9.8,6.969,6.969,0,0,1,2,1.8A9.1,9.1,0,0,1,14,15a72.065,72.065,0,0,0,2,10.3c2.1-7.1,4.7-10.4,4.7-10.4a2.836,2.836,0,0,1,1-.9,1.445,1.445,0,0,1,.7-.2,2.375,2.375,0,0,1,1.2.3c.1,0,.1.1.2.1a9.016,9.016,0,0,1,.9,1,27.509,27.509,0,0,1,1.4,3c.8,2.2,1.5,5,1.5,5l2,8a57.731,57.731,0,0,0,2.7,8.1c3.1,7.1,7.8,9.1,7.8,9.1a17.828,17.828,0,0,0,7.5,2,14.819,14.819,0,0,0,7.2-1.5,19.425,19.425,0,0,0,6.3-5.1,35.781,35.781,0,0,0,2.8-4.5,53.984,53.984,0,0,0,4.3-11.6,64.059,64.059,0,0,0,1.6-7.6c.2-1.3.4-2.5.5-3.8a8.744,8.744,0,0,0-.1-3.6c-.1-.2-.1-.4-.2-.6a7.054,7.054,0,0,0-3.1-3.5,5.887,5.887,0,0,0-3.4-1Z" fill="url(#radial-gradient-23)"/>
        <path id="Path_259" data-name="Path 259" d="M63.5,7.6a8.807,8.807,0,0,0-1.7.2,35.06,35.06,0,0,1,3.3,6,7.173,7.173,0,0,1,.6,2.9,8.574,8.574,0,0,1-.5,2.7,11.355,11.355,0,0,1-1.5,2.3,5.131,5.131,0,0,1-2.3,1.5,8.082,8.082,0,0,1-2.7.5,6.2,6.2,0,0,1-3.5-1l-.7,2.7a33.014,33.014,0,0,1-2.2,6,22.11,22.11,0,0,1-1.8,3.4,4.442,4.442,0,0,1-1.9,1.7,2.769,2.769,0,0,1-.9.1,1.613,1.613,0,0,1-.9-.3,5.088,5.088,0,0,1-1.3-1.6,19.987,19.987,0,0,1-1-2.1c-.6-1.5-1.6-5.2-1.6-5.2l-1-3.9-1-3.9L40.2,17c-1.8-6.7-4.4-10-4.4-10A16.862,16.862,0,0,0,27.6.8,16.167,16.167,0,0,0,19.8.2a16.954,16.954,0,0,0-11,7.6,6.391,6.391,0,0,1,1.9.8,6.969,6.969,0,0,1,2,1.8A9.1,9.1,0,0,1,14,15a72.065,72.065,0,0,0,2,10.3c2.1-7.1,4.7-10.4,4.7-10.4a2.836,2.836,0,0,1,1-.9,1.445,1.445,0,0,1,.7-.2,2.375,2.375,0,0,1,1.2.3c.1,0,.1.1.2.1a9.016,9.016,0,0,1,.9,1,27.509,27.509,0,0,1,1.4,3c.8,2.2,1.5,5,1.5,5l2,8a57.731,57.731,0,0,0,2.7,8.1c3.1,7.1,7.8,9.1,7.8,9.1a17.828,17.828,0,0,0,7.5,2,14.819,14.819,0,0,0,7.2-1.5,19.425,19.425,0,0,0,6.3-5.1,35.781,35.781,0,0,0,2.8-4.5,53.984,53.984,0,0,0,4.3-11.6,64.059,64.059,0,0,0,1.6-7.6c.2-1.3.4-2.5.5-3.8a8.744,8.744,0,0,0-.1-3.6c-.1-.2-.1-.4-.2-.6a7.054,7.054,0,0,0-3.1-3.5,5.887,5.887,0,0,0-3.4-1Z" fill="url(#radial-gradient-24)"/>
        <path id="Path_260" data-name="Path 260" d="M63.5,7.6a8.807,8.807,0,0,0-1.7.2,35.06,35.06,0,0,1,3.3,6,7.173,7.173,0,0,1,.6,2.9,8.574,8.574,0,0,1-.5,2.7,11.355,11.355,0,0,1-1.5,2.3,5.131,5.131,0,0,1-2.3,1.5,8.082,8.082,0,0,1-2.7.5,6.2,6.2,0,0,1-3.5-1l-.7,2.7a33.014,33.014,0,0,1-2.2,6,22.11,22.11,0,0,1-1.8,3.4,4.442,4.442,0,0,1-1.9,1.7,2.769,2.769,0,0,1-.9.1,1.613,1.613,0,0,1-.9-.3,5.088,5.088,0,0,1-1.3-1.6,19.987,19.987,0,0,1-1-2.1c-.6-1.5-1.6-5.2-1.6-5.2l-1-3.9-1-3.9L40.2,17c-1.8-6.7-4.4-10-4.4-10A16.862,16.862,0,0,0,27.6.8,16.167,16.167,0,0,0,19.8.2a16.954,16.954,0,0,0-11,7.6,6.391,6.391,0,0,1,1.9.8,6.969,6.969,0,0,1,2,1.8A9.1,9.1,0,0,1,14,15a72.065,72.065,0,0,0,2,10.3c2.1-7.1,4.7-10.4,4.7-10.4a2.836,2.836,0,0,1,1-.9,1.445,1.445,0,0,1,.7-.2,2.375,2.375,0,0,1,1.2.3c.1,0,.1.1.2.1a9.016,9.016,0,0,1,.9,1,27.509,27.509,0,0,1,1.4,3c.8,2.2,1.5,5,1.5,5l2,8a57.731,57.731,0,0,0,2.7,8.1c3.1,7.1,7.8,9.1,7.8,9.1a17.828,17.828,0,0,0,7.5,2,14.819,14.819,0,0,0,7.2-1.5,19.425,19.425,0,0,0,6.3-5.1,35.781,35.781,0,0,0,2.8-4.5,53.984,53.984,0,0,0,4.3-11.6,64.059,64.059,0,0,0,1.6-7.6c.2-1.3.4-2.5.5-3.8a8.744,8.744,0,0,0-.1-3.6c-.1-.2-.1-.4-.2-.6a7.054,7.054,0,0,0-3.1-3.5,5.887,5.887,0,0,0-3.4-1Z" fill="url(#radial-gradient-25)"/>
        <path id="Path_261" data-name="Path 261" d="M63.5,7.6a8.807,8.807,0,0,0-1.7.2,35.06,35.06,0,0,1,3.3,6,7.173,7.173,0,0,1,.6,2.9,8.574,8.574,0,0,1-.5,2.7,11.355,11.355,0,0,1-1.5,2.3,5.131,5.131,0,0,1-2.3,1.5,8.082,8.082,0,0,1-2.7.5,6.2,6.2,0,0,1-3.5-1l-.7,2.7a33.014,33.014,0,0,1-2.2,6,22.11,22.11,0,0,1-1.8,3.4,4.442,4.442,0,0,1-1.9,1.7,2.769,2.769,0,0,1-.9.1,1.613,1.613,0,0,1-.9-.3,5.088,5.088,0,0,1-1.3-1.6,19.987,19.987,0,0,1-1-2.1c-.6-1.5-1.6-5.2-1.6-5.2l-1-3.9-1-3.9L40.2,17c-1.8-6.7-4.4-10-4.4-10A16.862,16.862,0,0,0,27.6.8,16.167,16.167,0,0,0,19.8.2a16.954,16.954,0,0,0-11,7.6,6.391,6.391,0,0,1,1.9.8,6.969,6.969,0,0,1,2,1.8A9.1,9.1,0,0,1,14,15a72.065,72.065,0,0,0,2,10.3c2.1-7.1,4.7-10.4,4.7-10.4a2.836,2.836,0,0,1,1-.9,1.445,1.445,0,0,1,.7-.2,2.375,2.375,0,0,1,1.2.3c.1,0,.1.1.2.1a9.016,9.016,0,0,1,.9,1,27.509,27.509,0,0,1,1.4,3c.8,2.2,1.5,5,1.5,5l2,8a57.731,57.731,0,0,0,2.7,8.1c3.1,7.1,7.8,9.1,7.8,9.1a17.828,17.828,0,0,0,7.5,2,14.819,14.819,0,0,0,7.2-1.5,19.425,19.425,0,0,0,6.3-5.1,35.781,35.781,0,0,0,2.8-4.5,53.984,53.984,0,0,0,4.3-11.6,64.059,64.059,0,0,0,1.6-7.6c.2-1.3.4-2.5.5-3.8a8.744,8.744,0,0,0-.1-3.6c-.1-.2-.1-.4-.2-.6a7.054,7.054,0,0,0-3.1-3.5,5.887,5.887,0,0,0-3.4-1Z" fill="url(#radial-gradient-26)"/>
        <path id="Path_262" data-name="Path 262" d="M63.5,7.6a8.807,8.807,0,0,0-1.7.2,35.06,35.06,0,0,1,3.3,6,7.173,7.173,0,0,1,.6,2.9,8.574,8.574,0,0,1-.5,2.7,11.355,11.355,0,0,1-1.5,2.3,5.131,5.131,0,0,1-2.3,1.5,8.082,8.082,0,0,1-2.7.5,6.2,6.2,0,0,1-3.5-1l-.7,2.7a33.014,33.014,0,0,1-2.2,6,22.11,22.11,0,0,1-1.8,3.4,4.442,4.442,0,0,1-1.9,1.7,2.769,2.769,0,0,1-.9.1,1.613,1.613,0,0,1-.9-.3,5.088,5.088,0,0,1-1.3-1.6,19.987,19.987,0,0,1-1-2.1c-.6-1.5-1.6-5.2-1.6-5.2l-1-3.9-1-3.9L40.2,17c-1.8-6.7-4.4-10-4.4-10A16.862,16.862,0,0,0,27.6.8,16.167,16.167,0,0,0,19.8.2a16.954,16.954,0,0,0-11,7.6,6.391,6.391,0,0,1,1.9.8,6.969,6.969,0,0,1,2,1.8A9.1,9.1,0,0,1,14,15a72.065,72.065,0,0,0,2,10.3c2.1-7.1,4.7-10.4,4.7-10.4a2.836,2.836,0,0,1,1-.9,1.445,1.445,0,0,1,.7-.2,2.375,2.375,0,0,1,1.2.3c.1,0,.1.1.2.1a9.016,9.016,0,0,1,.9,1,27.509,27.509,0,0,1,1.4,3c.8,2.2,1.5,5,1.5,5l2,8a57.731,57.731,0,0,0,2.7,8.1c3.1,7.1,7.8,9.1,7.8,9.1a17.828,17.828,0,0,0,7.5,2,14.819,14.819,0,0,0,7.2-1.5,19.425,19.425,0,0,0,6.3-5.1,35.781,35.781,0,0,0,2.8-4.5,53.984,53.984,0,0,0,4.3-11.6,64.059,64.059,0,0,0,1.6-7.6c.2-1.3.4-2.5.5-3.8a8.744,8.744,0,0,0-.1-3.6c-.1-.2-.1-.4-.2-.6a7.054,7.054,0,0,0-3.1-3.5,5.887,5.887,0,0,0-3.4-1Z" fill="url(#radial-gradient-27)"/>
        <path id="Path_263" data-name="Path 263" d="M63.5,7.6a8.807,8.807,0,0,0-1.7.2,35.06,35.06,0,0,1,3.3,6,7.173,7.173,0,0,1,.6,2.9,8.574,8.574,0,0,1-.5,2.7,11.355,11.355,0,0,1-1.5,2.3,5.131,5.131,0,0,1-2.3,1.5,8.082,8.082,0,0,1-2.7.5,6.2,6.2,0,0,1-3.5-1l-.7,2.7a33.014,33.014,0,0,1-2.2,6,22.11,22.11,0,0,1-1.8,3.4,4.442,4.442,0,0,1-1.9,1.7,2.769,2.769,0,0,1-.9.1,1.613,1.613,0,0,1-.9-.3,5.088,5.088,0,0,1-1.3-1.6,19.987,19.987,0,0,1-1-2.1c-.6-1.5-1.6-5.2-1.6-5.2l-1-3.9-1-3.9L40.2,17c-1.8-6.7-4.4-10-4.4-10A16.862,16.862,0,0,0,27.6.8,16.167,16.167,0,0,0,19.8.2a16.954,16.954,0,0,0-11,7.6,6.391,6.391,0,0,1,1.9.8,6.969,6.969,0,0,1,2,1.8A9.1,9.1,0,0,1,14,15a72.065,72.065,0,0,0,2,10.3c2.1-7.1,4.7-10.4,4.7-10.4a2.836,2.836,0,0,1,1-.9,1.445,1.445,0,0,1,.7-.2,2.375,2.375,0,0,1,1.2.3c.1,0,.1.1.2.1a9.016,9.016,0,0,1,.9,1,27.509,27.509,0,0,1,1.4,3c.8,2.2,1.5,5,1.5,5l2,8a57.731,57.731,0,0,0,2.7,8.1c3.1,7.1,7.8,9.1,7.8,9.1a17.828,17.828,0,0,0,7.5,2,14.819,14.819,0,0,0,7.2-1.5,19.425,19.425,0,0,0,6.3-5.1,35.781,35.781,0,0,0,2.8-4.5,53.984,53.984,0,0,0,4.3-11.6,64.059,64.059,0,0,0,1.6-7.6c.2-1.3.4-2.5.5-3.8a8.744,8.744,0,0,0-.1-3.6c-.1-.2-.1-.4-.2-.6a7.054,7.054,0,0,0-3.1-3.5,5.887,5.887,0,0,0-3.4-1Z" fill="url(#linear-gradient-8)"/>
      </g>
    </g>
  </g>
</svg>
