<?xml version="1.0" encoding="UTF-8"?> <svg xmlns="http://www.w3.org/2000/svg" width="130" height="122" viewBox="0 0 130 122"><g id="Group_214" data-name="Group 214" transform="translate(-909 -10028)"><path id="Path_205" data-name="Path 205" d="M6.373,0H123.627C127.147,0,130,3.793,130,8.472V113.528c0,4.679-2.853,8.472-6.373,8.472H6.373C2.853,122,0,118.207,0,113.528V8.472C0,3.793,2.853,0,6.373,0Z" transform="translate(909 10028)" fill="#00cae6"></path><g id="Group_228" data-name="Group 228" transform="translate(949.036 10038)"><g id="Group_224" data-name="Group 224" transform="translate(-20.036 30)"><g id="_1280px-Zapier_logo.svg" data-name="1280px-Zapier_logo.svg"><path id="Path_198" data-name="Path 198" d="M705.051-585.8l-.267.028v3.334L703.6-583.62l-1.189-1.182-.415.345a4.489,4.489,0,0,0-.9.992c-.042.063.274.429,1.09,1.245l1.154,1.153h-3.257l-.042.155a8.1,8.1,0,0,0,0,1.653l.042.162h3.257l-1.146,1.146a16.169,16.169,0,0,0-1.14,1.2,4.61,4.61,0,0,0,.964,1.076l.38.331,1.2-1.2,1.189-1.189v3.32l.218.049a6.586,6.586,0,0,0,1.491,0l.26-.049v-3.25l1.154,1.154,1.154,1.153.281-.218a5.744,5.744,0,0,0,1.069-1.161,13.193,13.193,0,0,0-1.139-1.224l-1.146-1.146h3.32l.042-.493a7.7,7.7,0,0,0,0-.984l-.042-.493h-3.32l1.175-1.182,1.182-1.175-.38-.422a7.194,7.194,0,0,0-.71-.7l-.331-.274-1.154,1.154-1.154,1.154v-3.25l-.429-.049A5.919,5.919,0,0,0,705.051-585.8Zm1.6,4.467a.486.486,0,0,1,.359.373,4.39,4.39,0,0,1,.014,1.744c-.07.3-.105.338-.373.415a4.417,4.417,0,0,1-1.878-.028c-.232-.1-.267-.155-.338-.478a3.379,3.379,0,0,1,.141-1.927A3.311,3.311,0,0,1,706.654-581.334Z" transform="translate(-650.762 585.838)" fill="#fff"></path><path id="Path_199" data-name="Path 199" d="M238.822-375.649a22.055,22.055,0,0,0-3.637.6l-.549.148v.408a5.7,5.7,0,0,0,.352,1.766c.253.682.2.661,1.161.415a12.618,12.618,0,0,1,3.412-.436,5.662,5.662,0,0,1,1.653.148c1.681.443,2.293,1.273,2.406,3.236l.042.8-.274-.042c-.148-.028-1-.063-1.892-.091a12.178,12.178,0,0,0-2.413.07c-3.573.528-5.7,2.5-5.895,5.458a5.131,5.131,0,0,0,3.419,5.529,14.2,14.2,0,0,0,5.1.521,25.805,25.805,0,0,0,3.96-.542l1.358-.26-.021-6.4-.021-6.408-.19-.675c-.654-2.385-2.117-3.637-4.8-4.108A19.478,19.478,0,0,0,238.822-375.649Zm3.96,9.749.858.077v5.592l-.612.12a17.534,17.534,0,0,1-4.094.077,2.619,2.619,0,0,1-2-1.449,2.071,2.071,0,0,1-.225-1.3,2.635,2.635,0,0,1,.506-1.892,3.817,3.817,0,0,1,2.377-1.231A17.762,17.762,0,0,1,242.782-365.9Z" transform="translate(-216.77 390.451)" fill="#fff"></path><path id="Path_200" data-name="Path 200" d="M489.526-375.7a6.06,6.06,0,0,0-4,2.455l-.176.274-.162-1.182c-.084-.647-.169-1.189-.183-1.2a4.671,4.671,0,0,0-.619-.105,9.221,9.221,0,0,0-2.167.049l-.218.042v25.92l.429.049a20.96,20.96,0,0,0,2.659,0l.429-.049v-4.03c0-2.455.028-4.038.063-4.038s.288.049.549.1a12.939,12.939,0,0,0,6.12-.352,8.068,8.068,0,0,0,5.177-5.515,10.615,10.615,0,0,0,.429-3.728,11.27,11.27,0,0,0-.155-2.532c-.506-2.694-1.773-4.607-3.644-5.515A7.9,7.9,0,0,0,489.526-375.7Zm1.646,3.1a3.658,3.658,0,0,1,2.617,2.687,8.157,8.157,0,0,1,.415,3.144,7.346,7.346,0,0,1-.506,3.229,4.848,4.848,0,0,1-3.475,3.222,5.622,5.622,0,0,1-1.857.155,6.862,6.862,0,0,1-2.476-.3l-.373-.113v-3.834c0-2.159.035-4.052.07-4.326A4.418,4.418,0,0,1,491.172-372.6Z" transform="translate(-448.096 390.567)" fill="#fff"></path><path id="Path_201" data-name="Path 201" d="M875.45-375.738a7.535,7.535,0,0,0-6.113,4.192,12.944,12.944,0,0,0-.492,9.053,7.2,7.2,0,0,0,3.714,4.291,9.621,9.621,0,0,0,3.82.95,21.254,21.254,0,0,0,3.545-.106,13.5,13.5,0,0,0,2.722-.675l.38-.141-.049-.366a8.886,8.886,0,0,0-.436-1.941c-.1-.253-.19-.464-.2-.471a2.892,2.892,0,0,0-.535.155,11.5,11.5,0,0,1-4.417.647,5.977,5.977,0,0,1-2.856-.57A4.724,4.724,0,0,1,872-365l-.049-.619h12.035l.049-.535c.028-.3.035-1.126.014-1.85a8.692,8.692,0,0,0-.211-2.047,7.752,7.752,0,0,0-1.372-3.074C880.965-375.14,878.5-376.061,875.45-375.738Zm2.181,2.877a3.541,3.541,0,0,1,2.04,1.372,5.633,5.633,0,0,1,.95,2.891v.38h-8.645l.035-.232a6.168,6.168,0,0,1,1.407-3.348A4.421,4.421,0,0,1,877.631-372.861Z" transform="translate(-807.185 390.575)" fill="#fff"></path><path id="Path_202" data-name="Path 202" d="M1146.774-371.9c-.056.007-.253.042-.436.063l-.337.042v17.775l.478.056a15.554,15.554,0,0,0,2.561,0l.471-.049.021-5.29.028-5.29.183-.675c.661-2.413,2.146-3.5,4.7-3.425l.844.021.057-.246c.028-.134.049-.823.049-1.533,0-1.062-.021-1.294-.106-1.358a5.6,5.6,0,0,0-1.231-.042,4.474,4.474,0,0,0-1.716.225,6.1,6.1,0,0,0-1.1.535,8.076,8.076,0,0,0-1.709,1.632c-.2.31-.3.246-.3-.2a14.539,14.539,0,0,0-.281-2.075A5.77,5.77,0,0,0,1146.774-371.9Z" transform="translate(-1065.39 386.985)" fill="#fff"></path><path id="Path_203" data-name="Path 203" d="M1.027-369.74a14.739,14.739,0,0,0,0,2.23l.049.324,4.066.014,4.066.021-4.6,7.168C2.075-356.038,0-352.774,0-352.732a1.474,1.474,0,0,0,.077.31l.077.218H14l.049-.2a13.9,13.9,0,0,0,0-2.42l-.049-.2-4.361-.014-4.354-.021.317-.492c.992-1.547,2.2-3.419,6.865-10.621,1.1-1.7,2.033-3.158,2.075-3.236a.44.44,0,0,0-.021-.373l-.1-.225H1.076Z" transform="translate(0 385.182)" fill="#fff"></path><path id="Path_204" data-name="Path 204" d="M734.549-369.88a9.4,9.4,0,0,0-.049,1.252,9.177,9.177,0,0,0,.049,1.245c.049.113.169.127,1.182.127h1.125v15.046l.408.049a15.625,15.625,0,0,0,2.568,0l.4-.049V-370h-2.813C734.8-370,734.6-369.993,734.549-369.88Z" transform="translate(-682.835 385.182)" fill="#fff"></path></g></g></g></g></svg> 