<svg xmlns="http://www.w3.org/2000/svg" xmlns:xlink="http://www.w3.org/1999/xlink" width="130" height="122" viewBox="0 0 130 122"><defs><clipPath id="clip-path"><rect id="Rectangle_6" data-name="Rectangle 6" width="90" height="20.225" transform="translate(782 10101)" fill="#fff"></rect></clipPath><clipPath id="clip-path-2"><rect id="Rectangle_1" data-name="Rectangle 1" width="64.238" height="38" transform="translate(894 10025.429)" fill="#fff"></rect></clipPath></defs><g id="zoom-integration-addon-icon" transform="translate(-909 -10028)"><path id="Path_205" data-name="Path 205" d="M6.373,0H123.627C127.147,0,130,3.793,130,8.472V113.528c0,4.679-2.853,8.472-6.373,8.472H6.373C2.853,122,0,118.207,0,113.528V8.472C0,3.793,2.853,0,6.373,0Z" transform="translate(909 10028)" fill="#00cae6"></path><g id="Group_1" data-name="Group 1" transform="translate(0 2)"><g id="Mask_Group_2" data-name="Mask Group 2" transform="translate(147)" clip-path="url(#clip-path)"><g id="Zoom_-_White" data-name="Zoom - White" transform="translate(782 10101)"><g id="Group_4" data-name="Group 4"><path id="Path_3" data-name="Path 3" d="M173.267,82.958A10.065,10.065,0,0,0,166.112,80h0a10.112,10.112,0,1,0,7.154,2.958ZM170.41,94.41a6.042,6.042,0,1,1,1.782-4.285,6.06,6.06,0,0,1-1.782,4.285Z" transform="translate(-136.787 -80)" fill="#fff" fill-rule="evenodd"></path><path id="Path_4" data-name="Path 4" d="M257.267,82.958a10.065,10.065,0,1,0,2.986,7.154,10.118,10.118,0,0,0-2.986-7.154ZM254.41,94.41a6.042,6.042,0,1,1,1.782-4.285,6.06,6.06,0,0,1-1.782,4.285Z" transform="translate(-199.551 -80)" fill="#fff" fill-rule="evenodd"></path><path id="Path_5" data-name="Path 5" d="M84.045,100.174l1.011.051h15.169l-.051-1.011a3.11,3.11,0,0,0-2.983-2.983L96.18,96.18h-9.1L99.213,84.045l-.051-1.011a3.056,3.056,0,0,0-2.983-2.983L95.169,80H80l.051,1.011a3.148,3.148,0,0,0,2.983,2.983l1.011.051h9.1L81.011,96.18l.051,1.011a3.092,3.092,0,0,0,2.983,2.983Z" transform="translate(-80 -80)" fill="#fff" fill-rule="evenodd"></path><path id="Path_6" data-name="Path 6" d="M335.579,86.067a4.434,4.434,0,0,1,.506,2.022l.051,1.011v7.08l.051,1.011a3.11,3.11,0,0,0,2.983,2.983l1.011.051V89.1l.051-1.011a4.541,4.541,0,0,1,.506-2.048,4,4,0,0,1,3.489-2,4.068,4.068,0,0,1,3.514,2.022,4.192,4.192,0,0,1,.48,2.022l.051,1.011V96.18l.051,1.011a3.092,3.092,0,0,0,2.983,2.983l1.011.051V88.09a8.1,8.1,0,0,0-14.157-5.36A8.1,8.1,0,0,0,332.09,80a7.982,7.982,0,0,0-4.525,1.39A5.548,5.548,0,0,0,324,80v20.225l1.011-.051a3.056,3.056,0,0,0,2.983-2.983l.051-1.011V89.1l.051-1.011a4.353,4.353,0,0,1,.506-2.022,4.02,4.02,0,0,1,6.978,0Z" transform="translate(-262.315 -80)" fill="#fff" fill-rule="evenodd"></path></g></g></g><g id="Mask_Group_1" data-name="Mask Group 1" transform="translate(48 25.571)" clip-path="url(#clip-path-2)"><g id="zoom-app-icon" transform="translate(895.58 10026.293)"><path id="Path_1" data-name="Path 1" d="M260.031,0h29.8a10.192,10.192,0,0,1,9.9,10.461V30.777a4.976,4.976,0,0,1-4.834,5.107h-27.15c-6.107,0-11.058-5.231-11.058-11.683V3.534A3.444,3.444,0,0,1,260.031,0Z" transform="translate(-256.69)" fill="#fff"></path><path id="Path_2" data-name="Path 2" d="M1013.807,499.525v31.991a1.932,1.932,0,0,1-1.041,1.756,1.74,1.74,0,0,1-1.945-.266l-10.58-9.459a1.987,1.987,0,0,1-.652-1.49V509.335a2.015,2.015,0,0,1,.624-1.469l10.6-9.81a1.74,1.74,0,0,1,1.945-.283A1.93,1.93,0,0,1,1013.807,499.525Z" transform="translate(-953.867 -497.581)" fill="#fff"></path></g></g></g></g></svg>