<svg xmlns="http://www.w3.org/2000/svg" width="20" height="14" viewBox="0 0 20 14">
  <g id="full-payment-i" transform="translate(-180.5 -27)">
    <path id="pay-locally-icon" d="M142.5,140h15a2.565,2.565,0,0,1,2.5,2.625v8.75A2.565,2.565,0,0,1,157.5,154h-15a2.565,2.565,0,0,1-2.5-2.625v-8.75A2.565,2.565,0,0,1,142.5,140Zm0,1.75a.855.855,0,0,0-.833.875v8.75a.855.855,0,0,0,.833.875h15a.855.855,0,0,0,.833-.875v-8.75a.855.855,0,0,0-.833-.875Z" transform="translate(40.5 -113)" fill="#bec3c8" fill-rule="evenodd"/>
    <circle id="Ellipse_8175" data-name="Ellipse 8175" cx="3" cy="3" r="3" transform="translate(187.5 31)" fill="none" stroke="#bec3c8" stroke-width="1.3"/>
  </g>
</svg>
