<svg xmlns="http://www.w3.org/2000/svg" width="20" height="14" viewBox="0 0 20 14">
  <g id="partial-payment-i" transform="translate(-181 -27.333)">
    <path id="Path_27111" data-name="Path 27111" d="M-5735.5-5747.667h-5.5v-1.75h5.5a.856.856,0,0,0,.833-.875v-8.75a.856.856,0,0,0-.833-.875h-5.5v-1.751h5.5a2.568,2.568,0,0,1,2.5,2.626v8.75A2.567,2.567,0,0,1-5735.5-5747.667Zm-9.5,0h-5.5a2.567,2.567,0,0,1-2.5-2.625v-8.75a2.568,2.568,0,0,1,2.5-2.626h5.5v1.751h-5.5a.856.856,0,0,0-.833.875v8.75a.856.856,0,0,0,.833.875h5.5v1.749Z" transform="translate(5934 5789)" fill="#bec3c8"/>
    <path id="Path_27110" data-name="Path 27110" d="M-14080.624-4277.752a2.706,2.706,0,0,0,1.871-2.5,2.725,2.725,0,0,0-1.871-2.5V-4284a3.709,3.709,0,0,1,3.116,3.749,3.707,3.707,0,0,1-3.116,3.745Zm-4.377-2.5a3.708,3.708,0,0,1,3.118-3.749v1.245a2.711,2.711,0,0,0-1.874,2.5,2.728,2.728,0,0,0,1.874,2.5v1.245A3.706,3.706,0,0,1-14085-4280.252Z" transform="translate(14272.301 4314.586)" fill="#bec3c8"/>
  </g>
</svg>
