<?xml version="1.0" encoding="UTF-8"?> <svg xmlns="http://www.w3.org/2000/svg" xmlns:xlink="http://www.w3.org/1999/xlink" width="137" height="137" viewBox="0 0 137 137"><defs><linearGradient id="linear-gradient" x1="0.6" x2="0.14" y2="0.9" gradientUnits="objectBoundingBox"><stop offset="0" stop-color="#db3157"></stop><stop offset="1" stop-color="#3f3278"></stop></linearGradient></defs><g id="elem-fes-builder" transform="translate(-897 -6216)"><g id="Group_156" data-name="Group 156" transform="translate(323 -3)"><g id="Group_146" data-name="Group 146" transform="translate(-267.5 3865.5)"><rect id="Rectangle_65" data-name="Rectangle 65" width="120" height="120" rx="2" transform="translate(841.5 2353.5)" fill="#baf0fc"></rect><path id="Rectangle_69" data-name="Rectangle 69" d="M2,0H118a2,2,0,0,1,2,2V26a0,0,0,0,1,0,0H0a0,0,0,0,1,0,0V2A2,2,0,0,1,2,0Z" transform="translate(841.5 2353.5)" fill="#00cae6"></path><path id="Path_144" data-name="Path 144" d="M120,0" transform="translate(841.5 2379.587)" fill="none" stroke="#000" stroke-linecap="round" stroke-width="1"></path><g id="Group_150" data-name="Group 150" transform="translate(857.5 2363.5)"><g id="Group_40" data-name="Group 40"><path id="Path_49" data-name="Path 49" d="M1038.826,2451a2.826,2.826,0,1,0,2.826,2.826,2.828,2.828,0,0,0-2.826-2.826Z" transform="translate(-1036 -2451.002)" fill="#fff"></path></g><g id="Group_41" data-name="Group 41" transform="translate(11.304)"><path id="Path_50" data-name="Path 50" d="M1040.826,2451a2.826,2.826,0,1,0,2.826,2.826,2.828,2.828,0,0,0-2.826-2.826Z" transform="translate(-1038 -2451.002)" fill="#fff"></path></g><g id="Group_42" data-name="Group 42" transform="translate(22.609)"><path id="Path_51" data-name="Path 51" d="M1042.826,2451a2.826,2.826,0,1,0,2.826,2.826,2.828,2.828,0,0,0-2.826-2.826Z" transform="translate(-1040 -2451.002)" fill="#fff"></path></g></g></g></g><g id="Group_153" data-name="Group 153" transform="translate(146.371 3890.5)"><g id="Group_238" data-name="Group 238" transform="translate(789.629 2361.5)"><rect id="Rectangle_72" data-name="Rectangle 72" width="42" height="19.66" rx="3" fill="#fff"></rect><g id="Group_237" data-name="Group 237" transform="translate(9.207 2)"><path id="Path_147" data-name="Path 147" d="M417.445,1462.432l-6.982-11.932-5.5,8.588-5.59-3.959-5.7,7.3Z" transform="translate(-393.667 -1446.771)" fill="#00cae6"></path><ellipse id="Ellipse_23" data-name="Ellipse 23" cx="2.983" cy="2.983" rx="2.983" ry="2.983" transform="translate(1.007)" fill="#00cae6"></ellipse></g></g><g id="Group_239" data-name="Group 239" transform="translate(-114.48 -18.739)"><rect id="Rectangle_66" data-name="Rectangle 66" width="42" height="20" transform="translate(904.109 2414.239)" fill="#00cae6"></rect><rect id="Rectangle_70" data-name="Rectangle 70" width="42" height="5" transform="translate(904.109 2405.239)" fill="#00cae6"></rect><rect id="Rectangle_67" data-name="Rectangle 67" width="16" height="6" rx="3" transform="translate(904.109 2438.239)" fill="#00cae6"></rect></g></g><g id="Group_162" data-name="Group 162" transform="translate(351 -57)"><rect id="Rectangle_71" data-name="Rectangle 71" width="40" height="40" rx="2" transform="translate(643 6370)" fill="url(#linear-gradient)"></rect><g id="Group_148" data-name="Group 148" transform="translate(654.25 6380)"><rect id="Rectangle_63" data-name="Rectangle 63" width="3.775" height="18.876" transform="translate(0 0)" fill="#fff"></rect><rect id="Rectangle_64" data-name="Rectangle 64" width="3.775" height="11.2" transform="translate(7.55 3.775) rotate(-90)" fill="#fff"></rect><rect id="Rectangle_64-2" data-name="Rectangle 64" width="3.775" height="11.2" transform="translate(7.55 11.326) rotate(-90)" fill="#fff"></rect><rect id="Rectangle_64-3" data-name="Rectangle 64" width="3.775" height="11.2" transform="translate(7.55 18.876) rotate(-90)" fill="#fff"></rect></g></g></g></svg> 