<svg xmlns="http://www.w3.org/2000/svg" width="140" height="132.751" viewBox="0 0 140 132.751"><g id="seat-addon-icon" transform="translate(-1772 -2133.186)"><g id="Group_45" data-name="Group 45" transform="translate(1809.039 2133.186)"><path id="Path_47" data-name="Path 47" d="M700.75,272.738a25.454,25.454,0,1,1,49.519.006c-.437,1.861-5.5,17.336-5.5,17.336H706.093Z" transform="translate(-692.8 -241.5)" fill="#baf0fc"></path><line id="Line_30" data-name="Line 30" x2="3.209" y2="3.21" transform="translate(28.372 21.379)" fill="none" stroke="#fff" stroke-linecap="round" stroke-linejoin="round" stroke-width="1.5"></line><line id="Line_31" data-name="Line 31" y1="3.306" x2="3.308" transform="translate(28.372 26.585)" fill="none" stroke="#fff" stroke-linecap="round" stroke-linejoin="round" stroke-width="1.5"></line><line id="Line_32" data-name="Line 32" y2="5.674" transform="translate(14.186 59.582)" fill="none" stroke="#00cae6" stroke-linecap="round" stroke-linejoin="round" stroke-width="3"></line><line id="Line_33" data-name="Line 33" y2="5.674" transform="translate(51.07 59.582)" fill="none" stroke="#00cae6" stroke-linecap="round" stroke-linejoin="round" stroke-width="3"></line><path id="Path_44" data-name="Path 44" d="M753.408,269.723a5.584,5.584,0,0,1-5.674,5.57H705.174a5.586,5.586,0,0,1-5.674-5.57V265.3a5.668,5.668,0,0,1,3.986-5.413c5.376-1.677,15.176-4.352,22.968-4.352s17.591,2.676,22.967,4.352a5.672,5.672,0,0,1,3.986,5.413Z" transform="translate(-693.826 -215.711)" fill="#00cae6"></path><path id="Path_45" data-name="Path 45" d="M725.591,269.161a8.525,8.525,0,1,0-10.747-5.734" transform="translate(-666.267 -221.226)" fill="#00cae6"></path><path id="Path_46" data-name="Path 46" d="M714.18,263.427a8.509,8.509,0,1,0-10.748,5.734" transform="translate(-697.5 -221.226)" fill="#00cae6"></path><line id="Line_34" data-name="Line 34" x2="3.305" y2="3.303" transform="translate(33.579 26.588)" fill="none" stroke="#fff" stroke-linecap="round" stroke-linejoin="round" stroke-width="1.5"></line><line id="Line_35" data-name="Line 35" y1="3.217" x2="3.211" transform="translate(33.673 21.379)" fill="none" stroke="#fff" stroke-linecap="round" stroke-linejoin="round" stroke-width="1.5"></line><path id="Path_48" data-name="Path 48" d="M711.337,251.419a1.419,1.419,0,0,1-1.418,1.419h0a1.419,1.419,0,0,1-1.419-1.419h0A1.419,1.419,0,0,1,709.919,250h0a1.419,1.419,0,0,1,1.418,1.419Z" transform="translate(-677.29 -225.883)" fill="none" stroke="#fff" stroke-linecap="round" stroke-linejoin="round" stroke-width="1.5"></path></g><g id="Group_46" data-name="Group 46" transform="translate(1772 2199.181)"><g id="Group_34" data-name="Group 34" transform="translate(74.743)"><path id="Path_47-2" data-name="Path 47" d="M700.75,272.738a25.454,25.454,0,1,1,49.519.006c-.437,1.861-5.5,17.336-5.5,17.336H706.093Z" transform="translate(-692.8 -241.5)" fill="#baf0fc"></path><line id="Line_30-2" data-name="Line 30" x2="3.209" y2="3.21" transform="translate(28.372 21.379)" fill="none" stroke="#fff" stroke-linecap="round" stroke-linejoin="round" stroke-width="1.5"></line><line id="Line_31-2" data-name="Line 31" y1="3.306" x2="3.308" transform="translate(28.372 26.585)" fill="none" stroke="#fff" stroke-linecap="round" stroke-linejoin="round" stroke-width="1.5"></line><line id="Line_32-2" data-name="Line 32" y2="5.674" transform="translate(14.186 59.582)" fill="none" stroke="#00cae6" stroke-linecap="round" stroke-linejoin="round" stroke-width="3"></line><line id="Line_33-2" data-name="Line 33" y2="5.674" transform="translate(51.07 59.582)" fill="none" stroke="#00cae6" stroke-linecap="round" stroke-linejoin="round" stroke-width="3"></line><path id="Path_44-2" data-name="Path 44" d="M753.408,269.723a5.584,5.584,0,0,1-5.674,5.57H705.174a5.586,5.586,0,0,1-5.674-5.57V265.3a5.668,5.668,0,0,1,3.986-5.413c5.376-1.677,15.176-4.352,22.968-4.352s17.591,2.676,22.967,4.352a5.672,5.672,0,0,1,3.986,5.413Z" transform="translate(-693.826 -215.711)" fill="#00cae6"></path><path id="Path_45-2" data-name="Path 45" d="M725.591,269.161a8.525,8.525,0,1,0-10.747-5.734" transform="translate(-666.267 -221.226)" fill="#00cae6"></path><path id="Path_46-2" data-name="Path 46" d="M714.18,263.427a8.509,8.509,0,1,0-10.748,5.734" transform="translate(-697.5 -221.226)" fill="#00cae6"></path><line id="Line_34-2" data-name="Line 34" x2="3.305" y2="3.303" transform="translate(33.579 26.588)" fill="none" stroke="#fff" stroke-linecap="round" stroke-linejoin="round" stroke-width="1.5"></line><line id="Line_35-2" data-name="Line 35" y1="3.217" x2="3.211" transform="translate(33.673 21.379)" fill="none" stroke="#fff" stroke-linecap="round" stroke-linejoin="round" stroke-width="1.5"></line><path id="Path_48-2" data-name="Path 48" d="M711.337,251.419a1.419,1.419,0,0,1-1.418,1.419h0a1.419,1.419,0,0,1-1.419-1.419h0A1.419,1.419,0,0,1,709.919,250h0a1.419,1.419,0,0,1,1.418,1.419Z" transform="translate(-677.29 -225.883)" fill="none" stroke="#fff" stroke-linecap="round" stroke-linejoin="round" stroke-width="1.5"></path></g><g id="Group_35" data-name="Group 35"><path id="Path_47-3" data-name="Path 47" d="M700.75,272.738a25.454,25.454,0,1,1,49.519.006c-.437,1.861-5.5,17.336-5.5,17.336H706.093Z" transform="translate(-692.8 -241.5)" fill="#baf0fc"></path><line id="Line_30-3" data-name="Line 30" x2="3.209" y2="3.21" transform="translate(28.372 21.379)" fill="none" stroke="#fff" stroke-linecap="round" stroke-linejoin="round" stroke-width="1.5"></line><line id="Line_31-3" data-name="Line 31" y1="3.306" x2="3.308" transform="translate(28.372 26.585)" fill="none" stroke="#fff" stroke-linecap="round" stroke-linejoin="round" stroke-width="1.5"></line><line id="Line_32-3" data-name="Line 32" y2="5.674" transform="translate(14.186 59.582)" fill="none" stroke="#00cae6" stroke-linecap="round" stroke-linejoin="round" stroke-width="3"></line><line id="Line_33-3" data-name="Line 33" y2="5.674" transform="translate(51.07 59.582)" fill="none" stroke="#00cae6" stroke-linecap="round" stroke-linejoin="round" stroke-width="3"></line><path id="Path_44-3" data-name="Path 44" d="M753.408,269.723a5.584,5.584,0,0,1-5.674,5.57H705.174a5.586,5.586,0,0,1-5.674-5.57V265.3a5.668,5.668,0,0,1,3.986-5.413c5.376-1.677,15.176-4.352,22.968-4.352s17.591,2.676,22.967,4.352a5.672,5.672,0,0,1,3.986,5.413Z" transform="translate(-693.826 -215.711)" fill="#00cae6"></path><path id="Path_45-3" data-name="Path 45" d="M725.591,269.161a8.525,8.525,0,1,0-10.747-5.734" transform="translate(-666.267 -221.226)" fill="#00cae6"></path><path id="Path_46-3" data-name="Path 46" d="M714.18,263.427a8.509,8.509,0,1,0-10.748,5.734" transform="translate(-697.5 -221.226)" fill="#00cae6"></path><line id="Line_34-3" data-name="Line 34" x2="3.305" y2="3.303" transform="translate(33.579 26.588)" fill="none" stroke="#fff" stroke-linecap="round" stroke-linejoin="round" stroke-width="1.5"></line><line id="Line_35-3" data-name="Line 35" y1="3.217" x2="3.211" transform="translate(33.673 21.379)" fill="none" stroke="#fff" stroke-linecap="round" stroke-linejoin="round" stroke-width="1.5"></line><path id="Path_48-3" data-name="Path 48" d="M711.337,251.419a1.419,1.419,0,0,1-1.418,1.419h0a1.419,1.419,0,0,1-1.419-1.419h0A1.419,1.419,0,0,1,709.919,250h0a1.419,1.419,0,0,1,1.418,1.419Z" transform="translate(-677.29 -225.883)" fill="none" stroke="#fff" stroke-linecap="round" stroke-linejoin="round" stroke-width="1.5"></path></g></g></g></svg>