<svg xmlns="http://www.w3.org/2000/svg" xmlns:xlink="http://www.w3.org/1999/xlink" width="130" height="122" viewBox="0 0 130 122"><defs><clipPath id="clip-path"><rect id="Rectangle_157" data-name="Rectangle 157" width="110" height="110" transform="translate(22 11.407)" fill="#fff"></rect></clipPath><clipPath id="clip-path-2"><rect id="Rectangle_160" data-name="Rectangle 160" width="48" height="48" transform="translate(65 52.406)" fill="#fff"></rect></clipPath></defs><g id="square-integration-addon" transform="translate(-216 -1307)"><g id="integration-addon-bg" transform="translate(-693 -8721)"><path id="Path_205" data-name="Path 205" d="M6.373,0H123.627C127.147,0,130,3.793,130,8.472V113.528c0,4.679-2.853,8.472-6.373,8.472H6.373C2.853,122,0,118.207,0,113.528V8.472C0,3.793,2.853,0,6.373,0Z" transform="translate(909 10028)" fill="#baf0fc"></path></g><g id="buddyboss-icon" transform="translate(204 1301.594)" clip-path="url(#clip-path)"><g id="icon" transform="translate(23.009 12.013)"><path id="Path_214" data-name="Path 214" d="M145.142,90.562A54.231,54.231,0,1,1,90.91,36.33,54.231,54.231,0,0,1,145.142,90.562Z" transform="translate(-36.68 -36.33)" fill="#00cae6"></path></g><g id="logo" transform="translate(-12 -10)" clip-path="url(#clip-path-2)"><g id="Group_233" data-name="Group 233" transform="translate(65 52.406)"><path id="Path_221" data-name="Path 221" d="M8.021,0H39.979A8.021,8.021,0,0,1,48,8.021V39.977A8.023,8.023,0,0,1,39.979,48H8.021A8.023,8.023,0,0,1,0,39.977V8.021A8.021,8.021,0,0,1,8.021,0ZM36.749,39.274a2.532,2.532,0,0,0,2.532-2.532L39.274,11.26a2.532,2.532,0,0,0-2.532-2.531H11.262a2.531,2.531,0,0,0-2.531,2.534v25.48a2.532,2.532,0,0,0,2.531,2.532Z" transform="translate(0 0)" fill="#fff" fill-rule="evenodd"></path><path id="Path_222" data-name="Path 222" d="M9.447,21.071a1.453,1.453,0,0,1-1.442-1.453V9.445a1.453,1.453,0,0,1,1.453-1.46H19.645A1.455,1.455,0,0,1,21.1,9.445v10.17a1.456,1.456,0,0,1-1.453,1.46Z" transform="translate(9.461 9.437)" fill="#fff"></path></g></g></g></g></svg>